%TF.GenerationSoftware,KiCad,Pcbnew,8.0.6*%
%TF.CreationDate,2024-12-06T21:46:26+09:00*%
%TF.ProjectId,dummy_keyboard,64756d6d-795f-46b6-9579-626f6172642e,rev?*%
%TF.SameCoordinates,Original*%
%TF.FileFunction,Legend,Bot*%
%TF.FilePolarity,Positive*%
%FSLAX46Y46*%
G04 Gerber Fmt 4.6, Leading zero omitted, Abs format (unit mm)*
G04 Created by KiCad (PCBNEW 8.0.6) date 2024-12-06 21:46:26*
%MOMM*%
%LPD*%
G01*
G04 APERTURE LIST*
%ADD10C,0.200000*%
%ADD11C,0.300000*%
%ADD12C,0.250000*%
%ADD13C,0.125000*%
%ADD14C,0.000000*%
G04 APERTURE END LIST*
D10*
X181000000Y-94000000D02*
X181000000Y-115000000D01*
X180000000Y-93000000D02*
G75*
G02*
X181000000Y-94000000I0J-1000000D01*
G01*
X180000000Y-116000000D02*
X134000000Y-116000000D01*
X181000000Y-115000000D02*
G75*
G02*
X180000000Y-116000000I-1000000J0D01*
G01*
X134000000Y-116000000D02*
G75*
G02*
X133000000Y-115000000I0J1000000D01*
G01*
X133000000Y-115000000D02*
X133000000Y-94000000D01*
X134000000Y-93000000D02*
X180000000Y-93000000D01*
X133000000Y-94000000D02*
G75*
G02*
X134000000Y-93000000I1000000J0D01*
G01*
D11*
G36*
X167442637Y-97574375D02*
G01*
X167442637Y-98065792D01*
X166592672Y-98065792D01*
X166592672Y-98409685D01*
X167830983Y-98409685D01*
X167830983Y-97221688D01*
X166618073Y-97221688D01*
X166618073Y-97574375D01*
X167442637Y-97574375D01*
G37*
G36*
X165852616Y-98628527D02*
G01*
X165852616Y-98965094D01*
X165861653Y-99067676D01*
X165877041Y-99164396D01*
X165899314Y-99263194D01*
X165918562Y-99329993D01*
X165946894Y-99407662D01*
X165978646Y-99492658D01*
X166364061Y-99492658D01*
X166321922Y-99404052D01*
X166287926Y-99311430D01*
X166281507Y-99288471D01*
X166259147Y-99192369D01*
X166247313Y-99125317D01*
X166238520Y-99044228D01*
X166235589Y-98980237D01*
X167572086Y-98980237D01*
X167572086Y-98628527D01*
X165852616Y-98628527D01*
G37*
G36*
X165852616Y-97073677D02*
G01*
X165852616Y-98472212D01*
X166255617Y-98472212D01*
X166255617Y-97972002D01*
X166593161Y-97972002D01*
X166593161Y-97596845D01*
X166255617Y-97596845D01*
X166255617Y-97073677D01*
X165852616Y-97073677D01*
G37*
G36*
X164872496Y-98642287D02*
G01*
X164980364Y-98652133D01*
X165075160Y-98678389D01*
X165164340Y-98726224D01*
X165226422Y-98786732D01*
X165270569Y-98881254D01*
X165282065Y-98978283D01*
X165282065Y-99175143D01*
X165277671Y-99238021D01*
X165249690Y-99332108D01*
X165190230Y-99414501D01*
X165147501Y-99449142D01*
X165055744Y-99490903D01*
X164956734Y-99503405D01*
X163847871Y-99503405D01*
X163818586Y-99502189D01*
X163720865Y-99478004D01*
X163699284Y-99467974D01*
X163619260Y-99408639D01*
X163603775Y-99391557D01*
X163551360Y-99308011D01*
X163542728Y-99286721D01*
X163525959Y-99189309D01*
X163525959Y-99045694D01*
X163888904Y-99045694D01*
X163888904Y-99130202D01*
X163889217Y-99138542D01*
X163969016Y-99199078D01*
X164782344Y-99199078D01*
X164860013Y-99185401D01*
X164884926Y-99138506D01*
X164884926Y-99043251D01*
X164870272Y-98997334D01*
X164782344Y-98974375D01*
X163971946Y-98974375D01*
X163913817Y-98996845D01*
X163888904Y-99045694D01*
X163525959Y-99045694D01*
X163525959Y-98961674D01*
X163528316Y-98918355D01*
X163555757Y-98820990D01*
X163569655Y-98795281D01*
X163636845Y-98719874D01*
X163663712Y-98701189D01*
X163756036Y-98661256D01*
X163803651Y-98650409D01*
X163901605Y-98642205D01*
X164860990Y-98642205D01*
X164872496Y-98642287D01*
G37*
G36*
X163908932Y-97346741D02*
G01*
X164240614Y-97346741D01*
X164240614Y-97690635D01*
X163908932Y-97690635D01*
X163908932Y-97940739D01*
X164243545Y-97940739D01*
X164243545Y-98253370D01*
X163908932Y-98253370D01*
X163908932Y-98503475D01*
X163508862Y-98503475D01*
X163508862Y-97059511D01*
X163908932Y-97059511D01*
X163908932Y-97346741D01*
G37*
G36*
X165235990Y-97175955D02*
G01*
X165330425Y-97206545D01*
X165383365Y-97237114D01*
X165459385Y-97301800D01*
X165496548Y-97348282D01*
X165542916Y-97438576D01*
X165560479Y-97498041D01*
X165571737Y-97599288D01*
X165571737Y-97956371D01*
X165566997Y-98018676D01*
X165538032Y-98116106D01*
X165512262Y-98165064D01*
X165448639Y-98245066D01*
X165404263Y-98282343D01*
X165318702Y-98331039D01*
X165262259Y-98350686D01*
X165164829Y-98363279D01*
X164804815Y-98363279D01*
X164751170Y-98359470D01*
X164654849Y-98331039D01*
X164608452Y-98306277D01*
X164530774Y-98244577D01*
X164493405Y-98201026D01*
X164445778Y-98115617D01*
X164427024Y-98058189D01*
X164415003Y-97956371D01*
X164415003Y-97636413D01*
X164775505Y-97636413D01*
X164775505Y-97872351D01*
X164776162Y-97888006D01*
X164817515Y-97978353D01*
X164828247Y-97988199D01*
X164923028Y-98020362D01*
X165049546Y-98020362D01*
X165069279Y-98019337D01*
X165161409Y-97978353D01*
X165174919Y-97964559D01*
X165208304Y-97872351D01*
X165208304Y-97636413D01*
X165207571Y-97620873D01*
X165161409Y-97530900D01*
X165146185Y-97518797D01*
X165049546Y-97488890D01*
X164923028Y-97488890D01*
X164907381Y-97489546D01*
X164817515Y-97530900D01*
X164807669Y-97541631D01*
X164775505Y-97636413D01*
X164415003Y-97636413D01*
X164415003Y-97568025D01*
X164419537Y-97507712D01*
X164447243Y-97412686D01*
X164472179Y-97364620D01*
X164535170Y-97285680D01*
X164579523Y-97248311D01*
X164666573Y-97200683D01*
X164730746Y-97180758D01*
X164832658Y-97169909D01*
X165164829Y-97169909D01*
X165235990Y-97175955D01*
G37*
G36*
X161287229Y-97159162D02*
G01*
X161287229Y-97512337D01*
X161288891Y-97618653D01*
X161293875Y-97722728D01*
X161302183Y-97824561D01*
X161308234Y-97880167D01*
X161320977Y-97977389D01*
X161337310Y-98080792D01*
X161355934Y-98179329D01*
X161361967Y-98207941D01*
X161385276Y-98307904D01*
X161412548Y-98408265D01*
X161434263Y-98477585D01*
X161469259Y-98574717D01*
X161510169Y-98669239D01*
X161515352Y-98679818D01*
X161922260Y-98679818D01*
X161885441Y-98580594D01*
X161853140Y-98485157D01*
X161822202Y-98382314D01*
X161802093Y-98305638D01*
X161777678Y-98200366D01*
X161757557Y-98099482D01*
X161741729Y-98002987D01*
X161739078Y-97984214D01*
X161726773Y-97884577D01*
X161718221Y-97783781D01*
X161715143Y-97713593D01*
X161714541Y-97613115D01*
X161719050Y-97530900D01*
X163034542Y-97530900D01*
X163034542Y-97159162D01*
X161287229Y-97159162D01*
G37*
G36*
X161033705Y-99145345D02*
G01*
X163243126Y-99145345D01*
X163243126Y-98784842D01*
X162435170Y-98784842D01*
X162435170Y-98128318D01*
X162029727Y-98128318D01*
X162029727Y-98784842D01*
X161033705Y-98784842D01*
X161033705Y-99145345D01*
G37*
G36*
X160221995Y-98640045D02*
G01*
X160321493Y-98655394D01*
X160354160Y-98664644D01*
X160445568Y-98709616D01*
X160476171Y-98732748D01*
X160540334Y-98807313D01*
X160562957Y-98855719D01*
X160577459Y-98952882D01*
X160577459Y-99189309D01*
X160576768Y-99208774D01*
X160549127Y-99306057D01*
X160539808Y-99322443D01*
X160473412Y-99396915D01*
X160451697Y-99412433D01*
X160361549Y-99456022D01*
X160324854Y-99466648D01*
X160227215Y-99478004D01*
X159191625Y-99478004D01*
X159158622Y-99476905D01*
X159062177Y-99460418D01*
X159035095Y-99451626D01*
X158949825Y-99402288D01*
X158929198Y-99383759D01*
X158871179Y-99301172D01*
X158854214Y-99256642D01*
X158841381Y-99155603D01*
X158841381Y-99043251D01*
X159207257Y-99043251D01*
X159207257Y-99096496D01*
X159233635Y-99151207D01*
X159303977Y-99173677D01*
X160055268Y-99173677D01*
X160107536Y-99173677D01*
X160147592Y-99167815D01*
X160173482Y-99149253D01*
X160183251Y-99110662D01*
X160183251Y-99037390D01*
X160157362Y-98992937D01*
X160152065Y-98989096D01*
X160055268Y-98971444D01*
X159318143Y-98971444D01*
X159237055Y-98990495D01*
X159207257Y-99043251D01*
X158841381Y-99043251D01*
X158841381Y-98952882D01*
X158844970Y-98901568D01*
X158877373Y-98804056D01*
X158943475Y-98725247D01*
X159022275Y-98676299D01*
X159118969Y-98647670D01*
X159222400Y-98639274D01*
X160195952Y-98639274D01*
X160221995Y-98640045D01*
G37*
G36*
X160853454Y-98472212D02*
G01*
X158621563Y-98472212D01*
X158621563Y-98139553D01*
X160853454Y-98139553D01*
X160853454Y-98472212D01*
G37*
G36*
X160552058Y-97961256D02*
G01*
X158911723Y-97961256D01*
X158911723Y-97640321D01*
X160146615Y-97640321D01*
X160146615Y-97401451D01*
X158920027Y-97401451D01*
X158920027Y-97080516D01*
X160552058Y-97080516D01*
X160552058Y-97961256D01*
G37*
G36*
X158248848Y-98963140D02*
G01*
X156895254Y-98963140D01*
X156898185Y-99026643D01*
X156906489Y-99108709D01*
X156918698Y-99174999D01*
X156942637Y-99270397D01*
X156949400Y-99293364D01*
X156984276Y-99386150D01*
X157026657Y-99475073D01*
X156644173Y-99475073D01*
X156613398Y-99390076D01*
X156586531Y-99312407D01*
X156569432Y-99254499D01*
X156548356Y-99158620D01*
X156532767Y-99051922D01*
X156523517Y-98947997D01*
X156523517Y-98610942D01*
X158248848Y-98610942D01*
X158248848Y-98963140D01*
G37*
G36*
X157987020Y-97252951D02*
G01*
X158440334Y-97252951D01*
X158440334Y-97534319D01*
X158272784Y-97534319D01*
X158317725Y-97617362D01*
X158334689Y-97666693D01*
X158347522Y-97764396D01*
X158347522Y-98085331D01*
X158342988Y-98145438D01*
X158315282Y-98239204D01*
X158290520Y-98286320D01*
X158228820Y-98363768D01*
X158189638Y-98397440D01*
X158104256Y-98447299D01*
X158054857Y-98464820D01*
X157954780Y-98478073D01*
X157605512Y-98478073D01*
X157552146Y-98474437D01*
X157456036Y-98447299D01*
X157409533Y-98423024D01*
X157332937Y-98359371D01*
X157296255Y-98313828D01*
X157247941Y-98226015D01*
X157225902Y-98156158D01*
X157215701Y-98056999D01*
X157215701Y-97844508D01*
X157573761Y-97844508D01*
X157573761Y-98024759D01*
X157574070Y-98036634D01*
X157608932Y-98129295D01*
X157613437Y-98134145D01*
X157707117Y-98169351D01*
X157864410Y-98169351D01*
X157868169Y-98169311D01*
X157958688Y-98129295D01*
X157964711Y-98121570D01*
X157992393Y-98024759D01*
X157992393Y-97844508D01*
X157991660Y-97829784D01*
X157945498Y-97743391D01*
X157930345Y-97731570D01*
X157836566Y-97702358D01*
X157718353Y-97702358D01*
X157706565Y-97702715D01*
X157614305Y-97742903D01*
X157607059Y-97750685D01*
X157573761Y-97844508D01*
X157215701Y-97844508D01*
X157215701Y-97764396D01*
X157219164Y-97712698D01*
X157245010Y-97617850D01*
X157248647Y-97609239D01*
X157296789Y-97523572D01*
X157117515Y-97535296D01*
X157117515Y-97252951D01*
X157570341Y-97252951D01*
X157570341Y-97065373D01*
X157987020Y-97065373D01*
X157987020Y-97252951D01*
G37*
G36*
X156901116Y-98409685D02*
G01*
X156534752Y-98409685D01*
X156534752Y-97909476D01*
X156217236Y-97909476D01*
X156217236Y-97546531D01*
X156534752Y-97546531D01*
X156534752Y-97065373D01*
X156901116Y-97065373D01*
X156901116Y-98409685D01*
G37*
G36*
X154186113Y-97228039D02*
G01*
X154186113Y-97522107D01*
X154187555Y-97630952D01*
X154191883Y-97734369D01*
X154199096Y-97832360D01*
X154211157Y-97939824D01*
X154227145Y-98039902D01*
X154248120Y-98145415D01*
X154270010Y-98241646D01*
X154295731Y-98338813D01*
X154316538Y-98406266D01*
X154349803Y-98500153D01*
X154377599Y-98566978D01*
X154421944Y-98656088D01*
X154451849Y-98707173D01*
X154852896Y-98707173D01*
X154806673Y-98616742D01*
X154762116Y-98517781D01*
X154725443Y-98421756D01*
X154705373Y-98359371D01*
X154677352Y-98257848D01*
X154654960Y-98159665D01*
X154636830Y-98055520D01*
X154635519Y-98046252D01*
X154623387Y-97947785D01*
X154615419Y-97847870D01*
X154613049Y-97778073D01*
X154613500Y-97678160D01*
X154618422Y-97596845D01*
X155933914Y-97596845D01*
X155933914Y-97228039D01*
X154186113Y-97228039D01*
G37*
G36*
X154059595Y-99128736D02*
G01*
X156091695Y-99128736D01*
X156091695Y-98784842D01*
X155728750Y-98784842D01*
X155728750Y-98222107D01*
X155407327Y-98222107D01*
X155407327Y-98784842D01*
X155185554Y-98784842D01*
X155185554Y-98222107D01*
X154872923Y-98222107D01*
X154872923Y-98784842D01*
X154059595Y-98784842D01*
X154059595Y-99128736D01*
G37*
D12*
G36*
X169547800Y-102636510D02*
G01*
X169604840Y-102646138D01*
X169626063Y-102652715D01*
X169676464Y-102677596D01*
X169694128Y-102690557D01*
X169731798Y-102733772D01*
X169745319Y-102762119D01*
X169753987Y-102818317D01*
X169753987Y-102954263D01*
X169753136Y-102972256D01*
X169736746Y-103028876D01*
X169699496Y-103075602D01*
X169674270Y-103094208D01*
X169620719Y-103116637D01*
X169563551Y-103123352D01*
X168915001Y-103123352D01*
X168886673Y-103121663D01*
X168831125Y-103106419D01*
X168783549Y-103075322D01*
X168770910Y-103062985D01*
X168739943Y-103013516D01*
X168729620Y-102954263D01*
X168729620Y-102879830D01*
X168939999Y-102879830D01*
X168939999Y-102910445D01*
X168958537Y-102937972D01*
X169003758Y-102946679D01*
X169443896Y-102946679D01*
X169494174Y-102940780D01*
X169525632Y-102908479D01*
X169525632Y-102869156D01*
X169504285Y-102842754D01*
X169501192Y-102840294D01*
X169445582Y-102828990D01*
X169003758Y-102828990D01*
X168959099Y-102844439D01*
X168939999Y-102879830D01*
X168729620Y-102879830D01*
X168729620Y-102818317D01*
X168730691Y-102798304D01*
X168746754Y-102744165D01*
X168754665Y-102729972D01*
X168791695Y-102686304D01*
X168806265Y-102674700D01*
X168856297Y-102648947D01*
X168874659Y-102643294D01*
X168932696Y-102636026D01*
X169532935Y-102636026D01*
X169547800Y-102636510D01*
G37*
G36*
X168952919Y-101915852D02*
G01*
X169163298Y-101915852D01*
X169163298Y-102095615D01*
X168952919Y-102095615D01*
X168952919Y-102221449D01*
X169163298Y-102221449D01*
X169163298Y-102419188D01*
X168952919Y-102419188D01*
X168952919Y-102580974D01*
X168734395Y-102580974D01*
X168734395Y-101749290D01*
X168952919Y-101749290D01*
X168952919Y-101915852D01*
G37*
G36*
X169920548Y-102005733D02*
G01*
X169480411Y-102005733D01*
X169481245Y-102033240D01*
X169485466Y-102091121D01*
X169486468Y-102101993D01*
X169494660Y-102158653D01*
X169507094Y-102214988D01*
X169513852Y-102239800D01*
X169532219Y-102293965D01*
X169555686Y-102348687D01*
X169581822Y-102395596D01*
X169616587Y-102443634D01*
X169655679Y-102488284D01*
X169414404Y-102488284D01*
X169403273Y-102476667D01*
X169366374Y-102432108D01*
X169354203Y-102414534D01*
X169325927Y-102364978D01*
X169304230Y-102318578D01*
X169284325Y-102264346D01*
X169267785Y-102208247D01*
X169256620Y-102158303D01*
X169247585Y-102096199D01*
X169242687Y-102035736D01*
X169240821Y-101978769D01*
X169244191Y-101803219D01*
X169920548Y-101803219D01*
X169920548Y-102005733D01*
G37*
G36*
X168171388Y-102642815D02*
G01*
X168233412Y-102648476D01*
X168287920Y-102663573D01*
X168339198Y-102691079D01*
X168374895Y-102725870D01*
X168400279Y-102780221D01*
X168406890Y-102836012D01*
X168406890Y-102949207D01*
X168404363Y-102985362D01*
X168388274Y-103039462D01*
X168354085Y-103086838D01*
X168329515Y-103106756D01*
X168276755Y-103130769D01*
X168219824Y-103137958D01*
X167582228Y-103137958D01*
X167565389Y-103137259D01*
X167509200Y-103123352D01*
X167496791Y-103117585D01*
X167450777Y-103083467D01*
X167441873Y-103073645D01*
X167411735Y-103025606D01*
X167406771Y-103013365D01*
X167397129Y-102957352D01*
X167397129Y-102874774D01*
X167605822Y-102874774D01*
X167605822Y-102923366D01*
X167606002Y-102928162D01*
X167651886Y-102962970D01*
X168119550Y-102962970D01*
X168164210Y-102955105D01*
X168178535Y-102928141D01*
X168178535Y-102873369D01*
X168170109Y-102846967D01*
X168119550Y-102833765D01*
X167653572Y-102833765D01*
X167620147Y-102846686D01*
X167605822Y-102874774D01*
X167397129Y-102874774D01*
X167397129Y-102826463D01*
X167398484Y-102801554D01*
X167414263Y-102745569D01*
X167422254Y-102730787D01*
X167460889Y-102687427D01*
X167476337Y-102676684D01*
X167529423Y-102653722D01*
X167556802Y-102647485D01*
X167613125Y-102642767D01*
X168164772Y-102642767D01*
X168171388Y-102642815D01*
G37*
G36*
X167617338Y-101897876D02*
G01*
X167808055Y-101897876D01*
X167808055Y-102095615D01*
X167617338Y-102095615D01*
X167617338Y-102239425D01*
X167809741Y-102239425D01*
X167809741Y-102419188D01*
X167617338Y-102419188D01*
X167617338Y-102562998D01*
X167387298Y-102562998D01*
X167387298Y-101732719D01*
X167617338Y-101732719D01*
X167617338Y-101897876D01*
G37*
G36*
X168380397Y-101799674D02*
G01*
X168434697Y-101817263D01*
X168465137Y-101834840D01*
X168508849Y-101872035D01*
X168530218Y-101898762D01*
X168556880Y-101950681D01*
X168566978Y-101984874D01*
X168573451Y-102043090D01*
X168573451Y-102248413D01*
X168570726Y-102284238D01*
X168554071Y-102340260D01*
X168539253Y-102368412D01*
X168502670Y-102414413D01*
X168477154Y-102435847D01*
X168427956Y-102463847D01*
X168395501Y-102475144D01*
X168339479Y-102482385D01*
X168132471Y-102482385D01*
X168101625Y-102480195D01*
X168046241Y-102463847D01*
X168019562Y-102449609D01*
X167974898Y-102414132D01*
X167953410Y-102389090D01*
X167926025Y-102339980D01*
X167915242Y-102306959D01*
X167908329Y-102248413D01*
X167908329Y-102064437D01*
X168115618Y-102064437D01*
X168115618Y-102200102D01*
X168115996Y-102209103D01*
X168139774Y-102261053D01*
X168145944Y-102266714D01*
X168200444Y-102285208D01*
X168273191Y-102285208D01*
X168284538Y-102284618D01*
X168337513Y-102261053D01*
X168345281Y-102253121D01*
X168364477Y-102200102D01*
X168364477Y-102064437D01*
X168364056Y-102055502D01*
X168337513Y-102003767D01*
X168328759Y-101996808D01*
X168273191Y-101979612D01*
X168200444Y-101979612D01*
X168191447Y-101979989D01*
X168139774Y-102003767D01*
X168134112Y-102009938D01*
X168115618Y-102064437D01*
X167908329Y-102064437D01*
X167908329Y-102025114D01*
X167910936Y-101990434D01*
X167926867Y-101935794D01*
X167941205Y-101908156D01*
X167977426Y-101862766D01*
X168002929Y-101841278D01*
X168052982Y-101813893D01*
X168089882Y-101802436D01*
X168148481Y-101796197D01*
X168339479Y-101796197D01*
X168380397Y-101799674D01*
G37*
G36*
X166899411Y-101825971D02*
G01*
X167187593Y-101825971D01*
X167187593Y-102005733D01*
X167077769Y-102005733D01*
X167088369Y-102020447D01*
X167109390Y-102075778D01*
X167114564Y-102132129D01*
X167114564Y-102322284D01*
X167111879Y-102357820D01*
X167095465Y-102413008D01*
X167079033Y-102442975D01*
X167043221Y-102486599D01*
X167017310Y-102508547D01*
X166968507Y-102536876D01*
X166939143Y-102547430D01*
X166880873Y-102555414D01*
X166867110Y-102555414D01*
X166867110Y-102688832D01*
X167234500Y-102688832D01*
X167234500Y-102886571D01*
X166250861Y-102886571D01*
X166250861Y-103120262D01*
X166007900Y-103120262D01*
X166007900Y-101736089D01*
X166250861Y-101736089D01*
X166250861Y-102688832D01*
X166661506Y-102688832D01*
X166661506Y-102553448D01*
X166637988Y-102551638D01*
X166582579Y-102534910D01*
X166554841Y-102520379D01*
X166508708Y-102483790D01*
X166486760Y-102458142D01*
X166458430Y-102409076D01*
X166446428Y-102373503D01*
X166439892Y-102317509D01*
X166439892Y-102171171D01*
X166655327Y-102171171D01*
X166655327Y-102271445D01*
X166655896Y-102283236D01*
X166678640Y-102335766D01*
X166686289Y-102343049D01*
X166740152Y-102361046D01*
X166811215Y-102361046D01*
X166825250Y-102360147D01*
X166876941Y-102335486D01*
X166886200Y-102325361D01*
X166904186Y-102271445D01*
X166904186Y-102171171D01*
X166903528Y-102159556D01*
X166877221Y-102107973D01*
X166866600Y-102099478D01*
X166811215Y-102082975D01*
X166740152Y-102082975D01*
X166730835Y-102083366D01*
X166678640Y-102107973D01*
X166671924Y-102116034D01*
X166655327Y-102171171D01*
X166439892Y-102171171D01*
X166439892Y-102124826D01*
X166440206Y-102109585D01*
X166448810Y-102051587D01*
X166475564Y-101998150D01*
X166349168Y-102006295D01*
X166349168Y-101825971D01*
X166648586Y-101825971D01*
X166648586Y-101718113D01*
X166899411Y-101718113D01*
X166899411Y-101825971D01*
G37*
G36*
X165108806Y-101745358D02*
G01*
X164890281Y-101745358D01*
X164890281Y-103120262D01*
X165108806Y-103120262D01*
X165108806Y-102760737D01*
X165289973Y-102760737D01*
X165289973Y-102545021D01*
X165108806Y-102545021D01*
X165108806Y-102365259D01*
X165257672Y-102365259D01*
X165257672Y-102167520D01*
X165108806Y-102167520D01*
X165108806Y-101745358D01*
G37*
G36*
X165267221Y-101879899D02*
G01*
X165267221Y-102082694D01*
X165270043Y-102142285D01*
X165278506Y-102200947D01*
X165291096Y-102253469D01*
X165309176Y-102309831D01*
X165330972Y-102364600D01*
X165354013Y-102413008D01*
X165382176Y-102464736D01*
X165412596Y-102514871D01*
X165442209Y-102559065D01*
X165475849Y-102605661D01*
X165513076Y-102653540D01*
X165541360Y-102687427D01*
X165579640Y-102729943D01*
X165619348Y-102771472D01*
X165660481Y-102812013D01*
X165668879Y-102820002D01*
X165713315Y-102860647D01*
X165757247Y-102898588D01*
X165804912Y-102937818D01*
X165827295Y-102955667D01*
X165827295Y-102661025D01*
X165780718Y-102620837D01*
X165738630Y-102579272D01*
X165701030Y-102536330D01*
X165682080Y-102511878D01*
X165647596Y-102462647D01*
X165617171Y-102413965D01*
X165588392Y-102361048D01*
X165586019Y-102356271D01*
X165562533Y-102304449D01*
X165542362Y-102249961D01*
X165530967Y-102210494D01*
X165517710Y-102152444D01*
X165510744Y-102102918D01*
X165854821Y-102102918D01*
X165854821Y-101879899D01*
X165267221Y-101879899D01*
G37*
G36*
X164579629Y-101741707D02*
G01*
X164579629Y-103120262D01*
X164790288Y-103120262D01*
X164790288Y-101741707D01*
X164579629Y-101741707D01*
G37*
G36*
X163528579Y-101845632D02*
G01*
X163528579Y-102052078D01*
X163529438Y-102110793D01*
X163532612Y-102175150D01*
X163538124Y-102235045D01*
X163547288Y-102298032D01*
X163553015Y-102327340D01*
X163567294Y-102388556D01*
X163582639Y-102443594D01*
X163600940Y-102497505D01*
X163608629Y-102516934D01*
X163631776Y-102568453D01*
X163660042Y-102618966D01*
X163669299Y-102632375D01*
X163701319Y-102670575D01*
X163441506Y-102667485D01*
X163441506Y-101736089D01*
X163196860Y-101736089D01*
X163196860Y-102113591D01*
X163044905Y-102113591D01*
X163044905Y-102347282D01*
X163196860Y-102347282D01*
X163196860Y-103120262D01*
X163441506Y-103120262D01*
X163441506Y-102875336D01*
X164426831Y-102875336D01*
X164426831Y-102667485D01*
X164132188Y-102667485D01*
X164132188Y-102408795D01*
X163941190Y-102408795D01*
X163941190Y-102667485D01*
X163919844Y-102667485D01*
X163894076Y-102614535D01*
X163871545Y-102559610D01*
X163852252Y-102502710D01*
X163848781Y-102491093D01*
X163832949Y-102433606D01*
X163819859Y-102377710D01*
X163808629Y-102318061D01*
X163807773Y-102312734D01*
X163799472Y-102256016D01*
X163793067Y-102198229D01*
X163790077Y-102157689D01*
X163787255Y-102100066D01*
X163786145Y-102054606D01*
X164340882Y-102054606D01*
X164340882Y-101845632D01*
X163528579Y-101845632D01*
G37*
G36*
X162960360Y-103141047D02*
G01*
X162922017Y-103098069D01*
X162907836Y-103078973D01*
X162886027Y-103025870D01*
X162884523Y-103012405D01*
X162956709Y-103012405D01*
X162956709Y-102832642D01*
X162754195Y-102832642D01*
X162754195Y-102974486D01*
X162762835Y-103033475D01*
X162786490Y-103086638D01*
X162793518Y-103097792D01*
X162830428Y-103143253D01*
X162873304Y-103180033D01*
X162902218Y-103199189D01*
X162960360Y-103141047D01*
G37*
G36*
X161934308Y-102819441D02*
G01*
X161157396Y-102819441D01*
X161157360Y-102845392D01*
X161162452Y-102902862D01*
X161169472Y-102941171D01*
X161183237Y-102996114D01*
X161187125Y-103009319D01*
X161207179Y-103062671D01*
X161231548Y-103113802D01*
X161014709Y-103113802D01*
X160996452Y-103064929D01*
X160980161Y-103020269D01*
X160969094Y-102982075D01*
X160956286Y-102926175D01*
X160955628Y-102922847D01*
X160947483Y-102867075D01*
X160943928Y-102810452D01*
X160943928Y-102616927D01*
X161934308Y-102616927D01*
X161934308Y-102819441D01*
G37*
G36*
X161146442Y-102527045D02*
G01*
X160943928Y-102527045D01*
X160943928Y-101736089D01*
X161146442Y-101736089D01*
X161146442Y-102527045D01*
G37*
G36*
X161596129Y-102023710D02*
G01*
X161840213Y-102023710D01*
X161840213Y-101807994D01*
X162065198Y-101807994D01*
X162065198Y-102509069D01*
X161371145Y-102509069D01*
X161371145Y-102319195D01*
X161596129Y-102319195D01*
X161840213Y-102319195D01*
X161840213Y-102204315D01*
X161596129Y-102204315D01*
X161596129Y-102319195D01*
X161371145Y-102319195D01*
X161371145Y-101807994D01*
X161596129Y-101807994D01*
X161596129Y-102023710D01*
G37*
G36*
X160517553Y-102086065D02*
G01*
X160517553Y-102598950D01*
X160109716Y-102598950D01*
X160109716Y-102832642D01*
X160758547Y-102832642D01*
X160758547Y-101861923D01*
X160126007Y-101861923D01*
X160126007Y-102086065D01*
X160517553Y-102086065D01*
G37*
G36*
X160022644Y-101745639D02*
G01*
X159811984Y-101745639D01*
X159811984Y-103102286D01*
X160022644Y-103102286D01*
X160022644Y-102455140D01*
X160266728Y-102455140D01*
X160266728Y-102203472D01*
X160022644Y-102203472D01*
X160022644Y-101745639D01*
G37*
G36*
X159524083Y-101743111D02*
G01*
X159524083Y-103102286D01*
X159733057Y-103102286D01*
X159733057Y-101743111D01*
X159524083Y-101743111D01*
G37*
G36*
X158485953Y-103120262D02*
G01*
X158251138Y-103120262D01*
X158251138Y-101741707D01*
X158485953Y-101741707D01*
X158485953Y-103120262D01*
G37*
G36*
X159061542Y-101850050D02*
G01*
X159120988Y-101856425D01*
X159177759Y-101873158D01*
X159230143Y-101901106D01*
X159273819Y-101938322D01*
X159308508Y-101983684D01*
X159333928Y-102036068D01*
X159336445Y-102043056D01*
X159350146Y-102097774D01*
X159354713Y-102156565D01*
X159354713Y-102541651D01*
X159354348Y-102561093D01*
X159348133Y-102619309D01*
X159331400Y-102677035D01*
X159308259Y-102721857D01*
X159270449Y-102767478D01*
X159238388Y-102792307D01*
X159187028Y-102817755D01*
X159152980Y-102827511D01*
X159096585Y-102833765D01*
X158834524Y-102833765D01*
X158801727Y-102830921D01*
X158748294Y-102813542D01*
X158715596Y-102794190D01*
X158674142Y-102755400D01*
X158648598Y-102719641D01*
X158623022Y-102666080D01*
X158621847Y-102662839D01*
X158608119Y-102607918D01*
X158603922Y-102551201D01*
X158603922Y-102175946D01*
X158825536Y-102175946D01*
X158825536Y-102518900D01*
X158832558Y-102564121D01*
X158853062Y-102606534D01*
X158886768Y-102637431D01*
X158934798Y-102649228D01*
X159015691Y-102649228D01*
X159049029Y-102646540D01*
X159102483Y-102621702D01*
X159125649Y-102575626D01*
X159131133Y-102518900D01*
X159131133Y-102175946D01*
X159121583Y-102130163D01*
X159096023Y-102090840D01*
X159058947Y-102063594D01*
X159015691Y-102054045D01*
X158934798Y-102054045D01*
X158892666Y-102063594D01*
X158858399Y-102090559D01*
X158834805Y-102129882D01*
X158825536Y-102175946D01*
X158603922Y-102175946D01*
X158603922Y-102161340D01*
X158604004Y-102153297D01*
X158609789Y-102094999D01*
X158624707Y-102040281D01*
X158650127Y-101987055D01*
X158684816Y-101940850D01*
X158727931Y-101902791D01*
X158779191Y-101874001D01*
X158789644Y-101869684D01*
X158845835Y-101854469D01*
X158904182Y-101849845D01*
X159047993Y-101849845D01*
X159061542Y-101850050D01*
G37*
G36*
X157387434Y-102050674D02*
G01*
X157806506Y-102050674D01*
X157806506Y-102221449D01*
X157460463Y-102221449D01*
X157460463Y-102419188D01*
X157806506Y-102419188D01*
X157806506Y-102634903D01*
X157339123Y-102634903D01*
X157339123Y-102832642D01*
X158065477Y-102832642D01*
X158065477Y-101843947D01*
X157387434Y-101843947D01*
X157387434Y-102050674D01*
G37*
G36*
X157182112Y-101750133D02*
G01*
X156932972Y-101750133D01*
X156932972Y-103120262D01*
X157182112Y-103120262D01*
X157182112Y-102419188D01*
X157405411Y-102419188D01*
X157405411Y-102185496D01*
X157182112Y-102185496D01*
X157182112Y-101750133D01*
G37*
G36*
X155881921Y-101845632D02*
G01*
X155881921Y-102052078D01*
X155882780Y-102110793D01*
X155885954Y-102175150D01*
X155891467Y-102235045D01*
X155900631Y-102298032D01*
X155906358Y-102327340D01*
X155920637Y-102388556D01*
X155935982Y-102443594D01*
X155954283Y-102497505D01*
X155961972Y-102516934D01*
X155985118Y-102568453D01*
X156013384Y-102618966D01*
X156022642Y-102632375D01*
X156054662Y-102670575D01*
X155794849Y-102667485D01*
X155794849Y-101736089D01*
X155550203Y-101736089D01*
X155550203Y-102113591D01*
X155398247Y-102113591D01*
X155398247Y-102347282D01*
X155550203Y-102347282D01*
X155550203Y-103120262D01*
X155794849Y-103120262D01*
X155794849Y-102875336D01*
X156780173Y-102875336D01*
X156780173Y-102667485D01*
X156485531Y-102667485D01*
X156485531Y-102408795D01*
X156294533Y-102408795D01*
X156294533Y-102667485D01*
X156273186Y-102667485D01*
X156247419Y-102614535D01*
X156224888Y-102559610D01*
X156205594Y-102502710D01*
X156202124Y-102491093D01*
X156186291Y-102433606D01*
X156173202Y-102377710D01*
X156161972Y-102318061D01*
X156161115Y-102312734D01*
X156152815Y-102256016D01*
X156146410Y-102198229D01*
X156143420Y-102157689D01*
X156140597Y-102100066D01*
X156139488Y-102054606D01*
X156694224Y-102054606D01*
X156694224Y-101845632D01*
X155881921Y-101845632D01*
G37*
G36*
X155313703Y-103141047D02*
G01*
X155275359Y-103098069D01*
X155261178Y-103078973D01*
X155239369Y-103025870D01*
X155237865Y-103012405D01*
X155310051Y-103012405D01*
X155310051Y-102832642D01*
X155107537Y-102832642D01*
X155107537Y-102974486D01*
X155116178Y-103033475D01*
X155139833Y-103086638D01*
X155146860Y-103097792D01*
X155183770Y-103143253D01*
X155226646Y-103180033D01*
X155255561Y-103199189D01*
X155313703Y-103141047D01*
G37*
G36*
X169738819Y-104710713D02*
G01*
X170243840Y-104710713D01*
X170243840Y-104908452D01*
X168999545Y-104908452D01*
X168999545Y-104710713D01*
X169500915Y-104710713D01*
X169500915Y-104530950D01*
X169738819Y-104530950D01*
X169738819Y-104710713D01*
G37*
G36*
X169339409Y-103973686D02*
G01*
X169887685Y-103973686D01*
X169887685Y-103757971D01*
X170109580Y-103757971D01*
X170109580Y-104477021D01*
X169115829Y-104477021D01*
X169115829Y-104284338D01*
X169339409Y-104284338D01*
X169887685Y-104284338D01*
X169887685Y-104171425D01*
X169339409Y-104171425D01*
X169339409Y-104284338D01*
X169115829Y-104284338D01*
X169115829Y-103757971D01*
X169339409Y-103757971D01*
X169339409Y-103973686D01*
G37*
G36*
X168733833Y-105030915D02*
G01*
X168733833Y-104566903D01*
X168513624Y-104566903D01*
X168513624Y-104818571D01*
X167759463Y-104818571D01*
X167759463Y-105030915D01*
X168733833Y-105030915D01*
G37*
G36*
X167792045Y-103667808D02*
G01*
X167792045Y-104548927D01*
X168028265Y-104548927D01*
X168028265Y-104207377D01*
X168215892Y-104207377D01*
X168215892Y-103973686D01*
X168028265Y-103973686D01*
X168028265Y-103667808D01*
X167792045Y-103667808D01*
G37*
G36*
X168269259Y-103944474D02*
G01*
X168271576Y-104004951D01*
X168277708Y-104067490D01*
X168287573Y-104124207D01*
X168296223Y-104158785D01*
X168314333Y-104216062D01*
X168335754Y-104270445D01*
X168352961Y-104305685D01*
X168382572Y-104354690D01*
X168417770Y-104400468D01*
X168438067Y-104421969D01*
X168670916Y-104421969D01*
X168633683Y-104378724D01*
X168600394Y-104332231D01*
X168575136Y-104286866D01*
X168552308Y-104234291D01*
X168533322Y-104178502D01*
X168527949Y-104158785D01*
X168515408Y-104101714D01*
X168507473Y-104045055D01*
X168507164Y-104041659D01*
X168503060Y-103984737D01*
X168502389Y-103961327D01*
X168927921Y-103961327D01*
X168927921Y-103775947D01*
X168274315Y-103775947D01*
X168269259Y-103944474D01*
G37*
G36*
X167534760Y-105037376D02*
G01*
X167534760Y-104566903D01*
X167312865Y-104566903D01*
X167312865Y-104836547D01*
X166549154Y-104836547D01*
X166549154Y-105037376D01*
X167534760Y-105037376D01*
G37*
G36*
X166973282Y-103923970D02*
G01*
X166974667Y-103984208D01*
X166980718Y-104042002D01*
X166991434Y-104097352D01*
X166999404Y-104127046D01*
X167017249Y-104183502D01*
X167037957Y-104240977D01*
X167059793Y-104293607D01*
X167087368Y-104348117D01*
X167115719Y-104397095D01*
X167147197Y-104445525D01*
X167150517Y-104450338D01*
X167396286Y-104450338D01*
X167361441Y-104400794D01*
X167328822Y-104349238D01*
X167300354Y-104296770D01*
X167296012Y-104287709D01*
X167273024Y-104234965D01*
X167253291Y-104180500D01*
X167244892Y-104152325D01*
X167231343Y-104095019D01*
X167223014Y-104039335D01*
X167222703Y-104036041D01*
X167218244Y-103977748D01*
X167217647Y-103955710D01*
X167670705Y-103955710D01*
X167670705Y-103759656D01*
X166974686Y-103759656D01*
X166973282Y-103923970D01*
G37*
G36*
X166405344Y-104043906D02*
G01*
X166405344Y-104243330D01*
X166580051Y-104243330D01*
X166580051Y-104584879D01*
X166795485Y-104584879D01*
X166795485Y-103668089D01*
X166580051Y-103668089D01*
X166580051Y-104043906D01*
X166405344Y-104043906D01*
G37*
G36*
X165959570Y-104028713D02*
G01*
X166014360Y-104041378D01*
X166044128Y-104053039D01*
X166094692Y-104083229D01*
X166117363Y-104103194D01*
X166151429Y-104149235D01*
X166164266Y-104179702D01*
X166172495Y-104235746D01*
X166172495Y-104368321D01*
X166170603Y-104393825D01*
X166153115Y-104447810D01*
X166139455Y-104470522D01*
X166099747Y-104513536D01*
X166070090Y-104534321D01*
X166018573Y-104558196D01*
X165971586Y-104570090D01*
X165912963Y-104574767D01*
X165813531Y-104574767D01*
X165813531Y-104692737D01*
X166332877Y-104692737D01*
X166332877Y-104908452D01*
X165059371Y-104908452D01*
X165059371Y-104692737D01*
X165586862Y-104692737D01*
X165586862Y-104574767D01*
X165500351Y-104574767D01*
X165453716Y-104571918D01*
X165397549Y-104559881D01*
X165362896Y-104547136D01*
X165312162Y-104518872D01*
X165288531Y-104499487D01*
X165253739Y-104454551D01*
X165241586Y-104427200D01*
X165232392Y-104370006D01*
X165232392Y-104316639D01*
X165426761Y-104316639D01*
X165427728Y-104330131D01*
X165454287Y-104381523D01*
X165464889Y-104391068D01*
X165519732Y-104409610D01*
X165886841Y-104409610D01*
X165901847Y-104408633D01*
X165953409Y-104381803D01*
X165961905Y-104370954D01*
X165978408Y-104316639D01*
X165977131Y-104300275D01*
X165951724Y-104249509D01*
X165941313Y-104239677D01*
X165886841Y-104220579D01*
X165519732Y-104220579D01*
X165503544Y-104221963D01*
X165454287Y-104249509D01*
X165443561Y-104262514D01*
X165426761Y-104316639D01*
X165232392Y-104316639D01*
X165232392Y-104234061D01*
X165239332Y-104175405D01*
X165262996Y-104121783D01*
X165303455Y-104079577D01*
X165317069Y-104070040D01*
X165367408Y-104045024D01*
X165425373Y-104030432D01*
X165484060Y-104026210D01*
X165920827Y-104026210D01*
X165959570Y-104028713D01*
G37*
G36*
X165857068Y-103811899D02*
G01*
X166242153Y-103811899D01*
X166242153Y-103991662D01*
X165157959Y-103991662D01*
X165157959Y-103811899D01*
X165562425Y-103811899D01*
X165562425Y-103682414D01*
X165857068Y-103682414D01*
X165857068Y-103811899D01*
G37*
G36*
X164057193Y-103777632D02*
G01*
X164057193Y-103984078D01*
X164058052Y-104042793D01*
X164061226Y-104107150D01*
X164066739Y-104167045D01*
X164075903Y-104230032D01*
X164081630Y-104259340D01*
X164095909Y-104320556D01*
X164111254Y-104375594D01*
X164129555Y-104429505D01*
X164137244Y-104448934D01*
X164160390Y-104500453D01*
X164188656Y-104550966D01*
X164197914Y-104564375D01*
X164229934Y-104602575D01*
X163970121Y-104599485D01*
X163970121Y-103668089D01*
X163725475Y-103668089D01*
X163725475Y-104045591D01*
X163573519Y-104045591D01*
X163573519Y-104279282D01*
X163725475Y-104279282D01*
X163725475Y-105052262D01*
X163970121Y-105052262D01*
X163970121Y-104807336D01*
X164955445Y-104807336D01*
X164955445Y-104599485D01*
X164660803Y-104599485D01*
X164660803Y-104340795D01*
X164469805Y-104340795D01*
X164469805Y-104599485D01*
X164448458Y-104599485D01*
X164422691Y-104546535D01*
X164400160Y-104491610D01*
X164380866Y-104434710D01*
X164377396Y-104423093D01*
X164361563Y-104365606D01*
X164348474Y-104309710D01*
X164337244Y-104250061D01*
X164336387Y-104244734D01*
X164328087Y-104188016D01*
X164321682Y-104130229D01*
X164318692Y-104089689D01*
X164315869Y-104032066D01*
X164314760Y-103986606D01*
X164869496Y-103986606D01*
X164869496Y-103777632D01*
X164057193Y-103777632D01*
G37*
G36*
X163488975Y-105073047D02*
G01*
X163450631Y-105030069D01*
X163436450Y-105010973D01*
X163414641Y-104957870D01*
X163413137Y-104944405D01*
X163485323Y-104944405D01*
X163485323Y-104764642D01*
X163282809Y-104764642D01*
X163282809Y-104906486D01*
X163291450Y-104965475D01*
X163315105Y-105018638D01*
X163322132Y-105029792D01*
X163359042Y-105075253D01*
X163401918Y-105112033D01*
X163430833Y-105131189D01*
X163488975Y-105073047D01*
G37*
G36*
X161550346Y-103774542D02*
G01*
X161550346Y-103964698D01*
X161551037Y-104024038D01*
X161553111Y-104080297D01*
X161557277Y-104142039D01*
X161563326Y-104199587D01*
X161570007Y-104245577D01*
X161579891Y-104302490D01*
X161591471Y-104361230D01*
X161604912Y-104419929D01*
X161611858Y-104446687D01*
X161628562Y-104500444D01*
X161640789Y-104534602D01*
X161662517Y-104586726D01*
X161675056Y-104612967D01*
X161930937Y-104612967D01*
X161902744Y-104562584D01*
X161876147Y-104506995D01*
X161854970Y-104452561D01*
X161843865Y-104416913D01*
X161828778Y-104358521D01*
X161816874Y-104301665D01*
X161807454Y-104240897D01*
X161806789Y-104235465D01*
X161801071Y-104177721D01*
X161798089Y-104119118D01*
X161798081Y-104078173D01*
X161799707Y-104019962D01*
X161802295Y-103973686D01*
X162514604Y-103973686D01*
X162514604Y-103774542D01*
X161550346Y-103774542D01*
G37*
G36*
X161423950Y-104908452D02*
G01*
X162626394Y-104908452D01*
X162626394Y-104694703D01*
X161423950Y-104694703D01*
X161423950Y-104908452D01*
G37*
G36*
X161287162Y-103793923D02*
G01*
X160686923Y-103793923D01*
X160686923Y-104369164D01*
X161039426Y-104369164D01*
X161039426Y-104584879D01*
X160638331Y-104584879D01*
X160638331Y-104782618D01*
X161269467Y-104782618D01*
X161269467Y-104171425D01*
X160897302Y-104171425D01*
X160897302Y-104009919D01*
X161287162Y-104009919D01*
X161287162Y-103793923D01*
G37*
G36*
X160232460Y-103686065D02*
G01*
X160017026Y-103686065D01*
X160017026Y-105034286D01*
X160232460Y-105034286D01*
X160232460Y-104351188D01*
X160348744Y-104351188D01*
X160345374Y-105034286D01*
X160568954Y-105034286D01*
X160568954Y-103686065D01*
X160348744Y-103686065D01*
X160348744Y-104126203D01*
X160232460Y-104126203D01*
X160232460Y-103686065D01*
G37*
G36*
X159848498Y-103735219D02*
G01*
X159060351Y-103735219D01*
X159060351Y-103919757D01*
X159848498Y-103919757D01*
X159848498Y-103735219D01*
G37*
G36*
X159137312Y-103973686D02*
G01*
X159234496Y-104243330D01*
X159076642Y-104243330D01*
X159076642Y-104423093D01*
X159848498Y-104423093D01*
X159848498Y-104243049D01*
X159674353Y-104250071D01*
X159771257Y-103973686D01*
X159572675Y-103973686D01*
X159486726Y-104243330D01*
X159423809Y-104243330D01*
X159336455Y-103973686D01*
X159137312Y-103973686D01*
G37*
G36*
X158973279Y-103679043D02*
G01*
X158764304Y-103679043D01*
X158764304Y-104459045D01*
X158973279Y-104459045D01*
X158973279Y-103679043D01*
G37*
G36*
X159693172Y-104586003D02*
G01*
X158764304Y-104586003D01*
X158764304Y-104768012D01*
X158768394Y-104827429D01*
X158775820Y-104876432D01*
X158787990Y-104932050D01*
X158796886Y-104964628D01*
X158815582Y-105020211D01*
X158828907Y-105053667D01*
X159052206Y-105053667D01*
X159026523Y-105001579D01*
X159007704Y-104948106D01*
X159006141Y-104941877D01*
X158993878Y-104887035D01*
X158987884Y-104853961D01*
X158983109Y-104810425D01*
X158981424Y-104777001D01*
X159693172Y-104777001D01*
X159693172Y-104586003D01*
G37*
G36*
X158607574Y-104544433D02*
G01*
X158557033Y-104575435D01*
X158505966Y-104603558D01*
X158454372Y-104628802D01*
X158402251Y-104651167D01*
X158348638Y-104669354D01*
X158292568Y-104682344D01*
X158234039Y-104690139D01*
X158173053Y-104692737D01*
X158115158Y-104690214D01*
X158089632Y-104687400D01*
X158033860Y-104675498D01*
X158017446Y-104669986D01*
X157968024Y-104641448D01*
X157965484Y-104639089D01*
X157941047Y-104590497D01*
X157954586Y-104534520D01*
X157958462Y-104529546D01*
X158001024Y-104491648D01*
X158012952Y-104484324D01*
X158064301Y-104460046D01*
X158082329Y-104453709D01*
X158136552Y-104438440D01*
X158142718Y-104437137D01*
X158203090Y-104421302D01*
X158257528Y-104406380D01*
X158311678Y-104390685D01*
X158348603Y-104379275D01*
X158403599Y-104360730D01*
X158451124Y-104340795D01*
X158503720Y-104305651D01*
X158545434Y-104265313D01*
X158580346Y-104211687D01*
X158600447Y-104150992D01*
X158605888Y-104093340D01*
X158600161Y-104032591D01*
X158582979Y-103978004D01*
X158565161Y-103945036D01*
X158527994Y-103896983D01*
X158483132Y-103855975D01*
X158459831Y-103839426D01*
X158409365Y-103810697D01*
X158354870Y-103788130D01*
X158316302Y-103776509D01*
X158257344Y-103764014D01*
X158198859Y-103757286D01*
X158160133Y-103756004D01*
X158100019Y-103758293D01*
X158041015Y-103765158D01*
X157983122Y-103776600D01*
X157951440Y-103784935D01*
X157895250Y-103803783D01*
X157840439Y-103828097D01*
X157787004Y-103857877D01*
X157757914Y-103876782D01*
X157757914Y-104127608D01*
X157801539Y-104091968D01*
X157846953Y-104059635D01*
X157896703Y-104030955D01*
X157932340Y-104014413D01*
X157986364Y-103994802D01*
X158024468Y-103984921D01*
X158082795Y-103977855D01*
X158117158Y-103979303D01*
X158174583Y-103988521D01*
X158229986Y-104007630D01*
X158238498Y-104012166D01*
X158276154Y-104055593D01*
X158282315Y-104093340D01*
X158256755Y-104141933D01*
X158209789Y-104175006D01*
X158194119Y-104183222D01*
X158142621Y-104205803D01*
X158119125Y-104214399D01*
X158064810Y-104231788D01*
X158059016Y-104233499D01*
X158003544Y-104250459D01*
X157946436Y-104268885D01*
X157905937Y-104282653D01*
X157851943Y-104304783D01*
X157800639Y-104334214D01*
X157784036Y-104346132D01*
X157740892Y-104387609D01*
X157710201Y-104435120D01*
X157704828Y-104446406D01*
X157687380Y-104501580D01*
X157680408Y-104562138D01*
X157680391Y-104601732D01*
X157686684Y-104658297D01*
X157703680Y-104714120D01*
X157731230Y-104763237D01*
X157770150Y-104809727D01*
X157815705Y-104849345D01*
X157849761Y-104871938D01*
X157899950Y-104898248D01*
X157953193Y-104919248D01*
X158004245Y-104933731D01*
X158060828Y-104944925D01*
X158120359Y-104951837D01*
X158163504Y-104953393D01*
X158225766Y-104950815D01*
X158282192Y-104944197D01*
X158339636Y-104933506D01*
X158390735Y-104920811D01*
X158448420Y-104902694D01*
X158503789Y-104880926D01*
X158556840Y-104855506D01*
X158607574Y-104826435D01*
X158607574Y-104544433D01*
G37*
G36*
X156397335Y-103757971D02*
G01*
X156143701Y-103757971D01*
X156537774Y-104962381D01*
X156747872Y-104962381D01*
X156909939Y-104555949D01*
X157072007Y-104962381D01*
X157282104Y-104962381D01*
X157676178Y-103757971D01*
X157364683Y-103757971D01*
X157121441Y-104528984D01*
X156953476Y-104027615D01*
X156866403Y-104027615D01*
X156641138Y-104589092D01*
X156397335Y-103757971D01*
G37*
G36*
X155182532Y-103777632D02*
G01*
X155182532Y-103984078D01*
X155183391Y-104042793D01*
X155186565Y-104107150D01*
X155192077Y-104167045D01*
X155201241Y-104230032D01*
X155206968Y-104259340D01*
X155221247Y-104320556D01*
X155236592Y-104375594D01*
X155254893Y-104429505D01*
X155262582Y-104448934D01*
X155285729Y-104500453D01*
X155313995Y-104550966D01*
X155323252Y-104564375D01*
X155355273Y-104602575D01*
X155095459Y-104599485D01*
X155095459Y-103668089D01*
X154850813Y-103668089D01*
X154850813Y-104045591D01*
X154698858Y-104045591D01*
X154698858Y-104279282D01*
X154850813Y-104279282D01*
X154850813Y-105052262D01*
X155095459Y-105052262D01*
X155095459Y-104807336D01*
X156080784Y-104807336D01*
X156080784Y-104599485D01*
X155786141Y-104599485D01*
X155786141Y-104340795D01*
X155595143Y-104340795D01*
X155595143Y-104599485D01*
X155573797Y-104599485D01*
X155548029Y-104546535D01*
X155525499Y-104491610D01*
X155506205Y-104434710D01*
X155502734Y-104423093D01*
X155486902Y-104365606D01*
X155473812Y-104309710D01*
X155462582Y-104250061D01*
X155461726Y-104244734D01*
X155453425Y-104188016D01*
X155447020Y-104130229D01*
X155444030Y-104089689D01*
X155441208Y-104032066D01*
X155440098Y-103986606D01*
X155994835Y-103986606D01*
X155994835Y-103777632D01*
X155182532Y-103777632D01*
G37*
G36*
X172043715Y-106966005D02*
G01*
X171072997Y-106966005D01*
X171072997Y-106750571D01*
X171804125Y-106750571D01*
X171804125Y-106498903D01*
X172043715Y-106498903D01*
X172043715Y-106966005D01*
G37*
G36*
X171306126Y-106480927D02*
G01*
X171072997Y-106480927D01*
X171072997Y-105597280D01*
X171306126Y-105597280D01*
X171306126Y-106480927D01*
G37*
G36*
X171981874Y-105635559D02*
G01*
X172038379Y-105651490D01*
X172069648Y-105667369D01*
X172115621Y-105702610D01*
X172140781Y-105731076D01*
X172169549Y-105779852D01*
X172182461Y-105817111D01*
X172189492Y-105875070D01*
X172189492Y-106107919D01*
X172186200Y-106148024D01*
X172169549Y-106203137D01*
X172152486Y-106234802D01*
X172115621Y-106280379D01*
X172088959Y-106302959D01*
X172038379Y-106332341D01*
X172002125Y-106344708D01*
X171945969Y-106351441D01*
X171725760Y-106351441D01*
X171690962Y-106348755D01*
X171635598Y-106332341D01*
X171604828Y-106315910D01*
X171560041Y-106280098D01*
X171537580Y-106253831D01*
X171508921Y-106202856D01*
X171496919Y-106165643D01*
X171490383Y-106107919D01*
X171490383Y-105920292D01*
X171708907Y-105920292D01*
X171708907Y-106061012D01*
X171709806Y-106075475D01*
X171734467Y-106126738D01*
X171744507Y-106135424D01*
X171798508Y-106152298D01*
X171874626Y-106152298D01*
X171891114Y-106151061D01*
X171942318Y-106126457D01*
X171953481Y-106114493D01*
X171970968Y-106061012D01*
X171970968Y-105920292D01*
X171969960Y-105906401D01*
X171942318Y-105856251D01*
X171929190Y-105846182D01*
X171874626Y-105830410D01*
X171798508Y-105830410D01*
X171786798Y-105831041D01*
X171734467Y-105856251D01*
X171725781Y-105866290D01*
X171708907Y-105920292D01*
X171490383Y-105920292D01*
X171490383Y-105875070D01*
X171493443Y-105835147D01*
X171508921Y-105780133D01*
X171524839Y-105748336D01*
X171560322Y-105702891D01*
X171586220Y-105680258D01*
X171635879Y-105651490D01*
X171668531Y-105640193D01*
X171725760Y-105632952D01*
X171945969Y-105632952D01*
X171981874Y-105635559D01*
G37*
G36*
X170592360Y-106497516D02*
G01*
X170648026Y-106506206D01*
X170666810Y-106511420D01*
X170719370Y-106535698D01*
X170735222Y-106546810D01*
X170774141Y-106590469D01*
X170787149Y-106618303D01*
X170795488Y-106674172D01*
X170795488Y-106814892D01*
X170794886Y-106828865D01*
X170778354Y-106883707D01*
X170772760Y-106893123D01*
X170734256Y-106935670D01*
X170723812Y-106943369D01*
X170673305Y-106969657D01*
X170662692Y-106973413D01*
X170605614Y-106983981D01*
X169959872Y-106983981D01*
X169930429Y-106982273D01*
X169873479Y-106966851D01*
X169825893Y-106935389D01*
X169810599Y-106919594D01*
X169781568Y-106868873D01*
X169772806Y-106813207D01*
X169772806Y-106732314D01*
X169983466Y-106732314D01*
X169983466Y-106771356D01*
X169999757Y-106798320D01*
X170043855Y-106807589D01*
X170488768Y-106807589D01*
X170519384Y-106806747D01*
X170545224Y-106802533D01*
X170562639Y-106792422D01*
X170568818Y-106771356D01*
X170568818Y-106727539D01*
X170550842Y-106702259D01*
X170544587Y-106698618D01*
X170488768Y-106689620D01*
X170045540Y-106689620D01*
X170000038Y-106701979D01*
X169983466Y-106732314D01*
X169772806Y-106732314D01*
X169772806Y-106678946D01*
X169774732Y-106648954D01*
X169792116Y-106592100D01*
X169827578Y-106546371D01*
X169861095Y-106522475D01*
X169914701Y-106502778D01*
X169972793Y-106496937D01*
X170574717Y-106496937D01*
X170592360Y-106497516D01*
G37*
G36*
X170795488Y-105815804D02*
G01*
X170011273Y-105815804D01*
X170012476Y-105831889D01*
X170017929Y-105889361D01*
X170025317Y-105948660D01*
X170026913Y-105960090D01*
X170036969Y-106018869D01*
X170049473Y-106076180D01*
X170051468Y-106084471D01*
X170067098Y-106138886D01*
X170088515Y-106193306D01*
X170188508Y-106193306D01*
X170188508Y-105995567D01*
X170420233Y-105995567D01*
X170420233Y-106193306D01*
X170920198Y-106193306D01*
X170920198Y-106409021D01*
X169640231Y-106409021D01*
X169640231Y-106193306D01*
X169853981Y-106193306D01*
X169837970Y-106139658D01*
X169825656Y-106095955D01*
X169811849Y-106041351D01*
X169799350Y-105986158D01*
X169787693Y-105928437D01*
X169778687Y-105874435D01*
X169772806Y-105816366D01*
X169772806Y-105600089D01*
X170795488Y-105600089D01*
X170795488Y-105815804D01*
G37*
G36*
X169038026Y-105923662D02*
G01*
X169039149Y-105981288D01*
X169039150Y-105984051D01*
X169037169Y-106040514D01*
X169033532Y-106083482D01*
X169025387Y-106139448D01*
X169012747Y-106197239D01*
X168995627Y-106251224D01*
X168972705Y-106303111D01*
X168969211Y-106309871D01*
X168938957Y-106357759D01*
X168901915Y-106400833D01*
X168896463Y-106406213D01*
X168849320Y-106441901D01*
X168794851Y-106467861D01*
X168781864Y-106472500D01*
X168781864Y-106677823D01*
X168838786Y-106662281D01*
X168895825Y-106641320D01*
X168947021Y-106616310D01*
X168997681Y-106585205D01*
X169044033Y-106548676D01*
X169070889Y-106523901D01*
X169110993Y-106478570D01*
X169141781Y-106427945D01*
X169152906Y-106400033D01*
X169175552Y-106452448D01*
X169208941Y-106500992D01*
X169237170Y-106531204D01*
X169279432Y-106568509D01*
X169325916Y-106602241D01*
X169361037Y-106622771D01*
X169413248Y-106646444D01*
X169470238Y-106664940D01*
X169526194Y-106677261D01*
X169526194Y-106472500D01*
X169473270Y-106450042D01*
X169426021Y-106419014D01*
X169411596Y-106406213D01*
X169373895Y-106363780D01*
X169343477Y-106316534D01*
X169339972Y-106309871D01*
X169317050Y-106258465D01*
X169299539Y-106201183D01*
X169298682Y-106197519D01*
X169287166Y-106139728D01*
X169279582Y-106083763D01*
X169275080Y-106025118D01*
X169274527Y-105984051D01*
X169276285Y-105926866D01*
X169276493Y-105923662D01*
X169527880Y-105923662D01*
X169527880Y-105725923D01*
X168778494Y-105725923D01*
X168778494Y-105923662D01*
X169038026Y-105923662D01*
G37*
G36*
X168435540Y-106984262D02*
G01*
X168670355Y-106984262D01*
X168670355Y-105605707D01*
X168435540Y-105605707D01*
X168435540Y-106984262D01*
G37*
G36*
X167970945Y-106505526D02*
G01*
X168027984Y-106514351D01*
X168046874Y-106519670D01*
X168099328Y-106545529D01*
X168116924Y-106558830D01*
X168153818Y-106601705D01*
X168166827Y-106629538D01*
X168175165Y-106685407D01*
X168175165Y-106821352D01*
X168174767Y-106832545D01*
X168158874Y-106888482D01*
X168153516Y-106897904D01*
X168115338Y-106940726D01*
X168102948Y-106949649D01*
X168051017Y-106974712D01*
X168029917Y-106980822D01*
X167973775Y-106987352D01*
X167362301Y-106987352D01*
X167343201Y-106986720D01*
X167287587Y-106977240D01*
X167272111Y-106972185D01*
X167222984Y-106943816D01*
X167211124Y-106933161D01*
X167177763Y-106885674D01*
X167168008Y-106860069D01*
X167160629Y-106801972D01*
X167160629Y-106737369D01*
X167371289Y-106737369D01*
X167371289Y-106767985D01*
X167386175Y-106799444D01*
X167426903Y-106812364D01*
X167875186Y-106812364D01*
X167904959Y-106812364D01*
X167928272Y-106808994D01*
X167943159Y-106798320D01*
X167948496Y-106776131D01*
X167948496Y-106733999D01*
X167933609Y-106708439D01*
X167930566Y-106706230D01*
X167875186Y-106696080D01*
X167435048Y-106696080D01*
X167388422Y-106707034D01*
X167371289Y-106737369D01*
X167160629Y-106737369D01*
X167160629Y-106685407D01*
X167162693Y-106655901D01*
X167181325Y-106599832D01*
X167219333Y-106554517D01*
X167264803Y-106526372D01*
X167320496Y-106509910D01*
X167379996Y-106505082D01*
X167956079Y-106505082D01*
X167970945Y-106505526D01*
G37*
G36*
X168282180Y-106359868D02*
G01*
X167005303Y-106359868D01*
X167005303Y-106175330D01*
X168282180Y-106175330D01*
X168282180Y-106359868D01*
G37*
G36*
X168151010Y-106094998D02*
G01*
X167146024Y-106094998D01*
X167146024Y-105887710D01*
X167940631Y-105887710D01*
X167940631Y-105600089D01*
X168151010Y-105600089D01*
X168151010Y-106094998D01*
G37*
G36*
X166898007Y-106476433D02*
G01*
X166847466Y-106507435D01*
X166796399Y-106535558D01*
X166744805Y-106560802D01*
X166692684Y-106583167D01*
X166639072Y-106601354D01*
X166583001Y-106614344D01*
X166524473Y-106622139D01*
X166463487Y-106624737D01*
X166405592Y-106622214D01*
X166380066Y-106619400D01*
X166324294Y-106607498D01*
X166307880Y-106601986D01*
X166258457Y-106573448D01*
X166255917Y-106571089D01*
X166231481Y-106522497D01*
X166245019Y-106466520D01*
X166248895Y-106461546D01*
X166291457Y-106423648D01*
X166303386Y-106416324D01*
X166354734Y-106392046D01*
X166372763Y-106385709D01*
X166426986Y-106370440D01*
X166433152Y-106369137D01*
X166493523Y-106353302D01*
X166547961Y-106338380D01*
X166602112Y-106322685D01*
X166639036Y-106311275D01*
X166694033Y-106292730D01*
X166741557Y-106272795D01*
X166794153Y-106237651D01*
X166835867Y-106197313D01*
X166870780Y-106143687D01*
X166890881Y-106082992D01*
X166896322Y-106025340D01*
X166890595Y-105964591D01*
X166873413Y-105910004D01*
X166855594Y-105877036D01*
X166818427Y-105828983D01*
X166773566Y-105787975D01*
X166750265Y-105771426D01*
X166699799Y-105742697D01*
X166645304Y-105720130D01*
X166606735Y-105708509D01*
X166547777Y-105696014D01*
X166489293Y-105689286D01*
X166450566Y-105688004D01*
X166390452Y-105690293D01*
X166331448Y-105697158D01*
X166273556Y-105708600D01*
X166241873Y-105716935D01*
X166185684Y-105735783D01*
X166130872Y-105760097D01*
X166077438Y-105789877D01*
X166048347Y-105808782D01*
X166048347Y-106059608D01*
X166091973Y-106023968D01*
X166137386Y-105991635D01*
X166187136Y-105962955D01*
X166222773Y-105946413D01*
X166276797Y-105926802D01*
X166314902Y-105916921D01*
X166373228Y-105909855D01*
X166407592Y-105911303D01*
X166465016Y-105920521D01*
X166520420Y-105939630D01*
X166528932Y-105944166D01*
X166566587Y-105987593D01*
X166572749Y-106025340D01*
X166547189Y-106073933D01*
X166500223Y-106107006D01*
X166484553Y-106115222D01*
X166433054Y-106137803D01*
X166409558Y-106146399D01*
X166355243Y-106163788D01*
X166349450Y-106165499D01*
X166293978Y-106182459D01*
X166236869Y-106200885D01*
X166196371Y-106214653D01*
X166142377Y-106236783D01*
X166091072Y-106266214D01*
X166074469Y-106278132D01*
X166031325Y-106319609D01*
X166000635Y-106367120D01*
X165995261Y-106378406D01*
X165977813Y-106433580D01*
X165970842Y-106494138D01*
X165970825Y-106533732D01*
X165977117Y-106590297D01*
X165994113Y-106646120D01*
X166021664Y-106695237D01*
X166060583Y-106741727D01*
X166106138Y-106781345D01*
X166140195Y-106803938D01*
X166190384Y-106830248D01*
X166243626Y-106851248D01*
X166294678Y-106865731D01*
X166351261Y-106876925D01*
X166410792Y-106883837D01*
X166453937Y-106885393D01*
X166516199Y-106882815D01*
X166572625Y-106876197D01*
X166630069Y-106865506D01*
X166681168Y-106852811D01*
X166738854Y-106834694D01*
X166794222Y-106812926D01*
X166847273Y-106787506D01*
X166898007Y-106758435D01*
X166898007Y-106476433D01*
G37*
G36*
X164687768Y-105689971D02*
G01*
X164434134Y-105689971D01*
X164828208Y-106894381D01*
X165038305Y-106894381D01*
X165200373Y-106487949D01*
X165362440Y-106894381D01*
X165572538Y-106894381D01*
X165966611Y-105689971D01*
X165655116Y-105689971D01*
X165411875Y-106460984D01*
X165243909Y-105959615D01*
X165156836Y-105959615D01*
X164931571Y-106521092D01*
X164687768Y-105689971D01*
G37*
G36*
X163472965Y-105709632D02*
G01*
X163472965Y-105916078D01*
X163473824Y-105974793D01*
X163476998Y-106039150D01*
X163482511Y-106099045D01*
X163491674Y-106162032D01*
X163497402Y-106191340D01*
X163511681Y-106252556D01*
X163527026Y-106307594D01*
X163545327Y-106361505D01*
X163553016Y-106380934D01*
X163576162Y-106432453D01*
X163604428Y-106482966D01*
X163613686Y-106496375D01*
X163645706Y-106534575D01*
X163385893Y-106531485D01*
X163385893Y-105600089D01*
X163141247Y-105600089D01*
X163141247Y-105977591D01*
X162989291Y-105977591D01*
X162989291Y-106211282D01*
X163141247Y-106211282D01*
X163141247Y-106984262D01*
X163385893Y-106984262D01*
X163385893Y-106739336D01*
X164371217Y-106739336D01*
X164371217Y-106531485D01*
X164076575Y-106531485D01*
X164076575Y-106272795D01*
X163885577Y-106272795D01*
X163885577Y-106531485D01*
X163864230Y-106531485D01*
X163838463Y-106478535D01*
X163815932Y-106423610D01*
X163796638Y-106366710D01*
X163793168Y-106355093D01*
X163777335Y-106297606D01*
X163764246Y-106241710D01*
X163753016Y-106182061D01*
X163752159Y-106176734D01*
X163743859Y-106120016D01*
X163737453Y-106062229D01*
X163734464Y-106021689D01*
X163731641Y-105964066D01*
X163730532Y-105918606D01*
X164285268Y-105918606D01*
X164285268Y-105709632D01*
X163472965Y-105709632D01*
G37*
G36*
X162904746Y-107005047D02*
G01*
X162866403Y-106962069D01*
X162852222Y-106942973D01*
X162830413Y-106889870D01*
X162828909Y-106876405D01*
X162901095Y-106876405D01*
X162901095Y-106696642D01*
X162698581Y-106696642D01*
X162698581Y-106838486D01*
X162707221Y-106897475D01*
X162730877Y-106950638D01*
X162737904Y-106961792D01*
X162774814Y-107007253D01*
X162817690Y-107044033D01*
X162846604Y-107063189D01*
X162904746Y-107005047D01*
G37*
G36*
X161636492Y-106503205D02*
G01*
X161692752Y-106514351D01*
X161715538Y-106522350D01*
X161766905Y-106550866D01*
X161783872Y-106565115D01*
X161817744Y-106610412D01*
X161828458Y-106636330D01*
X161836563Y-106693552D01*
X161836563Y-106808432D01*
X161836019Y-106822358D01*
X161821114Y-106878371D01*
X161814975Y-106890303D01*
X161780387Y-106935389D01*
X161770631Y-106944263D01*
X161721964Y-106973589D01*
X161709351Y-106978266D01*
X161652868Y-106987352D01*
X161022013Y-106987352D01*
X161008152Y-106986898D01*
X160951512Y-106974431D01*
X160941360Y-106970248D01*
X160893651Y-106939602D01*
X160887643Y-106933919D01*
X160855170Y-106886516D01*
X160851205Y-106876779D01*
X160841407Y-106821352D01*
X160841407Y-106732314D01*
X161047011Y-106732314D01*
X161047011Y-106774445D01*
X161064987Y-106802252D01*
X161107681Y-106812364D01*
X161537988Y-106812364D01*
X161592759Y-106806747D01*
X161616353Y-106773041D01*
X161614668Y-106725011D01*
X161605118Y-106698889D01*
X161554279Y-106686530D01*
X161101221Y-106686530D01*
X161058527Y-106700012D01*
X161047011Y-106732314D01*
X160841407Y-106732314D01*
X160841407Y-106675857D01*
X160842187Y-106658880D01*
X160857698Y-106603952D01*
X160864107Y-106592079D01*
X160901235Y-106548618D01*
X160913585Y-106539080D01*
X160964713Y-106513789D01*
X160982988Y-106508505D01*
X161039708Y-106501712D01*
X161605961Y-106501712D01*
X161636492Y-106503205D01*
G37*
G36*
X161064987Y-105923662D02*
G01*
X161252615Y-105923662D01*
X161252615Y-106139377D01*
X161064987Y-106139377D01*
X161064987Y-106444974D01*
X160841407Y-106444974D01*
X160841407Y-105600089D01*
X161064987Y-105600089D01*
X161064987Y-105923662D01*
G37*
G36*
X162034021Y-105887710D02*
G01*
X161737131Y-105887710D01*
X161738957Y-105892265D01*
X161763534Y-105943324D01*
X161781684Y-105975327D01*
X161815216Y-106023936D01*
X161853537Y-106068244D01*
X161894985Y-106107076D01*
X161917032Y-106124802D01*
X161964108Y-106156581D01*
X162014640Y-106184599D01*
X162014640Y-106396663D01*
X162008985Y-106394392D01*
X161954126Y-106370956D01*
X161902339Y-106346203D01*
X161848921Y-106317455D01*
X161813602Y-106294590D01*
X161765749Y-106259818D01*
X161721121Y-106223641D01*
X161693912Y-106198744D01*
X161654459Y-106153998D01*
X161621971Y-106102582D01*
X161603485Y-106132647D01*
X161569240Y-106177523D01*
X161527174Y-106222131D01*
X161483216Y-106261560D01*
X161465297Y-106276118D01*
X161414809Y-106313107D01*
X161367406Y-106343283D01*
X161316993Y-106371415D01*
X161263569Y-106397505D01*
X161263569Y-106188531D01*
X161293246Y-106167136D01*
X161338845Y-106130951D01*
X161366590Y-106106058D01*
X161405975Y-106065506D01*
X161435903Y-106029176D01*
X161468330Y-105982928D01*
X161493942Y-105939064D01*
X161518046Y-105887710D01*
X161244188Y-105887710D01*
X161244188Y-105682106D01*
X162034021Y-105682106D01*
X162034021Y-105887710D01*
G37*
G36*
X160183307Y-106642713D02*
G01*
X160688328Y-106642713D01*
X160688328Y-106840452D01*
X159444033Y-106840452D01*
X159444033Y-106642713D01*
X159945402Y-106642713D01*
X159945402Y-106462950D01*
X160183307Y-106462950D01*
X160183307Y-106642713D01*
G37*
G36*
X159783897Y-105905686D02*
G01*
X160332173Y-105905686D01*
X160332173Y-105689971D01*
X160554068Y-105689971D01*
X160554068Y-106409021D01*
X159560317Y-106409021D01*
X159560317Y-106216338D01*
X159783897Y-106216338D01*
X160332173Y-106216338D01*
X160332173Y-106103425D01*
X159783897Y-106103425D01*
X159783897Y-106216338D01*
X159560317Y-106216338D01*
X159560317Y-105689971D01*
X159783897Y-105689971D01*
X159783897Y-105905686D01*
G37*
G36*
X158835087Y-106642713D02*
G01*
X159340108Y-106642713D01*
X159340108Y-106840452D01*
X158095812Y-106840452D01*
X158095812Y-106642713D01*
X158597182Y-106642713D01*
X158597182Y-106462950D01*
X158835087Y-106462950D01*
X158835087Y-106642713D01*
G37*
G36*
X158435676Y-105905686D02*
G01*
X158983953Y-105905686D01*
X158983953Y-105689971D01*
X159205847Y-105689971D01*
X159205847Y-106409021D01*
X158212096Y-106409021D01*
X158212096Y-106216338D01*
X158435676Y-106216338D01*
X158983953Y-106216338D01*
X158983953Y-106103425D01*
X158435676Y-106103425D01*
X158435676Y-106216338D01*
X158212096Y-106216338D01*
X158212096Y-105689971D01*
X158435676Y-105689971D01*
X158435676Y-105905686D01*
G37*
G36*
X157837965Y-106944658D02*
G01*
X156850955Y-106944658D01*
X156850955Y-106732594D01*
X157611296Y-106732594D01*
X157611296Y-106480927D01*
X157837965Y-106480927D01*
X157837965Y-106944658D01*
G37*
G36*
X157132677Y-106498903D02*
G01*
X156904323Y-106498903D01*
X156904323Y-106103425D01*
X156729616Y-106103425D01*
X156729616Y-105890518D01*
X156904323Y-105890518D01*
X156904323Y-105600089D01*
X157132677Y-105600089D01*
X157132677Y-106498903D01*
G37*
G36*
X157784449Y-105672916D02*
G01*
X157839089Y-105688847D01*
X157866700Y-105702926D01*
X157912960Y-105738282D01*
X157935198Y-105763153D01*
X157964361Y-105812153D01*
X157976909Y-105848043D01*
X157983742Y-105904001D01*
X157983742Y-106127300D01*
X157981016Y-106163006D01*
X157964361Y-106218304D01*
X157948048Y-106248481D01*
X157912960Y-106292457D01*
X157889784Y-106312717D01*
X157839089Y-106342734D01*
X157806779Y-106354031D01*
X157749769Y-106361272D01*
X157539391Y-106361272D01*
X157504829Y-106358665D01*
X157450914Y-106342734D01*
X157423755Y-106328396D01*
X157378728Y-106292176D01*
X157358886Y-106268967D01*
X157329855Y-106218024D01*
X157319072Y-106185516D01*
X157312159Y-106127300D01*
X157312159Y-105938830D01*
X157522538Y-105938830D01*
X157522538Y-106076460D01*
X157522928Y-106085471D01*
X157547536Y-106137973D01*
X157555555Y-106145094D01*
X157609049Y-106162690D01*
X157680111Y-106162690D01*
X157694271Y-106161821D01*
X157746960Y-106137973D01*
X157754971Y-106129880D01*
X157774767Y-106076460D01*
X157774767Y-105938830D01*
X157774089Y-105927337D01*
X157746960Y-105877598D01*
X157736052Y-105869580D01*
X157680111Y-105854004D01*
X157609049Y-105854004D01*
X157600039Y-105854368D01*
X157547536Y-105877317D01*
X157540334Y-105884966D01*
X157522538Y-105938830D01*
X157312159Y-105938830D01*
X157312159Y-105904001D01*
X157314648Y-105868346D01*
X157329855Y-105812434D01*
X157343613Y-105784283D01*
X157378728Y-105738282D01*
X157401357Y-105718374D01*
X157451194Y-105688847D01*
X157482820Y-105677550D01*
X157539391Y-105670309D01*
X157749769Y-105670309D01*
X157784449Y-105672916D01*
G37*
G36*
X156653778Y-106476433D02*
G01*
X156603238Y-106507435D01*
X156552170Y-106535558D01*
X156500576Y-106560802D01*
X156448455Y-106583167D01*
X156394843Y-106601354D01*
X156338772Y-106614344D01*
X156280244Y-106622139D01*
X156219258Y-106624737D01*
X156161363Y-106622214D01*
X156135837Y-106619400D01*
X156080065Y-106607498D01*
X156063651Y-106601986D01*
X156014228Y-106573448D01*
X156011688Y-106571089D01*
X155987252Y-106522497D01*
X156000790Y-106466520D01*
X156004666Y-106461546D01*
X156047228Y-106423648D01*
X156059157Y-106416324D01*
X156110505Y-106392046D01*
X156128534Y-106385709D01*
X156182757Y-106370440D01*
X156188923Y-106369137D01*
X156249295Y-106353302D01*
X156303732Y-106338380D01*
X156357883Y-106322685D01*
X156394808Y-106311275D01*
X156449804Y-106292730D01*
X156497328Y-106272795D01*
X156549924Y-106237651D01*
X156591638Y-106197313D01*
X156626551Y-106143687D01*
X156646652Y-106082992D01*
X156652093Y-106025340D01*
X156646366Y-105964591D01*
X156629184Y-105910004D01*
X156611365Y-105877036D01*
X156574199Y-105828983D01*
X156529337Y-105787975D01*
X156506036Y-105771426D01*
X156455570Y-105742697D01*
X156401075Y-105720130D01*
X156362506Y-105708509D01*
X156303548Y-105696014D01*
X156245064Y-105689286D01*
X156206338Y-105688004D01*
X156146223Y-105690293D01*
X156087219Y-105697158D01*
X156029327Y-105708600D01*
X155997644Y-105716935D01*
X155941455Y-105735783D01*
X155886643Y-105760097D01*
X155833209Y-105789877D01*
X155804118Y-105808782D01*
X155804118Y-106059608D01*
X155847744Y-106023968D01*
X155893157Y-105991635D01*
X155942907Y-105962955D01*
X155978544Y-105946413D01*
X156032568Y-105926802D01*
X156070673Y-105916921D01*
X156128999Y-105909855D01*
X156163363Y-105911303D01*
X156220787Y-105920521D01*
X156276191Y-105939630D01*
X156284703Y-105944166D01*
X156322358Y-105987593D01*
X156328520Y-106025340D01*
X156302960Y-106073933D01*
X156255994Y-106107006D01*
X156240324Y-106115222D01*
X156188825Y-106137803D01*
X156165329Y-106146399D01*
X156111014Y-106163788D01*
X156105221Y-106165499D01*
X156049749Y-106182459D01*
X155992640Y-106200885D01*
X155952142Y-106214653D01*
X155898148Y-106236783D01*
X155846843Y-106266214D01*
X155830240Y-106278132D01*
X155787096Y-106319609D01*
X155756406Y-106367120D01*
X155751032Y-106378406D01*
X155733585Y-106433580D01*
X155726613Y-106494138D01*
X155726596Y-106533732D01*
X155732888Y-106590297D01*
X155749884Y-106646120D01*
X155777435Y-106695237D01*
X155816354Y-106741727D01*
X155861909Y-106781345D01*
X155895966Y-106803938D01*
X155946155Y-106830248D01*
X155999398Y-106851248D01*
X156050450Y-106865731D01*
X156107032Y-106876925D01*
X156166563Y-106883837D01*
X156209708Y-106885393D01*
X156271970Y-106882815D01*
X156328396Y-106876197D01*
X156385841Y-106865506D01*
X156436939Y-106852811D01*
X156494625Y-106834694D01*
X156549993Y-106812926D01*
X156603044Y-106787506D01*
X156653778Y-106758435D01*
X156653778Y-106476433D01*
G37*
G36*
X154443539Y-105689971D02*
G01*
X154189905Y-105689971D01*
X154583979Y-106894381D01*
X154794077Y-106894381D01*
X154956144Y-106487949D01*
X155118211Y-106894381D01*
X155328309Y-106894381D01*
X155722383Y-105689971D01*
X155410887Y-105689971D01*
X155167646Y-106460984D01*
X154999680Y-105959615D01*
X154912608Y-105959615D01*
X154687342Y-106521092D01*
X154443539Y-105689971D01*
G37*
G36*
X153228736Y-105709632D02*
G01*
X153228736Y-105916078D01*
X153229595Y-105974793D01*
X153232769Y-106039150D01*
X153238282Y-106099045D01*
X153247446Y-106162032D01*
X153253173Y-106191340D01*
X153267452Y-106252556D01*
X153282797Y-106307594D01*
X153301098Y-106361505D01*
X153308787Y-106380934D01*
X153331933Y-106432453D01*
X153360199Y-106482966D01*
X153369457Y-106496375D01*
X153401477Y-106534575D01*
X153141664Y-106531485D01*
X153141664Y-105600089D01*
X152897018Y-105600089D01*
X152897018Y-105977591D01*
X152745062Y-105977591D01*
X152745062Y-106211282D01*
X152897018Y-106211282D01*
X152897018Y-106984262D01*
X153141664Y-106984262D01*
X153141664Y-106739336D01*
X154126988Y-106739336D01*
X154126988Y-106531485D01*
X153832346Y-106531485D01*
X153832346Y-106272795D01*
X153641348Y-106272795D01*
X153641348Y-106531485D01*
X153620001Y-106531485D01*
X153594234Y-106478535D01*
X153571703Y-106423610D01*
X153552409Y-106366710D01*
X153548939Y-106355093D01*
X153533106Y-106297606D01*
X153520017Y-106241710D01*
X153508787Y-106182061D01*
X153507930Y-106176734D01*
X153499630Y-106120016D01*
X153493225Y-106062229D01*
X153490235Y-106021689D01*
X153487412Y-105964066D01*
X153486303Y-105918606D01*
X154041039Y-105918606D01*
X154041039Y-105709632D01*
X153228736Y-105709632D01*
G37*
D13*
G36*
X167117947Y-108744675D02*
G01*
X166394206Y-108744675D01*
X166394206Y-108932254D01*
X166655253Y-108932254D01*
X166655253Y-109582526D01*
X166842246Y-109582526D01*
X166842246Y-108932254D01*
X167117947Y-108932254D01*
X167117947Y-108744675D01*
G37*
G36*
X166245251Y-109028596D02*
G01*
X166284346Y-109032051D01*
X166324060Y-109042456D01*
X166358226Y-109057909D01*
X166391862Y-109081339D01*
X166416483Y-109106590D01*
X166438366Y-109139567D01*
X166450988Y-109171953D01*
X166455951Y-109211667D01*
X166455951Y-109412923D01*
X166455511Y-109415900D01*
X166445888Y-109456741D01*
X166429377Y-109492449D01*
X166411959Y-109515977D01*
X166382092Y-109543056D01*
X166360989Y-109555879D01*
X166323865Y-109570411D01*
X166304760Y-109574739D01*
X166264074Y-109578618D01*
X166156021Y-109578618D01*
X166124290Y-109577384D01*
X166084702Y-109572170D01*
X166059835Y-109566024D01*
X166023153Y-109549309D01*
X166004386Y-109535405D01*
X165979580Y-109505150D01*
X165967659Y-109475918D01*
X165962971Y-109435003D01*
X165962971Y-109394947D01*
X166102483Y-109394947D01*
X166109791Y-109434205D01*
X166137855Y-109462122D01*
X166177319Y-109469392D01*
X166221283Y-109469392D01*
X166226179Y-109469319D01*
X166264660Y-109460990D01*
X166290647Y-109440669D01*
X166303739Y-109415268D01*
X166307256Y-109392016D01*
X166307256Y-109344926D01*
X165972936Y-109344926D01*
X165972936Y-109217529D01*
X166113816Y-109217529D01*
X166113816Y-109244884D01*
X166307256Y-109244884D01*
X166307256Y-109217529D01*
X166301199Y-109191346D01*
X166284004Y-109168681D01*
X166258994Y-109153049D01*
X166230271Y-109147187D01*
X166194318Y-109147187D01*
X166165009Y-109153049D01*
X166138826Y-109168681D01*
X166120654Y-109191542D01*
X166113816Y-109217529D01*
X165972936Y-109217529D01*
X165972936Y-109211667D01*
X165976672Y-109173958D01*
X165989936Y-109135268D01*
X166006920Y-109107176D01*
X166035463Y-109077431D01*
X166064096Y-109057951D01*
X166101115Y-109041479D01*
X166138924Y-109031807D01*
X166178491Y-109028583D01*
X166242580Y-109028583D01*
X166245251Y-109028596D01*
G37*
G36*
X165712671Y-109577641D02*
G01*
X165872504Y-109577641D01*
X165872504Y-108744675D01*
X165712671Y-108744675D01*
X165712671Y-109577641D01*
G37*
G36*
X165475853Y-109446140D02*
G01*
X165475853Y-109582526D01*
X165612239Y-109582526D01*
X165612239Y-109446140D01*
X165475853Y-109446140D01*
G37*
G36*
X164742374Y-108742146D02*
G01*
X164782204Y-108745223D01*
X164822650Y-108753077D01*
X164833742Y-108756023D01*
X164871072Y-108769653D01*
X164906084Y-108788443D01*
X164915551Y-108794751D01*
X164945466Y-108820770D01*
X164970368Y-108852923D01*
X164980342Y-108871308D01*
X164992365Y-108910015D01*
X164995965Y-108951011D01*
X164995965Y-109368569D01*
X164995526Y-109386143D01*
X164990277Y-109427728D01*
X164977989Y-109465875D01*
X164956935Y-109501584D01*
X164929726Y-109529769D01*
X164897047Y-109550969D01*
X164859971Y-109565331D01*
X164857513Y-109566004D01*
X164817359Y-109573869D01*
X164778296Y-109576273D01*
X164661059Y-109576273D01*
X164644816Y-109575877D01*
X164604861Y-109571142D01*
X164565511Y-109560055D01*
X164560191Y-109558001D01*
X164523643Y-109539337D01*
X164493020Y-109514919D01*
X164491190Y-109513089D01*
X164465587Y-109480898D01*
X164447884Y-109445750D01*
X164445056Y-109438176D01*
X164435086Y-109398399D01*
X164432057Y-109358408D01*
X164432057Y-108952184D01*
X164432094Y-108951011D01*
X164644841Y-108951011D01*
X164644841Y-109320111D01*
X164647577Y-109355478D01*
X164657542Y-109385177D01*
X164675714Y-109405498D01*
X164702874Y-109412923D01*
X164750159Y-109412923D01*
X164764933Y-109412559D01*
X164803502Y-109405303D01*
X164827340Y-109385177D01*
X164833788Y-109356064D01*
X164833788Y-109320111D01*
X164833788Y-108951011D01*
X164827535Y-108916036D01*
X164809559Y-108885359D01*
X164783376Y-108863866D01*
X164751136Y-108856050D01*
X164701701Y-108856050D01*
X164675323Y-108863475D01*
X164658324Y-108884382D01*
X164648163Y-108915254D01*
X164644841Y-108951011D01*
X164432094Y-108951011D01*
X164432615Y-108934539D01*
X164439291Y-108892682D01*
X164454918Y-108854096D01*
X164457806Y-108849125D01*
X164482916Y-108815685D01*
X164514123Y-108789030D01*
X164521056Y-108784464D01*
X164558196Y-108765344D01*
X164596579Y-108753077D01*
X164608013Y-108750512D01*
X164648078Y-108744229D01*
X164688219Y-108742135D01*
X164739999Y-108742135D01*
X164742374Y-108742146D01*
G37*
G36*
X163825944Y-108744480D02*
G01*
X164020948Y-109003963D01*
X163980470Y-109013340D01*
X163942349Y-109027204D01*
X163927549Y-109033859D01*
X163890973Y-109054405D01*
X163858718Y-109079531D01*
X163845288Y-109092672D01*
X163819641Y-109124459D01*
X163799219Y-109160759D01*
X163791555Y-109179036D01*
X163780005Y-109218393D01*
X163774101Y-109257705D01*
X163772601Y-109292170D01*
X163774796Y-109332042D01*
X163782279Y-109373787D01*
X163795072Y-109413314D01*
X163812968Y-109449887D01*
X163835758Y-109482765D01*
X163860724Y-109509448D01*
X163892836Y-109534928D01*
X163929797Y-109556020D01*
X163967605Y-109571388D01*
X164008993Y-109582814D01*
X164049146Y-109589247D01*
X164092050Y-109592033D01*
X164112001Y-109592100D01*
X164151495Y-109587944D01*
X164171401Y-109583307D01*
X164210564Y-109571100D01*
X164237835Y-109560446D01*
X164274593Y-109542916D01*
X164301729Y-109527229D01*
X164333699Y-109504581D01*
X164355658Y-109484829D01*
X164355658Y-109271849D01*
X164337163Y-109308041D01*
X164311566Y-109340366D01*
X164306419Y-109344926D01*
X164274635Y-109367948D01*
X164243111Y-109386154D01*
X164207598Y-109402568D01*
X164172183Y-109415464D01*
X164133905Y-109424763D01*
X164112001Y-109426601D01*
X164071961Y-109423300D01*
X164034440Y-109412043D01*
X164003753Y-109392798D01*
X163978071Y-109359109D01*
X163966567Y-109320881D01*
X163964088Y-109287480D01*
X163968828Y-109245806D01*
X163984536Y-109207851D01*
X163992811Y-109196036D01*
X164020786Y-109166666D01*
X164054445Y-109142159D01*
X164065107Y-109136050D01*
X164101703Y-109118326D01*
X164140685Y-109103891D01*
X164159482Y-109098339D01*
X164199308Y-109087424D01*
X164238952Y-109076824D01*
X164252294Y-109073328D01*
X164264995Y-109073328D01*
X164105162Y-108857222D01*
X164325372Y-108857222D01*
X164325372Y-108744480D01*
X163825944Y-108744480D01*
G37*
G36*
X163402525Y-108741549D02*
G01*
X163402525Y-109582526D01*
X163617654Y-109582526D01*
X163617654Y-108907243D01*
X163722190Y-108907243D01*
X163722190Y-108741549D01*
X163402525Y-108741549D01*
G37*
G36*
X162919510Y-109102833D02*
G01*
X162919510Y-109232379D01*
X163298966Y-109232379D01*
X163298966Y-109102833D01*
X162919510Y-109102833D01*
G37*
G36*
X162329224Y-108744480D02*
G01*
X162524227Y-109003963D01*
X162483750Y-109013340D01*
X162445629Y-109027204D01*
X162430829Y-109033859D01*
X162394253Y-109054405D01*
X162361997Y-109079531D01*
X162348568Y-109092672D01*
X162322921Y-109124459D01*
X162302498Y-109160759D01*
X162294835Y-109179036D01*
X162283285Y-109218393D01*
X162277380Y-109257705D01*
X162275881Y-109292170D01*
X162278076Y-109332042D01*
X162285558Y-109373787D01*
X162298352Y-109413314D01*
X162316247Y-109449887D01*
X162339038Y-109482765D01*
X162364004Y-109509448D01*
X162396116Y-109534928D01*
X162433077Y-109556020D01*
X162470885Y-109571388D01*
X162512272Y-109582814D01*
X162552425Y-109589247D01*
X162595330Y-109592033D01*
X162615281Y-109592100D01*
X162654775Y-109587944D01*
X162674681Y-109583307D01*
X162713843Y-109571100D01*
X162741115Y-109560446D01*
X162777873Y-109542916D01*
X162805009Y-109527229D01*
X162836979Y-109504581D01*
X162858938Y-109484829D01*
X162858938Y-109271849D01*
X162840442Y-109308041D01*
X162814846Y-109340366D01*
X162809698Y-109344926D01*
X162777915Y-109367948D01*
X162746391Y-109386154D01*
X162710878Y-109402568D01*
X162675463Y-109415464D01*
X162637185Y-109424763D01*
X162615281Y-109426601D01*
X162575241Y-109423300D01*
X162537720Y-109412043D01*
X162507033Y-109392798D01*
X162481351Y-109359109D01*
X162469847Y-109320881D01*
X162467368Y-109287480D01*
X162472108Y-109245806D01*
X162487816Y-109207851D01*
X162496091Y-109196036D01*
X162524066Y-109166666D01*
X162557725Y-109142159D01*
X162568386Y-109136050D01*
X162604983Y-109118326D01*
X162643965Y-109103891D01*
X162662762Y-109098339D01*
X162702588Y-109087424D01*
X162742231Y-109076824D01*
X162755574Y-109073328D01*
X162768275Y-109073328D01*
X162608442Y-108857222D01*
X162828652Y-108857222D01*
X162828652Y-108744480D01*
X162329224Y-108744480D01*
G37*
G36*
X162245204Y-109579790D02*
G01*
X161886460Y-109155589D01*
X161864338Y-109123080D01*
X161860668Y-109116510D01*
X161843389Y-109080987D01*
X161840738Y-109074501D01*
X161828505Y-109036755D01*
X161828233Y-109035617D01*
X161823739Y-109004549D01*
X161824911Y-108967034D01*
X161834876Y-108934598D01*
X161860473Y-108905484D01*
X161894081Y-108884577D01*
X161928861Y-108876566D01*
X161959343Y-108876566D01*
X161992950Y-108884577D01*
X162023627Y-108905289D01*
X162045902Y-108934403D01*
X162054304Y-108967034D01*
X162054304Y-108994780D01*
X162198505Y-108994780D01*
X162198505Y-108964884D01*
X162194728Y-108923622D01*
X162183396Y-108884977D01*
X162178770Y-108874417D01*
X162158772Y-108839998D01*
X162133314Y-108809918D01*
X162125037Y-108802121D01*
X162092649Y-108777859D01*
X162055324Y-108758759D01*
X162043753Y-108754249D01*
X162004011Y-108742990D01*
X161964980Y-108737691D01*
X161941171Y-108736859D01*
X161900276Y-108738498D01*
X161858427Y-108744161D01*
X161820355Y-108753870D01*
X161809671Y-108757571D01*
X161773337Y-108773542D01*
X161739073Y-108794915D01*
X161717054Y-108813649D01*
X161690429Y-108843967D01*
X161669932Y-108877768D01*
X161662539Y-108894542D01*
X161650900Y-108932017D01*
X161645001Y-108973456D01*
X161644562Y-108988527D01*
X161646165Y-109027667D01*
X161648666Y-109049099D01*
X161656886Y-109087413D01*
X161661366Y-109101856D01*
X161678219Y-109139005D01*
X161685595Y-109151095D01*
X161708548Y-109183060D01*
X161722720Y-109200139D01*
X161750193Y-109230086D01*
X161778180Y-109259649D01*
X161798924Y-109281228D01*
X161829024Y-109312068D01*
X161859075Y-109342543D01*
X161887914Y-109371573D01*
X161919128Y-109402810D01*
X161923781Y-109407452D01*
X161658240Y-109407452D01*
X161658240Y-109579790D01*
X162245204Y-109579790D01*
G37*
G36*
X161364644Y-108747640D02*
G01*
X161404701Y-108752717D01*
X161444088Y-108764605D01*
X161449388Y-108766829D01*
X161486024Y-108786722D01*
X161517165Y-108812281D01*
X161520872Y-108816086D01*
X161545221Y-108847341D01*
X161563474Y-108883405D01*
X161566372Y-108891145D01*
X161576587Y-108931236D01*
X161579691Y-108970746D01*
X161579691Y-109051835D01*
X161579345Y-109065742D01*
X161574141Y-109105095D01*
X161561036Y-109144651D01*
X161540222Y-109179818D01*
X161537733Y-109183083D01*
X161510477Y-109212186D01*
X161475515Y-109236750D01*
X161439203Y-109252309D01*
X161419468Y-109257194D01*
X161391918Y-109261297D01*
X161363976Y-109264033D01*
X161350494Y-109263447D01*
X161528889Y-109582526D01*
X161345023Y-109582526D01*
X161089838Y-109192323D01*
X161077950Y-109172661D01*
X161059726Y-109135417D01*
X161045582Y-109095793D01*
X161035518Y-109053789D01*
X161031374Y-109024999D01*
X161030008Y-108983642D01*
X161199259Y-108983642D01*
X161199259Y-109032100D01*
X161207465Y-109064145D01*
X161230131Y-109088960D01*
X161261980Y-109105373D01*
X161296174Y-109110258D01*
X161368275Y-109106741D01*
X161390402Y-109103365D01*
X161425721Y-109085638D01*
X161442410Y-109062008D01*
X161448973Y-109021939D01*
X161448973Y-108971332D01*
X161441548Y-108938311D01*
X161422008Y-108909783D01*
X161394848Y-108890244D01*
X161362999Y-108883014D01*
X161294220Y-108883014D01*
X161260417Y-108888876D01*
X161229740Y-108906657D01*
X161207661Y-108937920D01*
X161205240Y-108944034D01*
X161199259Y-108983642D01*
X161030008Y-108983642D01*
X161029949Y-108981841D01*
X161034273Y-108938714D01*
X161042943Y-108900404D01*
X161049309Y-108881057D01*
X161067672Y-108842505D01*
X161091631Y-108810846D01*
X161124814Y-108783754D01*
X161135918Y-108777224D01*
X161174569Y-108760096D01*
X161215739Y-108750105D01*
X161254946Y-108747215D01*
X161348345Y-108747215D01*
X161364644Y-108747640D01*
G37*
G36*
X160586502Y-109102833D02*
G01*
X160586502Y-109232379D01*
X160965958Y-109232379D01*
X160965958Y-109102833D01*
X160586502Y-109102833D01*
G37*
G36*
X159835993Y-109157348D02*
G01*
X159835993Y-109319916D01*
X160017123Y-109319916D01*
X160017123Y-109582526D01*
X160155658Y-109582526D01*
X160155658Y-109319916D01*
X160489978Y-109319916D01*
X160489978Y-108744675D01*
X160317640Y-108744675D01*
X160317640Y-109157348D01*
X160155658Y-109157348D01*
X160155658Y-108794696D01*
X160017123Y-108794696D01*
X160017123Y-109157348D01*
X159835993Y-109157348D01*
G37*
G36*
X159278728Y-108744480D02*
G01*
X159473732Y-109003963D01*
X159433255Y-109013340D01*
X159395133Y-109027204D01*
X159380333Y-109033859D01*
X159343757Y-109054405D01*
X159311502Y-109079531D01*
X159298072Y-109092672D01*
X159272426Y-109124459D01*
X159252003Y-109160759D01*
X159244339Y-109179036D01*
X159232789Y-109218393D01*
X159226885Y-109257705D01*
X159225386Y-109292170D01*
X159227580Y-109332042D01*
X159235063Y-109373787D01*
X159247856Y-109413314D01*
X159265752Y-109449887D01*
X159288542Y-109482765D01*
X159313509Y-109509448D01*
X159345621Y-109534928D01*
X159382581Y-109556020D01*
X159420389Y-109571388D01*
X159461777Y-109582814D01*
X159501930Y-109589247D01*
X159544834Y-109592033D01*
X159564786Y-109592100D01*
X159604280Y-109587944D01*
X159624186Y-109583307D01*
X159663348Y-109571100D01*
X159690620Y-109560446D01*
X159727377Y-109542916D01*
X159754514Y-109527229D01*
X159786483Y-109504581D01*
X159808442Y-109484829D01*
X159808442Y-109271849D01*
X159789947Y-109308041D01*
X159764350Y-109340366D01*
X159759203Y-109344926D01*
X159727420Y-109367948D01*
X159695895Y-109386154D01*
X159660382Y-109402568D01*
X159624967Y-109415464D01*
X159586689Y-109424763D01*
X159564786Y-109426601D01*
X159524745Y-109423300D01*
X159487224Y-109412043D01*
X159456537Y-109392798D01*
X159430856Y-109359109D01*
X159419351Y-109320881D01*
X159416872Y-109287480D01*
X159421613Y-109245806D01*
X159437320Y-109207851D01*
X159445595Y-109196036D01*
X159473570Y-109166666D01*
X159507230Y-109142159D01*
X159517891Y-109136050D01*
X159554487Y-109118326D01*
X159593470Y-109103891D01*
X159612266Y-109098339D01*
X159652092Y-109087424D01*
X159691736Y-109076824D01*
X159705079Y-109073328D01*
X159717779Y-109073328D01*
X159557947Y-108857222D01*
X159778156Y-108857222D01*
X159778156Y-108744480D01*
X159278728Y-108744480D01*
G37*
G36*
X158494025Y-109157348D02*
G01*
X158494025Y-109319916D01*
X158675156Y-109319916D01*
X158675156Y-109582526D01*
X158813690Y-109582526D01*
X158813690Y-109319916D01*
X159148010Y-109319916D01*
X159148010Y-108744675D01*
X158975672Y-108744675D01*
X158975672Y-109157348D01*
X158813690Y-109157348D01*
X158813690Y-108794696D01*
X158675156Y-108794696D01*
X158675156Y-109157348D01*
X158494025Y-109157348D01*
G37*
G36*
X158263460Y-108744187D02*
G01*
X158302539Y-108753859D01*
X158336413Y-108768341D01*
X158370340Y-108790983D01*
X158395522Y-108816200D01*
X158417626Y-108850383D01*
X158418696Y-108852579D01*
X158431195Y-108890468D01*
X158435016Y-108930690D01*
X158435016Y-109033468D01*
X158434706Y-109036241D01*
X158426028Y-109075282D01*
X158408442Y-109111625D01*
X158395215Y-109130944D01*
X158370145Y-109162428D01*
X158401880Y-109188882D01*
X158424660Y-109222023D01*
X158427286Y-109227071D01*
X158441583Y-109265948D01*
X158446349Y-109306629D01*
X158446349Y-109373063D01*
X158445838Y-109390717D01*
X158439734Y-109432689D01*
X158425442Y-109471542D01*
X158422760Y-109476565D01*
X158399822Y-109510588D01*
X158371904Y-109538171D01*
X158337612Y-109560837D01*
X158299608Y-109576468D01*
X158262883Y-109585164D01*
X158222818Y-109588583D01*
X158114765Y-109588583D01*
X158076370Y-109585554D01*
X158037389Y-109576468D01*
X157999971Y-109560837D01*
X157966265Y-109538171D01*
X157962303Y-109534865D01*
X157935361Y-109506424D01*
X157913313Y-109471542D01*
X157905167Y-109452938D01*
X157895346Y-109414023D01*
X157892406Y-109373063D01*
X157892406Y-109305457D01*
X157892475Y-109299977D01*
X157894718Y-109281814D01*
X158050089Y-109281814D01*
X158050089Y-109339260D01*
X158054443Y-109364956D01*
X158076467Y-109397292D01*
X158101621Y-109414122D01*
X158140557Y-109421912D01*
X158190187Y-109421912D01*
X158222751Y-109417199D01*
X158256816Y-109397292D01*
X158272772Y-109377591D01*
X158282999Y-109339260D01*
X158282999Y-109281814D01*
X158276356Y-109257585D01*
X158256816Y-109232575D01*
X158227116Y-109212840D01*
X158190187Y-109204829D01*
X158140557Y-109204829D01*
X158104800Y-109212840D01*
X158075686Y-109232379D01*
X158056928Y-109257585D01*
X158050089Y-109281814D01*
X157894718Y-109281814D01*
X157897424Y-109259903D01*
X157910187Y-109221632D01*
X157912478Y-109216705D01*
X157935599Y-109184808D01*
X157969196Y-109161842D01*
X157954188Y-109143959D01*
X157931485Y-109111625D01*
X157930121Y-109109514D01*
X157912658Y-109072829D01*
X157903739Y-109033468D01*
X157903739Y-108930690D01*
X157903752Y-108928541D01*
X158053411Y-108928541D01*
X158053411Y-108977976D01*
X158060250Y-109003963D01*
X158079594Y-109033077D01*
X158108708Y-109056915D01*
X158144074Y-109066294D01*
X158193509Y-109066294D01*
X158229070Y-109056915D01*
X158258770Y-109032882D01*
X158278896Y-109003768D01*
X158286321Y-108977976D01*
X158286321Y-108930690D01*
X158279091Y-108899036D01*
X158258966Y-108871681D01*
X158229461Y-108852728D01*
X158193509Y-108845889D01*
X158144074Y-108845889D01*
X158114515Y-108849952D01*
X158079203Y-108870509D01*
X158063486Y-108890210D01*
X158053411Y-108928541D01*
X157903752Y-108928541D01*
X157903756Y-108927879D01*
X157907989Y-108888094D01*
X157920738Y-108850579D01*
X157939197Y-108819967D01*
X157966656Y-108790983D01*
X157998065Y-108769490D01*
X158034067Y-108753859D01*
X158073292Y-108744187D01*
X158114765Y-108740963D01*
X158222818Y-108740963D01*
X158263460Y-108744187D01*
G37*
G36*
X168910494Y-110609596D02*
G01*
X168915009Y-110569768D01*
X168917333Y-110562702D01*
X168935505Y-110534565D01*
X168961101Y-110520106D01*
X168988652Y-110515807D01*
X169041604Y-110515807D01*
X169064074Y-110518542D01*
X169087717Y-110526358D01*
X169105302Y-110539059D01*
X169111946Y-110555667D01*
X169111946Y-110926526D01*
X169276272Y-110926526D01*
X169276272Y-110088675D01*
X169111946Y-110088675D01*
X169111946Y-110395835D01*
X169078729Y-110383916D01*
X169039359Y-110376660D01*
X169028121Y-110376295D01*
X168967354Y-110376295D01*
X168928350Y-110380005D01*
X168898184Y-110388019D01*
X168861536Y-110405316D01*
X168835854Y-110424753D01*
X168809144Y-110455781D01*
X168790522Y-110490210D01*
X168778634Y-110528609D01*
X168773557Y-110569958D01*
X168773132Y-110587321D01*
X168773132Y-110926526D01*
X168910494Y-110926526D01*
X168910494Y-110609596D01*
G37*
G36*
X168295979Y-110363790D02*
G01*
X168295979Y-110488842D01*
X168416537Y-110488842D01*
X168416537Y-110926526D01*
X168594346Y-110926526D01*
X168594346Y-110488842D01*
X168713732Y-110488842D01*
X168713732Y-110363790D01*
X168594346Y-110363790D01*
X168594346Y-110126191D01*
X168416537Y-110126191D01*
X168416537Y-110363790D01*
X168295979Y-110363790D01*
G37*
G36*
X167848135Y-110363790D02*
G01*
X167848135Y-110488842D01*
X167968694Y-110488842D01*
X167968694Y-110926526D01*
X168146503Y-110926526D01*
X168146503Y-110488842D01*
X168265888Y-110488842D01*
X168265888Y-110363790D01*
X168146503Y-110363790D01*
X168146503Y-110126191D01*
X167968694Y-110126191D01*
X167968694Y-110363790D01*
X167848135Y-110363790D01*
G37*
G36*
X167781897Y-111151620D02*
G01*
X167622064Y-111151620D01*
X167622064Y-110888619D01*
X167599594Y-110897998D01*
X167594584Y-110899693D01*
X167555239Y-110905228D01*
X167450508Y-110905228D01*
X167430423Y-110904119D01*
X167391694Y-110895849D01*
X167371968Y-110888496D01*
X167338156Y-110868689D01*
X167323975Y-110856691D01*
X167298687Y-110824921D01*
X167289280Y-110804303D01*
X167283251Y-110764935D01*
X167283251Y-110597677D01*
X167406154Y-110597677D01*
X167406154Y-110717063D01*
X167409086Y-110745279D01*
X167430969Y-110779785D01*
X167448860Y-110789240D01*
X167487633Y-110796393D01*
X167550550Y-110796393D01*
X167561307Y-110795713D01*
X167597445Y-110777049D01*
X167606306Y-110763463D01*
X167614248Y-110723902D01*
X167614248Y-110573057D01*
X167607605Y-110550001D01*
X167590997Y-110529289D01*
X167567940Y-110514635D01*
X167542734Y-110509554D01*
X167480794Y-110509554D01*
X167463020Y-110511146D01*
X167426865Y-110529680D01*
X167411332Y-110556742D01*
X167406154Y-110597677D01*
X167283251Y-110597677D01*
X167283251Y-110528508D01*
X167285229Y-110504392D01*
X167297319Y-110465786D01*
X167309327Y-110444170D01*
X167335812Y-110413030D01*
X167356850Y-110396161D01*
X167391890Y-110377077D01*
X167418030Y-110368474D01*
X167458324Y-110363790D01*
X167525930Y-110363790D01*
X167543966Y-110364515D01*
X167583376Y-110371215D01*
X167585129Y-110371679D01*
X167622064Y-110385479D01*
X167622064Y-110351285D01*
X167781897Y-110351285D01*
X167781897Y-111151620D01*
G37*
G36*
X167200208Y-110750475D02*
G01*
X167161988Y-110766126D01*
X167125485Y-110780594D01*
X167087315Y-110795142D01*
X167083948Y-110796393D01*
X167044106Y-110807934D01*
X167002308Y-110812746D01*
X166980389Y-110812025D01*
X166950494Y-110811048D01*
X166925288Y-110805381D01*
X166906726Y-110792290D01*
X166896175Y-110769624D01*
X166899887Y-110739533D01*
X166921185Y-110715891D01*
X166952253Y-110698696D01*
X166982734Y-110688145D01*
X167021106Y-110678474D01*
X167059729Y-110668279D01*
X167067145Y-110666260D01*
X167106006Y-110652815D01*
X167135533Y-110637928D01*
X167167269Y-110612298D01*
X167181841Y-110593183D01*
X167196198Y-110555395D01*
X167199036Y-110523427D01*
X167194667Y-110484025D01*
X167180073Y-110447664D01*
X167167968Y-110430810D01*
X167137904Y-110402339D01*
X167102080Y-110380524D01*
X167090787Y-110375514D01*
X167052194Y-110362664D01*
X167011666Y-110355232D01*
X166992309Y-110353630D01*
X166951146Y-110353441D01*
X166909557Y-110358143D01*
X166895393Y-110361055D01*
X166856937Y-110371645D01*
X166831499Y-110380399D01*
X166795295Y-110397602D01*
X166771318Y-110413420D01*
X166771318Y-110543553D01*
X166803207Y-110518396D01*
X166818017Y-110507991D01*
X166853396Y-110488764D01*
X166861199Y-110485325D01*
X166897151Y-110472625D01*
X166936426Y-110467349D01*
X166974528Y-110471062D01*
X167007745Y-110486693D01*
X167020836Y-110505451D01*
X167020250Y-110525772D01*
X167009503Y-110543748D01*
X166990745Y-110554495D01*
X166952282Y-110566928D01*
X166913362Y-110579763D01*
X166908875Y-110581264D01*
X166869933Y-110594878D01*
X166833648Y-110608815D01*
X166797989Y-110627774D01*
X166781283Y-110640468D01*
X166754899Y-110671109D01*
X166750606Y-110678766D01*
X166737527Y-110715866D01*
X166736537Y-110721362D01*
X166733051Y-110761381D01*
X166733020Y-110765521D01*
X166738086Y-110805595D01*
X166754658Y-110842188D01*
X166756077Y-110844265D01*
X166782064Y-110874062D01*
X166814304Y-110897803D01*
X166851478Y-110915779D01*
X166889966Y-110927308D01*
X166892657Y-110927893D01*
X166932528Y-110934485D01*
X166971540Y-110937041D01*
X166976677Y-110937077D01*
X167018134Y-110935045D01*
X167057605Y-110928950D01*
X167091764Y-110919882D01*
X167128557Y-110906094D01*
X167165858Y-110888104D01*
X167200208Y-110868103D01*
X167200208Y-110750475D01*
G37*
G36*
X166526293Y-110665284D02*
G01*
X166526293Y-110801473D01*
X166662678Y-110801473D01*
X166662678Y-110665284D01*
X166526293Y-110665284D01*
G37*
G36*
X166526293Y-110302632D02*
G01*
X166526293Y-110438822D01*
X166662678Y-110438822D01*
X166662678Y-110302632D01*
X166526293Y-110302632D01*
G37*
G36*
X166047186Y-110093560D02*
G01*
X166283613Y-110926526D01*
X166454388Y-110926526D01*
X166212099Y-110093560D01*
X166047186Y-110093560D01*
G37*
G36*
X165596216Y-110093560D02*
G01*
X165832643Y-110926526D01*
X166003418Y-110926526D01*
X165761129Y-110093560D01*
X165596216Y-110093560D01*
G37*
G36*
X165208163Y-110390755D02*
G01*
X165242748Y-110378249D01*
X165254555Y-110375888D01*
X165294137Y-110373364D01*
X165381869Y-110373364D01*
X165400015Y-110374395D01*
X165438729Y-110383916D01*
X165455318Y-110391407D01*
X165487382Y-110414202D01*
X165499789Y-110427120D01*
X165521576Y-110460510D01*
X165529434Y-110481347D01*
X165534472Y-110520106D01*
X165534472Y-110764935D01*
X165532741Y-110789866D01*
X165522162Y-110828242D01*
X165511363Y-110848997D01*
X165486405Y-110879436D01*
X165465677Y-110896016D01*
X165429350Y-110914216D01*
X165393006Y-110923448D01*
X165351583Y-110926526D01*
X165296482Y-110926526D01*
X165280698Y-110925629D01*
X165242748Y-110915193D01*
X165208163Y-110895067D01*
X165208163Y-110926526D01*
X165048135Y-110926526D01*
X165048135Y-110552541D01*
X165215979Y-110552541D01*
X165215979Y-110721362D01*
X165222818Y-110750671D01*
X165239817Y-110772360D01*
X165263655Y-110785842D01*
X165289390Y-110796677D01*
X165342595Y-110790531D01*
X165360461Y-110789102D01*
X165393983Y-110767670D01*
X165400881Y-110750595D01*
X165406098Y-110711201D01*
X165406098Y-110562702D01*
X165404037Y-110540907D01*
X165384995Y-110505451D01*
X165370596Y-110495044D01*
X165331262Y-110485716D01*
X165291792Y-110485716D01*
X165269119Y-110487777D01*
X165234151Y-110506819D01*
X165227975Y-110514856D01*
X165215979Y-110552541D01*
X165048135Y-110552541D01*
X165048135Y-110088675D01*
X165208163Y-110088675D01*
X165208163Y-110390755D01*
G37*
G36*
X164621199Y-110376295D02*
G01*
X164432057Y-110376295D01*
X164432057Y-110926526D01*
X164605372Y-110926526D01*
X164605372Y-110888424D01*
X164638819Y-110910903D01*
X164655588Y-110916951D01*
X164694437Y-110925394D01*
X164712839Y-110926526D01*
X164758952Y-110926526D01*
X164798566Y-110923713D01*
X164832420Y-110916561D01*
X164869521Y-110900995D01*
X164894360Y-110882562D01*
X164919354Y-110852449D01*
X164936370Y-110818277D01*
X164947056Y-110779056D01*
X164951452Y-110739067D01*
X164952001Y-110716868D01*
X164952001Y-110376295D01*
X164802329Y-110376295D01*
X164802329Y-110681892D01*
X164800040Y-110721849D01*
X164789310Y-110759713D01*
X164788456Y-110761222D01*
X164755997Y-110782995D01*
X164736482Y-110784865D01*
X164691541Y-110784865D01*
X164653575Y-110774152D01*
X164640348Y-110762199D01*
X164624359Y-110726028D01*
X164621199Y-110690880D01*
X164621199Y-110376295D01*
G37*
G36*
X163865609Y-110365549D02*
G01*
X163865609Y-110531048D01*
X164061199Y-110645353D01*
X163865609Y-110766693D01*
X163865609Y-110931020D01*
X164169447Y-110755946D01*
X164169447Y-110926526D01*
X164324981Y-110926526D01*
X164324981Y-110088675D01*
X164169447Y-110088675D01*
X164169447Y-110534956D01*
X163865609Y-110365549D01*
G37*
G36*
X163181339Y-110376295D02*
G01*
X163493188Y-111239157D01*
X163712420Y-111239157D01*
X163603195Y-110937077D01*
X163817151Y-110376295D01*
X163657514Y-110376295D01*
X163530117Y-110721752D01*
X163403893Y-110376295D01*
X163181339Y-110376295D01*
G37*
G36*
X162982329Y-110375221D02*
G01*
X163021701Y-110384893D01*
X163055318Y-110399118D01*
X163088331Y-110420845D01*
X163110952Y-110442665D01*
X163133662Y-110475556D01*
X163145283Y-110504188D01*
X163150662Y-110543748D01*
X163150662Y-110744027D01*
X163147313Y-110783907D01*
X163135421Y-110822771D01*
X163121329Y-110847858D01*
X163094583Y-110877677D01*
X163072241Y-110893429D01*
X163034597Y-110909722D01*
X163004020Y-110916935D01*
X162963278Y-110920273D01*
X162837249Y-110920273D01*
X162799851Y-110917568D01*
X162761827Y-110907963D01*
X162735878Y-110896540D01*
X162703404Y-110874160D01*
X162686615Y-110856657D01*
X162666084Y-110821990D01*
X162657734Y-110796194D01*
X162653188Y-110755360D01*
X162653188Y-110577551D01*
X162807354Y-110577551D01*
X162807354Y-110737384D01*
X162811457Y-110760636D01*
X162824353Y-110782129D01*
X162846042Y-110798738D01*
X162876523Y-110805381D01*
X162927131Y-110805381D01*
X162963083Y-110797175D01*
X162984576Y-110777635D01*
X162994932Y-110753211D01*
X162997472Y-110731718D01*
X162997472Y-110578724D01*
X162990243Y-110545507D01*
X162971094Y-110523232D01*
X162944911Y-110510336D01*
X162915993Y-110506037D01*
X162884339Y-110506037D01*
X162861246Y-110508808D01*
X162827675Y-110529484D01*
X162819757Y-110539799D01*
X162807354Y-110577551D01*
X162653188Y-110577551D01*
X162653188Y-110548242D01*
X162656217Y-110517153D01*
X162669015Y-110479268D01*
X162685273Y-110452378D01*
X162713760Y-110423190D01*
X162745560Y-110402136D01*
X162782734Y-110385870D01*
X162790282Y-110383390D01*
X162830236Y-110374652D01*
X162870857Y-110371997D01*
X162940808Y-110371997D01*
X162982329Y-110375221D01*
G37*
G36*
X162237389Y-110376295D02*
G01*
X162048247Y-110376295D01*
X162048247Y-110926526D01*
X162221562Y-110926526D01*
X162221562Y-110888424D01*
X162255008Y-110910903D01*
X162271778Y-110916951D01*
X162310627Y-110925394D01*
X162329029Y-110926526D01*
X162375142Y-110926526D01*
X162414756Y-110923713D01*
X162448610Y-110916561D01*
X162485711Y-110900995D01*
X162510550Y-110882562D01*
X162535544Y-110852449D01*
X162552560Y-110818277D01*
X162563245Y-110779056D01*
X162567642Y-110739067D01*
X162568191Y-110716868D01*
X162568191Y-110376295D01*
X162418519Y-110376295D01*
X162418519Y-110681892D01*
X162416230Y-110721849D01*
X162405500Y-110759713D01*
X162404646Y-110761222D01*
X162372187Y-110782995D01*
X162352671Y-110784865D01*
X162307731Y-110784865D01*
X162269765Y-110774152D01*
X162256537Y-110762199D01*
X162240549Y-110726028D01*
X162237389Y-110690880D01*
X162237389Y-110376295D01*
G37*
G36*
X161551750Y-110926526D02*
G01*
X161551750Y-110619757D01*
X161557612Y-110588298D01*
X161573830Y-110560943D01*
X161597082Y-110542185D01*
X161623069Y-110534956D01*
X161699664Y-110534956D01*
X161722525Y-110540036D01*
X161744995Y-110554690D01*
X161762190Y-110576379D01*
X161768833Y-110601780D01*
X161768833Y-110926526D01*
X161946642Y-110926526D01*
X161946642Y-110363790D01*
X161768833Y-110363790D01*
X161768833Y-110404432D01*
X161739524Y-110394076D01*
X161699842Y-110387653D01*
X161697319Y-110387628D01*
X161615253Y-110387628D01*
X161574585Y-110391599D01*
X161540808Y-110401697D01*
X161504428Y-110421075D01*
X161480236Y-110441362D01*
X161456017Y-110472032D01*
X161439594Y-110504865D01*
X161428163Y-110544921D01*
X161424368Y-110586377D01*
X161424353Y-110589275D01*
X161424353Y-110926526D01*
X161551750Y-110926526D01*
G37*
G36*
X161030243Y-110426707D02*
G01*
X161061722Y-110414926D01*
X161101757Y-110410294D01*
X161171513Y-110410294D01*
X161199062Y-110412422D01*
X161236775Y-110423190D01*
X161258564Y-110434099D01*
X161290117Y-110457775D01*
X161305944Y-110475076D01*
X161326461Y-110509163D01*
X161335063Y-110534131D01*
X161339747Y-110573057D01*
X161339747Y-110762004D01*
X161338293Y-110784013D01*
X161327438Y-110822185D01*
X161318668Y-110838397D01*
X161292657Y-110868689D01*
X161278125Y-110879901D01*
X161241855Y-110898389D01*
X161219598Y-110904819D01*
X161179329Y-110908940D01*
X161093746Y-110908940D01*
X161054472Y-110902297D01*
X161029852Y-110894286D01*
X161030243Y-110977133D01*
X161044702Y-111008005D01*
X161045615Y-111008907D01*
X161082609Y-111022660D01*
X161130871Y-111022660D01*
X161153927Y-111017775D01*
X161167410Y-111004879D01*
X161175030Y-110986512D01*
X161179329Y-110959547D01*
X161320599Y-110959547D01*
X161317794Y-110997535D01*
X161305944Y-111036923D01*
X161295038Y-111056633D01*
X161269601Y-111087335D01*
X161256984Y-111097806D01*
X161220948Y-111116840D01*
X161209187Y-111120494D01*
X161169168Y-111126219D01*
X161053299Y-111126219D01*
X161037424Y-111125417D01*
X160998198Y-111118012D01*
X160975676Y-111110291D01*
X160940948Y-111090461D01*
X160920870Y-111073033D01*
X160896398Y-111040831D01*
X160882219Y-111004143D01*
X160878226Y-110964628D01*
X160878226Y-110582046D01*
X161038059Y-110582046D01*
X161038059Y-110742855D01*
X161039207Y-110761100D01*
X161056426Y-110796784D01*
X161059881Y-110799333D01*
X161098240Y-110811048D01*
X161144353Y-110811048D01*
X161153459Y-110810552D01*
X161188121Y-110790727D01*
X161190461Y-110786903D01*
X161201213Y-110748521D01*
X161201213Y-110588689D01*
X161200065Y-110572960D01*
X161182846Y-110537496D01*
X161171494Y-110528806D01*
X161133216Y-110519519D01*
X161109573Y-110519519D01*
X161098648Y-110520230D01*
X161061311Y-110534369D01*
X161050071Y-110544144D01*
X161038059Y-110582046D01*
X160878226Y-110582046D01*
X160878226Y-110370824D01*
X161030243Y-110370824D01*
X161030243Y-110426707D01*
G37*
G36*
X160405177Y-110446833D02*
G01*
X160405177Y-110576379D01*
X160784632Y-110576379D01*
X160784632Y-110446833D01*
X160405177Y-110446833D01*
G37*
G36*
X159945023Y-110609596D02*
G01*
X159949538Y-110569768D01*
X159951862Y-110562702D01*
X159970034Y-110534565D01*
X159995630Y-110520106D01*
X160023181Y-110515807D01*
X160076133Y-110515807D01*
X160098603Y-110518542D01*
X160122246Y-110526358D01*
X160139831Y-110539059D01*
X160146475Y-110555667D01*
X160146475Y-110926526D01*
X160310801Y-110926526D01*
X160310801Y-110088675D01*
X160146475Y-110088675D01*
X160146475Y-110395835D01*
X160113258Y-110383916D01*
X160073888Y-110376660D01*
X160062650Y-110376295D01*
X160001883Y-110376295D01*
X159962879Y-110380005D01*
X159932713Y-110388019D01*
X159896065Y-110405316D01*
X159870382Y-110424753D01*
X159843673Y-110455781D01*
X159825051Y-110490210D01*
X159813163Y-110528609D01*
X159808085Y-110569958D01*
X159807661Y-110587321D01*
X159807661Y-110926526D01*
X159945023Y-110926526D01*
X159945023Y-110609596D01*
G37*
G36*
X159578073Y-110790140D02*
G01*
X159578073Y-110926526D01*
X159714458Y-110926526D01*
X159714458Y-110790140D01*
X159578073Y-110790140D01*
G37*
G36*
X159178687Y-110426707D02*
G01*
X159210165Y-110414926D01*
X159250201Y-110410294D01*
X159319957Y-110410294D01*
X159347506Y-110412422D01*
X159385218Y-110423190D01*
X159407008Y-110434099D01*
X159438561Y-110457775D01*
X159454388Y-110475076D01*
X159474904Y-110509163D01*
X159483507Y-110534131D01*
X159488191Y-110573057D01*
X159488191Y-110762004D01*
X159486737Y-110784013D01*
X159475881Y-110822185D01*
X159467112Y-110838397D01*
X159441101Y-110868689D01*
X159426569Y-110879901D01*
X159390299Y-110898389D01*
X159368042Y-110904819D01*
X159327773Y-110908940D01*
X159242190Y-110908940D01*
X159202916Y-110902297D01*
X159178296Y-110894286D01*
X159178687Y-110977133D01*
X159193146Y-111008005D01*
X159194058Y-111008907D01*
X159231052Y-111022660D01*
X159279315Y-111022660D01*
X159302371Y-111017775D01*
X159315854Y-111004879D01*
X159323474Y-110986512D01*
X159327773Y-110959547D01*
X159469043Y-110959547D01*
X159466238Y-110997535D01*
X159454388Y-111036923D01*
X159443482Y-111056633D01*
X159418045Y-111087335D01*
X159405427Y-111097806D01*
X159369392Y-111116840D01*
X159357631Y-111120494D01*
X159317612Y-111126219D01*
X159201743Y-111126219D01*
X159185867Y-111125417D01*
X159146642Y-111118012D01*
X159124120Y-111110291D01*
X159089392Y-111090461D01*
X159069314Y-111073033D01*
X159044842Y-111040831D01*
X159030663Y-111004143D01*
X159026670Y-110964628D01*
X159026670Y-110582046D01*
X159186503Y-110582046D01*
X159186503Y-110742855D01*
X159187650Y-110761100D01*
X159204870Y-110796784D01*
X159208325Y-110799333D01*
X159246684Y-110811048D01*
X159292797Y-110811048D01*
X159301903Y-110810552D01*
X159336565Y-110790727D01*
X159338905Y-110786903D01*
X159349657Y-110748521D01*
X159349657Y-110588689D01*
X159348509Y-110572960D01*
X159331290Y-110537496D01*
X159319938Y-110528806D01*
X159281660Y-110519519D01*
X159258017Y-110519519D01*
X159247092Y-110520230D01*
X159209754Y-110534369D01*
X159198514Y-110544144D01*
X159186503Y-110582046D01*
X159026670Y-110582046D01*
X159026670Y-110370824D01*
X159178687Y-110370824D01*
X159178687Y-110426707D01*
G37*
G36*
X158768066Y-110375221D02*
G01*
X158807438Y-110384893D01*
X158841054Y-110399118D01*
X158874067Y-110420845D01*
X158896689Y-110442665D01*
X158919399Y-110475556D01*
X158931019Y-110504188D01*
X158936398Y-110543748D01*
X158936398Y-110744027D01*
X158933049Y-110783907D01*
X158921157Y-110822771D01*
X158907065Y-110847858D01*
X158880320Y-110877677D01*
X158857977Y-110893429D01*
X158820334Y-110909722D01*
X158789757Y-110916935D01*
X158749015Y-110920273D01*
X158622985Y-110920273D01*
X158585588Y-110917568D01*
X158547563Y-110907963D01*
X158521614Y-110896540D01*
X158489140Y-110874160D01*
X158472352Y-110856657D01*
X158451820Y-110821990D01*
X158443470Y-110796194D01*
X158438924Y-110755360D01*
X158438924Y-110577551D01*
X158593090Y-110577551D01*
X158593090Y-110737384D01*
X158597193Y-110760636D01*
X158610089Y-110782129D01*
X158631778Y-110798738D01*
X158662260Y-110805381D01*
X158712867Y-110805381D01*
X158748819Y-110797175D01*
X158770313Y-110777635D01*
X158780669Y-110753211D01*
X158783209Y-110731718D01*
X158783209Y-110578724D01*
X158775979Y-110545507D01*
X158756830Y-110523232D01*
X158730648Y-110510336D01*
X158701729Y-110506037D01*
X158670075Y-110506037D01*
X158646983Y-110508808D01*
X158613411Y-110529484D01*
X158605493Y-110539799D01*
X158593090Y-110577551D01*
X158438924Y-110577551D01*
X158438924Y-110548242D01*
X158441953Y-110517153D01*
X158454751Y-110479268D01*
X158471009Y-110452378D01*
X158499496Y-110423190D01*
X158531297Y-110402136D01*
X158568470Y-110385870D01*
X158576018Y-110383390D01*
X158615972Y-110374652D01*
X158656593Y-110371997D01*
X158726544Y-110371997D01*
X158768066Y-110375221D01*
G37*
G36*
X158148894Y-110372596D02*
G01*
X158187989Y-110376051D01*
X158227703Y-110386456D01*
X158261869Y-110401909D01*
X158295505Y-110425339D01*
X158320125Y-110450590D01*
X158342008Y-110483567D01*
X158354631Y-110515953D01*
X158359594Y-110555667D01*
X158359594Y-110756923D01*
X158359154Y-110759900D01*
X158349531Y-110800741D01*
X158333020Y-110836449D01*
X158315602Y-110859977D01*
X158285735Y-110887056D01*
X158264632Y-110899879D01*
X158227507Y-110914411D01*
X158208403Y-110918739D01*
X158167717Y-110922618D01*
X158059664Y-110922618D01*
X158027933Y-110921384D01*
X157988345Y-110916170D01*
X157963478Y-110910024D01*
X157926796Y-110893309D01*
X157908029Y-110879405D01*
X157883223Y-110849150D01*
X157871302Y-110819918D01*
X157866614Y-110779003D01*
X157866614Y-110738947D01*
X158006126Y-110738947D01*
X158013434Y-110778205D01*
X158041497Y-110806122D01*
X158080962Y-110813392D01*
X158124925Y-110813392D01*
X158129822Y-110813319D01*
X158168303Y-110804990D01*
X158194290Y-110784669D01*
X158207382Y-110759268D01*
X158210899Y-110736016D01*
X158210899Y-110688926D01*
X157876579Y-110688926D01*
X157876579Y-110561529D01*
X158017459Y-110561529D01*
X158017459Y-110588884D01*
X158210899Y-110588884D01*
X158210899Y-110561529D01*
X158204842Y-110535346D01*
X158187647Y-110512681D01*
X158162636Y-110497049D01*
X158133914Y-110491187D01*
X158097961Y-110491187D01*
X158068652Y-110497049D01*
X158042469Y-110512681D01*
X158024297Y-110535542D01*
X158017459Y-110561529D01*
X157876579Y-110561529D01*
X157876579Y-110555667D01*
X157880314Y-110517958D01*
X157893579Y-110479268D01*
X157910563Y-110451176D01*
X157939105Y-110421431D01*
X157967739Y-110401951D01*
X158004758Y-110385479D01*
X158042567Y-110375807D01*
X158082134Y-110372583D01*
X158146223Y-110372583D01*
X158148894Y-110372596D01*
G37*
G36*
X157205400Y-110376295D02*
G01*
X157517249Y-111239157D01*
X157736482Y-111239157D01*
X157627256Y-110937077D01*
X157841213Y-110376295D01*
X157681576Y-110376295D01*
X157554179Y-110721752D01*
X157427954Y-110376295D01*
X157205400Y-110376295D01*
G37*
G36*
X157151666Y-110284069D02*
G01*
X157151666Y-110138696D01*
X157003167Y-110138696D01*
X157003167Y-110284069D01*
X157151666Y-110284069D01*
G37*
G36*
X157151666Y-110923399D02*
G01*
X157151666Y-110376295D01*
X157003167Y-110376295D01*
X157003167Y-110923399D01*
X157151666Y-110923399D01*
G37*
G36*
X156765958Y-110790140D02*
G01*
X156765958Y-110926526D01*
X156902343Y-110926526D01*
X156902343Y-110790140D01*
X156765958Y-110790140D01*
G37*
G36*
X156199901Y-110365549D02*
G01*
X156199901Y-110531048D01*
X156395491Y-110645353D01*
X156199901Y-110766693D01*
X156199901Y-110931020D01*
X156503739Y-110755946D01*
X156503739Y-110926526D01*
X156659273Y-110926526D01*
X156659273Y-110088675D01*
X156503739Y-110088675D01*
X156503739Y-110534956D01*
X156199901Y-110365549D01*
G37*
G36*
X155669015Y-110522450D02*
G01*
X155708669Y-110523208D01*
X155729978Y-110524209D01*
X155770736Y-110528849D01*
X155796803Y-110533979D01*
X155834710Y-110544268D01*
X155868708Y-110556644D01*
X155904025Y-110573644D01*
X155936900Y-110595332D01*
X155936900Y-110926526D01*
X156103572Y-110926526D01*
X156103572Y-110376295D01*
X155936900Y-110376295D01*
X155936900Y-110436868D01*
X155904660Y-110418110D01*
X155867959Y-110401172D01*
X155845847Y-110392904D01*
X155807449Y-110381495D01*
X155769447Y-110373169D01*
X155729163Y-110367297D01*
X155690108Y-110364348D01*
X155669015Y-110363595D01*
X155669015Y-110522450D01*
G37*
D14*
%TO.C,G\u002A\u002A\u002A*%
G36*
X170410000Y-96942145D02*
G01*
X170418400Y-96942219D01*
X170508949Y-96943064D01*
X170585192Y-96943904D01*
X170648688Y-96944805D01*
X170700999Y-96945832D01*
X170743686Y-96947050D01*
X170778309Y-96948524D01*
X170806429Y-96950320D01*
X170829607Y-96952503D01*
X170849402Y-96955139D01*
X170867377Y-96958292D01*
X170885092Y-96962029D01*
X170940580Y-96976823D01*
X171031037Y-97012686D01*
X171111676Y-97060635D01*
X171181846Y-97120171D01*
X171240895Y-97190793D01*
X171288174Y-97272000D01*
X171310353Y-97322906D01*
X171329425Y-97380578D01*
X171342789Y-97442292D01*
X171351992Y-97513919D01*
X171353039Y-97530054D01*
X171354239Y-97563520D01*
X171355313Y-97610346D01*
X171356263Y-97669064D01*
X171357088Y-97738207D01*
X171357788Y-97816306D01*
X171358363Y-97901893D01*
X171358813Y-97993501D01*
X171359138Y-98089662D01*
X171359338Y-98188906D01*
X171359413Y-98289768D01*
X171359363Y-98390777D01*
X171359188Y-98490467D01*
X171358888Y-98587370D01*
X171358464Y-98680017D01*
X171357914Y-98766941D01*
X171357239Y-98846673D01*
X171356440Y-98917745D01*
X171355515Y-98978690D01*
X171354466Y-99028039D01*
X171353292Y-99064325D01*
X171351992Y-99086080D01*
X171347265Y-99127495D01*
X171334971Y-99197157D01*
X171317179Y-99259507D01*
X171292499Y-99320000D01*
X171269182Y-99365038D01*
X171216305Y-99441783D01*
X171152277Y-99507273D01*
X171077494Y-99561247D01*
X170992352Y-99603441D01*
X170897249Y-99633593D01*
X170792580Y-99651439D01*
X170765649Y-99653711D01*
X170723802Y-99656123D01*
X170676971Y-99657957D01*
X170631141Y-99658935D01*
X170530281Y-99660000D01*
X170407141Y-99510572D01*
X170389611Y-99489317D01*
X170351755Y-99443527D01*
X170315254Y-99399510D01*
X170282309Y-99359914D01*
X170255119Y-99327386D01*
X170235887Y-99304572D01*
X170225281Y-99292067D01*
X170190454Y-99250498D01*
X170159165Y-99212404D01*
X170132789Y-99179518D01*
X170112702Y-99153575D01*
X170100281Y-99136307D01*
X170096901Y-99129449D01*
X170099528Y-99128593D01*
X170114719Y-99125000D01*
X170140101Y-99119567D01*
X170172000Y-99113093D01*
X170265035Y-99088031D01*
X170364016Y-99046775D01*
X170458183Y-98992496D01*
X170545223Y-98926743D01*
X170622821Y-98851067D01*
X170688663Y-98767018D01*
X170723858Y-98710498D01*
X170774329Y-98607308D01*
X170810003Y-98500995D01*
X170831091Y-98392848D01*
X170837803Y-98284152D01*
X170830351Y-98176195D01*
X170808945Y-98070264D01*
X170773798Y-97967646D01*
X170725118Y-97869628D01*
X170663118Y-97777497D01*
X170588009Y-97692539D01*
X170500000Y-97616043D01*
X170426521Y-97565883D01*
X170330508Y-97515831D01*
X170231232Y-97480326D01*
X170130414Y-97460095D01*
X170119300Y-97458725D01*
X170084249Y-97454273D01*
X170053961Y-97450247D01*
X170034000Y-97447379D01*
X170008000Y-97443274D01*
X170008000Y-97190942D01*
X170008000Y-96938610D01*
X170410000Y-96942145D01*
G37*
G36*
X169632000Y-97377338D02*
G01*
X169632445Y-97421782D01*
X169633419Y-97501235D01*
X169634550Y-97575084D01*
X169635804Y-97641844D01*
X169637143Y-97700031D01*
X169638533Y-97748159D01*
X169639937Y-97784743D01*
X169641320Y-97808298D01*
X169642645Y-97817338D01*
X169642721Y-97817403D01*
X169652716Y-97819333D01*
X169676494Y-97821391D01*
X169711914Y-97823469D01*
X169756839Y-97825457D01*
X169809129Y-97827246D01*
X169866645Y-97828729D01*
X169921129Y-97829983D01*
X169976426Y-97831537D01*
X170019775Y-97833251D01*
X170053425Y-97835306D01*
X170079624Y-97837886D01*
X170100621Y-97841172D01*
X170118663Y-97845348D01*
X170136000Y-97850596D01*
X170184480Y-97869769D01*
X170256806Y-97911560D01*
X170320656Y-97965335D01*
X170373970Y-98029238D01*
X170414689Y-98101417D01*
X170430955Y-98142915D01*
X170450556Y-98223276D01*
X170455510Y-98303172D01*
X170446636Y-98381088D01*
X170424755Y-98455514D01*
X170390688Y-98524936D01*
X170345254Y-98587840D01*
X170289273Y-98642716D01*
X170223567Y-98688049D01*
X170148955Y-98722327D01*
X170066257Y-98744037D01*
X170047305Y-98747211D01*
X170014446Y-98751604D01*
X169987237Y-98752613D01*
X169958848Y-98750264D01*
X169922449Y-98744582D01*
X169888278Y-98737508D01*
X169807286Y-98709897D01*
X169734289Y-98668491D01*
X169669635Y-98613472D01*
X169661807Y-98605263D01*
X169637621Y-98578657D01*
X169606639Y-98543393D01*
X169571136Y-98502106D01*
X169533387Y-98457429D01*
X169495667Y-98412000D01*
X169472457Y-98383783D01*
X169440414Y-98344851D01*
X169412767Y-98311289D01*
X169390957Y-98284844D01*
X169376426Y-98267265D01*
X169370612Y-98260299D01*
X169369508Y-98259996D01*
X169356232Y-98259182D01*
X169329606Y-98258564D01*
X169291631Y-98258160D01*
X169244309Y-98257984D01*
X169189642Y-98258054D01*
X169129633Y-98258384D01*
X169092556Y-98258691D01*
X169030281Y-98259410D01*
X168981732Y-98260343D01*
X168945399Y-98261570D01*
X168919770Y-98263172D01*
X168903335Y-98265228D01*
X168894582Y-98267819D01*
X168892000Y-98271026D01*
X168896657Y-98279064D01*
X168910473Y-98298031D01*
X168932306Y-98326404D01*
X168961009Y-98362733D01*
X168995436Y-98405566D01*
X169034440Y-98453452D01*
X169076874Y-98504941D01*
X169086715Y-98516815D01*
X169135620Y-98575832D01*
X169191837Y-98643686D01*
X169253011Y-98717535D01*
X169316788Y-98794533D01*
X169380811Y-98871839D01*
X169442727Y-98946609D01*
X169500180Y-99016000D01*
X169540966Y-99065250D01*
X169589090Y-99123320D01*
X169634197Y-99177710D01*
X169675091Y-99226977D01*
X169710576Y-99269681D01*
X169739453Y-99304380D01*
X169760526Y-99329634D01*
X169772599Y-99344000D01*
X169788607Y-99362918D01*
X169822166Y-99402981D01*
X169857328Y-99445405D01*
X169892611Y-99488359D01*
X169926533Y-99530013D01*
X169957614Y-99568534D01*
X169984373Y-99602091D01*
X170005328Y-99628855D01*
X170018998Y-99646992D01*
X170023902Y-99654673D01*
X170022651Y-99655182D01*
X170008945Y-99656317D01*
X169981312Y-99657245D01*
X169941234Y-99657957D01*
X169890192Y-99658440D01*
X169829666Y-99658683D01*
X169761138Y-99658675D01*
X169686089Y-99658404D01*
X169606000Y-99657859D01*
X169572388Y-99657575D01*
X169483792Y-99656766D01*
X169409162Y-99655948D01*
X169346979Y-99655061D01*
X169295725Y-99654042D01*
X169253884Y-99652831D01*
X169219937Y-99651368D01*
X169192366Y-99649590D01*
X169169653Y-99647437D01*
X169150281Y-99644847D01*
X169132731Y-99641760D01*
X169115486Y-99638114D01*
X169063749Y-99624430D01*
X168972791Y-99588808D01*
X168891496Y-99540872D01*
X168820490Y-99481104D01*
X168760400Y-99409986D01*
X168711854Y-99328000D01*
X168701398Y-99305786D01*
X168681682Y-99256807D01*
X168667142Y-99207089D01*
X168656452Y-99151562D01*
X168648282Y-99085152D01*
X168647328Y-99071731D01*
X168646026Y-99039430D01*
X168644856Y-98993601D01*
X168643818Y-98935718D01*
X168642912Y-98867257D01*
X168642139Y-98789691D01*
X168641498Y-98704497D01*
X168640991Y-98613148D01*
X168640617Y-98517119D01*
X168640377Y-98417885D01*
X168640270Y-98316922D01*
X168640298Y-98215703D01*
X168640460Y-98115703D01*
X168640757Y-98018398D01*
X168641188Y-97925261D01*
X168641755Y-97837769D01*
X168642457Y-97757395D01*
X168643295Y-97685614D01*
X168644269Y-97623901D01*
X168645379Y-97573731D01*
X168646626Y-97536579D01*
X168648009Y-97513919D01*
X168655720Y-97451519D01*
X168668412Y-97388779D01*
X168686599Y-97330896D01*
X168711827Y-97272000D01*
X168739468Y-97220848D01*
X168794027Y-97146132D01*
X168859868Y-97082356D01*
X168936266Y-97030073D01*
X169022496Y-96989835D01*
X169117833Y-96962197D01*
X169128118Y-96960067D01*
X169154003Y-96955348D01*
X169180505Y-96951727D01*
X169210188Y-96949054D01*
X169245615Y-96947176D01*
X169289351Y-96945943D01*
X169343958Y-96945201D01*
X169412000Y-96944801D01*
X169628000Y-96944000D01*
X169632000Y-97377338D01*
G37*
G36*
X179705000Y-113821072D02*
G01*
X179709200Y-113821109D01*
X179754475Y-113821532D01*
X179792596Y-113821952D01*
X179824344Y-113822402D01*
X179850500Y-113822916D01*
X179871843Y-113823525D01*
X179889155Y-113824262D01*
X179903215Y-113825160D01*
X179914804Y-113826251D01*
X179924701Y-113827569D01*
X179933689Y-113829146D01*
X179942546Y-113831014D01*
X179970290Y-113838411D01*
X180015519Y-113856343D01*
X180055838Y-113880317D01*
X180090923Y-113910085D01*
X180120448Y-113945396D01*
X180144087Y-113986000D01*
X180155177Y-114011453D01*
X180164713Y-114040289D01*
X180171395Y-114071146D01*
X180175996Y-114106959D01*
X180176520Y-114115027D01*
X180177120Y-114131760D01*
X180177657Y-114155173D01*
X180178132Y-114184532D01*
X180178544Y-114219103D01*
X180178894Y-114258153D01*
X180179182Y-114300946D01*
X180179407Y-114346750D01*
X180179569Y-114394831D01*
X180179669Y-114444453D01*
X180179707Y-114494884D01*
X180179682Y-114545388D01*
X180179594Y-114595233D01*
X180179444Y-114643685D01*
X180179232Y-114690008D01*
X180178957Y-114733470D01*
X180178620Y-114773336D01*
X180178220Y-114808872D01*
X180177758Y-114839345D01*
X180177233Y-114864019D01*
X180176646Y-114882162D01*
X180175996Y-114893040D01*
X180173633Y-114913747D01*
X180167486Y-114948578D01*
X180158590Y-114979753D01*
X180146250Y-115010000D01*
X180134591Y-115032519D01*
X180108153Y-115070891D01*
X180076139Y-115103636D01*
X180038747Y-115130623D01*
X179996176Y-115151720D01*
X179948625Y-115166796D01*
X179896290Y-115175719D01*
X179882825Y-115176855D01*
X179861901Y-115178061D01*
X179838486Y-115178978D01*
X179815571Y-115179467D01*
X179765141Y-115180000D01*
X179703571Y-115105286D01*
X179694806Y-115094658D01*
X179675878Y-115071763D01*
X179657627Y-115049755D01*
X179641155Y-115029957D01*
X179627560Y-115013693D01*
X179617944Y-115002286D01*
X179612641Y-114996033D01*
X179595227Y-114975249D01*
X179579583Y-114956202D01*
X179566395Y-114939759D01*
X179556351Y-114926787D01*
X179550141Y-114918153D01*
X179548451Y-114914724D01*
X179549764Y-114914296D01*
X179557360Y-114912500D01*
X179570051Y-114909783D01*
X179586000Y-114906546D01*
X179632518Y-114894015D01*
X179682008Y-114873387D01*
X179729092Y-114846248D01*
X179772612Y-114813371D01*
X179811411Y-114775533D01*
X179844332Y-114733509D01*
X179861929Y-114705249D01*
X179887165Y-114653654D01*
X179905002Y-114600497D01*
X179915546Y-114546424D01*
X179918902Y-114492076D01*
X179915176Y-114438097D01*
X179904473Y-114385132D01*
X179886899Y-114333823D01*
X179862559Y-114284814D01*
X179831559Y-114238748D01*
X179794005Y-114196269D01*
X179750000Y-114158021D01*
X179713261Y-114132941D01*
X179665254Y-114107915D01*
X179615616Y-114090163D01*
X179565207Y-114080047D01*
X179559650Y-114079362D01*
X179542125Y-114077136D01*
X179526981Y-114075123D01*
X179517000Y-114073689D01*
X179504000Y-114071637D01*
X179504000Y-113945471D01*
X179504000Y-113819305D01*
X179705000Y-113821072D01*
G37*
G36*
X179316000Y-114038669D02*
G01*
X179316223Y-114060891D01*
X179316710Y-114100617D01*
X179317275Y-114137542D01*
X179317902Y-114170922D01*
X179318572Y-114200015D01*
X179319267Y-114224079D01*
X179319969Y-114242371D01*
X179320660Y-114254149D01*
X179321323Y-114258669D01*
X179321361Y-114258701D01*
X179326358Y-114259666D01*
X179338247Y-114260695D01*
X179355957Y-114261734D01*
X179378420Y-114262728D01*
X179404565Y-114263623D01*
X179433323Y-114264364D01*
X179460565Y-114264991D01*
X179488213Y-114265768D01*
X179509888Y-114266625D01*
X179526713Y-114267653D01*
X179539812Y-114268943D01*
X179550311Y-114270586D01*
X179559332Y-114272674D01*
X179568000Y-114275298D01*
X179592240Y-114284884D01*
X179628403Y-114305780D01*
X179660328Y-114332667D01*
X179686985Y-114364619D01*
X179707345Y-114400708D01*
X179715478Y-114421457D01*
X179725278Y-114461638D01*
X179727755Y-114501586D01*
X179723318Y-114540544D01*
X179712378Y-114577757D01*
X179695344Y-114612468D01*
X179672627Y-114643920D01*
X179644637Y-114671358D01*
X179611784Y-114694024D01*
X179574478Y-114711163D01*
X179533129Y-114722018D01*
X179523653Y-114723605D01*
X179507223Y-114725802D01*
X179493619Y-114726306D01*
X179479424Y-114725132D01*
X179461225Y-114722291D01*
X179444139Y-114718754D01*
X179403643Y-114704948D01*
X179367145Y-114684245D01*
X179334818Y-114656736D01*
X179330904Y-114652631D01*
X179318811Y-114639328D01*
X179303320Y-114621696D01*
X179285568Y-114601053D01*
X179266694Y-114578714D01*
X179247834Y-114556000D01*
X179236229Y-114541891D01*
X179220207Y-114522425D01*
X179206384Y-114505644D01*
X179195479Y-114492422D01*
X179188213Y-114483632D01*
X179185306Y-114480149D01*
X179184754Y-114479998D01*
X179178116Y-114479591D01*
X179164803Y-114479282D01*
X179145816Y-114479080D01*
X179122155Y-114478992D01*
X179094821Y-114479027D01*
X179064817Y-114479192D01*
X179046278Y-114479345D01*
X179015141Y-114479705D01*
X178990866Y-114480171D01*
X178972700Y-114480785D01*
X178959885Y-114481586D01*
X178951668Y-114482614D01*
X178947291Y-114483909D01*
X178946000Y-114485513D01*
X178948329Y-114489532D01*
X178955237Y-114499015D01*
X178966153Y-114513202D01*
X178980505Y-114531366D01*
X178997718Y-114552783D01*
X179017220Y-114576726D01*
X179038437Y-114602470D01*
X179043358Y-114608407D01*
X179067810Y-114637916D01*
X179095919Y-114671843D01*
X179126506Y-114708767D01*
X179158394Y-114747266D01*
X179190406Y-114785919D01*
X179221364Y-114823304D01*
X179250090Y-114858000D01*
X179270483Y-114882625D01*
X179294545Y-114911660D01*
X179317099Y-114938855D01*
X179337546Y-114963488D01*
X179355288Y-114984840D01*
X179369727Y-115002190D01*
X179380263Y-115014817D01*
X179386300Y-115022000D01*
X179394304Y-115031459D01*
X179411083Y-115051490D01*
X179428664Y-115072702D01*
X179446306Y-115094179D01*
X179463267Y-115115006D01*
X179478807Y-115134267D01*
X179492187Y-115151045D01*
X179502664Y-115164427D01*
X179509499Y-115173496D01*
X179511951Y-115177336D01*
X179511326Y-115177591D01*
X179504473Y-115178158D01*
X179490656Y-115178622D01*
X179470617Y-115178978D01*
X179445096Y-115179220D01*
X179414833Y-115179341D01*
X179380569Y-115179337D01*
X179343045Y-115179202D01*
X179303000Y-115178929D01*
X179286194Y-115178787D01*
X179241896Y-115178383D01*
X179204581Y-115177974D01*
X179173490Y-115177530D01*
X179147863Y-115177021D01*
X179126942Y-115176415D01*
X179109969Y-115175684D01*
X179096183Y-115174795D01*
X179084827Y-115173718D01*
X179075141Y-115172423D01*
X179066366Y-115170880D01*
X179057743Y-115169057D01*
X179031875Y-115162215D01*
X178986396Y-115144404D01*
X178945748Y-115120436D01*
X178910245Y-115090552D01*
X178880200Y-115054993D01*
X178855927Y-115014000D01*
X178850699Y-115002893D01*
X178840841Y-114978403D01*
X178833571Y-114953544D01*
X178828226Y-114925781D01*
X178824141Y-114892576D01*
X178823664Y-114885865D01*
X178823013Y-114869715D01*
X178822428Y-114846800D01*
X178821909Y-114817859D01*
X178821456Y-114783628D01*
X178821070Y-114744845D01*
X178820749Y-114702248D01*
X178820496Y-114656574D01*
X178820309Y-114608559D01*
X178820189Y-114558942D01*
X178820135Y-114508461D01*
X178820149Y-114457851D01*
X178820230Y-114407851D01*
X178820379Y-114359199D01*
X178820594Y-114312630D01*
X178820878Y-114268884D01*
X178821229Y-114228697D01*
X178821648Y-114192807D01*
X178822135Y-114161950D01*
X178822690Y-114136865D01*
X178823313Y-114118289D01*
X178824005Y-114106959D01*
X178827860Y-114075759D01*
X178834206Y-114044389D01*
X178843300Y-114015448D01*
X178855914Y-113986000D01*
X178869734Y-113960424D01*
X178897014Y-113923066D01*
X178929934Y-113891178D01*
X178968133Y-113865036D01*
X179011248Y-113844917D01*
X179058917Y-113831098D01*
X179064059Y-113830033D01*
X179077002Y-113827674D01*
X179090253Y-113825863D01*
X179105094Y-113824527D01*
X179122808Y-113823588D01*
X179144676Y-113822971D01*
X179171979Y-113822600D01*
X179206000Y-113822400D01*
X179314000Y-113822000D01*
X179316000Y-114038669D01*
G37*
%TD*%
M02*
