%TF.GenerationSoftware,KiCad,Pcbnew,8.0.6*%
%TF.CreationDate,2024-12-06T21:46:28+09:00*%
%TF.ProjectId,dummy_keyboard,64756d6d-795f-46b6-9579-626f6172642e,rev?*%
%TF.SameCoordinates,Original*%
%TF.FileFunction,Drillmap*%
%TF.FilePolarity,Positive*%
%FSLAX45Y45*%
G04 Gerber Fmt 4.5, Leading zero omitted, Abs format (unit mm)*
G04 Created by KiCad (PCBNEW 8.0.6) date 2024-12-06 21:46:28*
%MOMM*%
%LPD*%
G01*
G04 APERTURE LIST*
%ADD10C,0.050000*%
%ADD11C,0.200000*%
%ADD12C,0.150000*%
%ADD13C,0.400000*%
G04 APERTURE END LIST*
D10*
X13200000Y-9400000D02*
G75*
G02*
X13400000Y-9200000I200000J0D01*
G01*
X13200000Y-11500000D02*
X13200000Y-9400000D01*
X13400000Y-11700000D02*
G75*
G02*
X13200000Y-11500000I0J200000D01*
G01*
X13400000Y-9200000D02*
X18000000Y-9200000D01*
X18200000Y-9400000D02*
X18200000Y-11500000D01*
X18000000Y-9200000D02*
G75*
G02*
X18200000Y-9400000I0J-200000D01*
G01*
X18000000Y-11700000D02*
X13400000Y-11700000D01*
X18200000Y-11500000D02*
G75*
G02*
X18000000Y-11700000I-200000J0D01*
G01*
D11*
D12*
X14044000Y-10121000D02*
X14194000Y-10271000D01*
X14194000Y-10121000D02*
X14044000Y-10271000D01*
X14679000Y-9867000D02*
X14829000Y-10017000D01*
X14829000Y-9867000D02*
X14679000Y-10017000D01*
D13*
X17900000Y-9700000D02*
G75*
G02*
X17500000Y-9700000I-200000J0D01*
G01*
X17500000Y-9700000D02*
G75*
G02*
X17900000Y-9700000I200000J0D01*
G01*
D11*
X13458277Y-12013984D02*
X13458277Y-11813984D01*
X13458277Y-11813984D02*
X13505896Y-11813984D01*
X13505896Y-11813984D02*
X13534467Y-11823508D01*
X13534467Y-11823508D02*
X13553515Y-11842555D01*
X13553515Y-11842555D02*
X13563039Y-11861603D01*
X13563039Y-11861603D02*
X13572562Y-11899698D01*
X13572562Y-11899698D02*
X13572562Y-11928269D01*
X13572562Y-11928269D02*
X13563039Y-11966365D01*
X13563039Y-11966365D02*
X13553515Y-11985412D01*
X13553515Y-11985412D02*
X13534467Y-12004460D01*
X13534467Y-12004460D02*
X13505896Y-12013984D01*
X13505896Y-12013984D02*
X13458277Y-12013984D01*
X13658277Y-12013984D02*
X13658277Y-11880650D01*
X13658277Y-11918746D02*
X13667801Y-11899698D01*
X13667801Y-11899698D02*
X13677324Y-11890174D01*
X13677324Y-11890174D02*
X13696372Y-11880650D01*
X13696372Y-11880650D02*
X13715420Y-11880650D01*
X13782086Y-12013984D02*
X13782086Y-11880650D01*
X13782086Y-11813984D02*
X13772562Y-11823508D01*
X13772562Y-11823508D02*
X13782086Y-11833031D01*
X13782086Y-11833031D02*
X13791610Y-11823508D01*
X13791610Y-11823508D02*
X13782086Y-11813984D01*
X13782086Y-11813984D02*
X13782086Y-11833031D01*
X13905896Y-12013984D02*
X13886848Y-12004460D01*
X13886848Y-12004460D02*
X13877324Y-11985412D01*
X13877324Y-11985412D02*
X13877324Y-11813984D01*
X14010658Y-12013984D02*
X13991610Y-12004460D01*
X13991610Y-12004460D02*
X13982086Y-11985412D01*
X13982086Y-11985412D02*
X13982086Y-11813984D01*
X14239229Y-12013984D02*
X14239229Y-11813984D01*
X14239229Y-11813984D02*
X14305896Y-11956841D01*
X14305896Y-11956841D02*
X14372562Y-11813984D01*
X14372562Y-11813984D02*
X14372562Y-12013984D01*
X14553515Y-12013984D02*
X14553515Y-11909222D01*
X14553515Y-11909222D02*
X14543991Y-11890174D01*
X14543991Y-11890174D02*
X14524943Y-11880650D01*
X14524943Y-11880650D02*
X14486848Y-11880650D01*
X14486848Y-11880650D02*
X14467801Y-11890174D01*
X14553515Y-12004460D02*
X14534467Y-12013984D01*
X14534467Y-12013984D02*
X14486848Y-12013984D01*
X14486848Y-12013984D02*
X14467801Y-12004460D01*
X14467801Y-12004460D02*
X14458277Y-11985412D01*
X14458277Y-11985412D02*
X14458277Y-11966365D01*
X14458277Y-11966365D02*
X14467801Y-11947317D01*
X14467801Y-11947317D02*
X14486848Y-11937793D01*
X14486848Y-11937793D02*
X14534467Y-11937793D01*
X14534467Y-11937793D02*
X14553515Y-11928269D01*
X14648753Y-11880650D02*
X14648753Y-12080650D01*
X14648753Y-11890174D02*
X14667801Y-11880650D01*
X14667801Y-11880650D02*
X14705896Y-11880650D01*
X14705896Y-11880650D02*
X14724943Y-11890174D01*
X14724943Y-11890174D02*
X14734467Y-11899698D01*
X14734467Y-11899698D02*
X14743991Y-11918746D01*
X14743991Y-11918746D02*
X14743991Y-11975888D01*
X14743991Y-11975888D02*
X14734467Y-11994936D01*
X14734467Y-11994936D02*
X14724943Y-12004460D01*
X14724943Y-12004460D02*
X14705896Y-12013984D01*
X14705896Y-12013984D02*
X14667801Y-12013984D01*
X14667801Y-12013984D02*
X14648753Y-12004460D01*
X14829705Y-11994936D02*
X14839229Y-12004460D01*
X14839229Y-12004460D02*
X14829705Y-12013984D01*
X14829705Y-12013984D02*
X14820182Y-12004460D01*
X14820182Y-12004460D02*
X14829705Y-11994936D01*
X14829705Y-11994936D02*
X14829705Y-12013984D01*
X14829705Y-11890174D02*
X14839229Y-11899698D01*
X14839229Y-11899698D02*
X14829705Y-11909222D01*
X14829705Y-11909222D02*
X14820182Y-11899698D01*
X14820182Y-11899698D02*
X14829705Y-11890174D01*
X14829705Y-11890174D02*
X14829705Y-11909222D01*
D12*
X13047500Y-12267500D02*
X13197500Y-12417500D01*
X13197500Y-12267500D02*
X13047500Y-12417500D01*
D11*
X13563039Y-12433984D02*
X13448753Y-12433984D01*
X13505896Y-12433984D02*
X13505896Y-12233984D01*
X13505896Y-12233984D02*
X13486848Y-12262555D01*
X13486848Y-12262555D02*
X13467801Y-12281603D01*
X13467801Y-12281603D02*
X13448753Y-12291127D01*
X13648753Y-12414936D02*
X13658277Y-12424460D01*
X13658277Y-12424460D02*
X13648753Y-12433984D01*
X13648753Y-12433984D02*
X13639229Y-12424460D01*
X13639229Y-12424460D02*
X13648753Y-12414936D01*
X13648753Y-12414936D02*
X13648753Y-12433984D01*
X13839229Y-12233984D02*
X13743991Y-12233984D01*
X13743991Y-12233984D02*
X13734467Y-12329222D01*
X13734467Y-12329222D02*
X13743991Y-12319698D01*
X13743991Y-12319698D02*
X13763039Y-12310174D01*
X13763039Y-12310174D02*
X13810658Y-12310174D01*
X13810658Y-12310174D02*
X13829705Y-12319698D01*
X13829705Y-12319698D02*
X13839229Y-12329222D01*
X13839229Y-12329222D02*
X13848753Y-12348269D01*
X13848753Y-12348269D02*
X13848753Y-12395888D01*
X13848753Y-12395888D02*
X13839229Y-12414936D01*
X13839229Y-12414936D02*
X13829705Y-12424460D01*
X13829705Y-12424460D02*
X13810658Y-12433984D01*
X13810658Y-12433984D02*
X13763039Y-12433984D01*
X13763039Y-12433984D02*
X13743991Y-12424460D01*
X13743991Y-12424460D02*
X13734467Y-12414936D01*
X13972562Y-12233984D02*
X13991610Y-12233984D01*
X13991610Y-12233984D02*
X14010658Y-12243508D01*
X14010658Y-12243508D02*
X14020182Y-12253031D01*
X14020182Y-12253031D02*
X14029705Y-12272079D01*
X14029705Y-12272079D02*
X14039229Y-12310174D01*
X14039229Y-12310174D02*
X14039229Y-12357793D01*
X14039229Y-12357793D02*
X14029705Y-12395888D01*
X14029705Y-12395888D02*
X14020182Y-12414936D01*
X14020182Y-12414936D02*
X14010658Y-12424460D01*
X14010658Y-12424460D02*
X13991610Y-12433984D01*
X13991610Y-12433984D02*
X13972562Y-12433984D01*
X13972562Y-12433984D02*
X13953515Y-12424460D01*
X13953515Y-12424460D02*
X13943991Y-12414936D01*
X13943991Y-12414936D02*
X13934467Y-12395888D01*
X13934467Y-12395888D02*
X13924943Y-12357793D01*
X13924943Y-12357793D02*
X13924943Y-12310174D01*
X13924943Y-12310174D02*
X13934467Y-12272079D01*
X13934467Y-12272079D02*
X13943991Y-12253031D01*
X13943991Y-12253031D02*
X13953515Y-12243508D01*
X13953515Y-12243508D02*
X13972562Y-12233984D01*
X14163039Y-12233984D02*
X14182086Y-12233984D01*
X14182086Y-12233984D02*
X14201134Y-12243508D01*
X14201134Y-12243508D02*
X14210658Y-12253031D01*
X14210658Y-12253031D02*
X14220182Y-12272079D01*
X14220182Y-12272079D02*
X14229705Y-12310174D01*
X14229705Y-12310174D02*
X14229705Y-12357793D01*
X14229705Y-12357793D02*
X14220182Y-12395888D01*
X14220182Y-12395888D02*
X14210658Y-12414936D01*
X14210658Y-12414936D02*
X14201134Y-12424460D01*
X14201134Y-12424460D02*
X14182086Y-12433984D01*
X14182086Y-12433984D02*
X14163039Y-12433984D01*
X14163039Y-12433984D02*
X14143991Y-12424460D01*
X14143991Y-12424460D02*
X14134467Y-12414936D01*
X14134467Y-12414936D02*
X14124943Y-12395888D01*
X14124943Y-12395888D02*
X14115420Y-12357793D01*
X14115420Y-12357793D02*
X14115420Y-12310174D01*
X14115420Y-12310174D02*
X14124943Y-12272079D01*
X14124943Y-12272079D02*
X14134467Y-12253031D01*
X14134467Y-12253031D02*
X14143991Y-12243508D01*
X14143991Y-12243508D02*
X14163039Y-12233984D01*
X14315420Y-12433984D02*
X14315420Y-12300650D01*
X14315420Y-12319698D02*
X14324943Y-12310174D01*
X14324943Y-12310174D02*
X14343991Y-12300650D01*
X14343991Y-12300650D02*
X14372563Y-12300650D01*
X14372563Y-12300650D02*
X14391610Y-12310174D01*
X14391610Y-12310174D02*
X14401134Y-12329222D01*
X14401134Y-12329222D02*
X14401134Y-12433984D01*
X14401134Y-12329222D02*
X14410658Y-12310174D01*
X14410658Y-12310174D02*
X14429705Y-12300650D01*
X14429705Y-12300650D02*
X14458277Y-12300650D01*
X14458277Y-12300650D02*
X14477324Y-12310174D01*
X14477324Y-12310174D02*
X14486848Y-12329222D01*
X14486848Y-12329222D02*
X14486848Y-12433984D01*
X14582086Y-12433984D02*
X14582086Y-12300650D01*
X14582086Y-12319698D02*
X14591610Y-12310174D01*
X14591610Y-12310174D02*
X14610658Y-12300650D01*
X14610658Y-12300650D02*
X14639229Y-12300650D01*
X14639229Y-12300650D02*
X14658277Y-12310174D01*
X14658277Y-12310174D02*
X14667801Y-12329222D01*
X14667801Y-12329222D02*
X14667801Y-12433984D01*
X14667801Y-12329222D02*
X14677324Y-12310174D01*
X14677324Y-12310174D02*
X14696372Y-12300650D01*
X14696372Y-12300650D02*
X14724943Y-12300650D01*
X14724943Y-12300650D02*
X14743991Y-12310174D01*
X14743991Y-12310174D02*
X14753515Y-12329222D01*
X14753515Y-12329222D02*
X14753515Y-12433984D01*
X15143991Y-12224460D02*
X14972563Y-12481603D01*
X15401134Y-12233984D02*
X15420182Y-12233984D01*
X15420182Y-12233984D02*
X15439229Y-12243508D01*
X15439229Y-12243508D02*
X15448753Y-12253031D01*
X15448753Y-12253031D02*
X15458277Y-12272079D01*
X15458277Y-12272079D02*
X15467801Y-12310174D01*
X15467801Y-12310174D02*
X15467801Y-12357793D01*
X15467801Y-12357793D02*
X15458277Y-12395888D01*
X15458277Y-12395888D02*
X15448753Y-12414936D01*
X15448753Y-12414936D02*
X15439229Y-12424460D01*
X15439229Y-12424460D02*
X15420182Y-12433984D01*
X15420182Y-12433984D02*
X15401134Y-12433984D01*
X15401134Y-12433984D02*
X15382086Y-12424460D01*
X15382086Y-12424460D02*
X15372563Y-12414936D01*
X15372563Y-12414936D02*
X15363039Y-12395888D01*
X15363039Y-12395888D02*
X15353515Y-12357793D01*
X15353515Y-12357793D02*
X15353515Y-12310174D01*
X15353515Y-12310174D02*
X15363039Y-12272079D01*
X15363039Y-12272079D02*
X15372563Y-12253031D01*
X15372563Y-12253031D02*
X15382086Y-12243508D01*
X15382086Y-12243508D02*
X15401134Y-12233984D01*
X15553515Y-12414936D02*
X15563039Y-12424460D01*
X15563039Y-12424460D02*
X15553515Y-12433984D01*
X15553515Y-12433984D02*
X15543991Y-12424460D01*
X15543991Y-12424460D02*
X15553515Y-12414936D01*
X15553515Y-12414936D02*
X15553515Y-12433984D01*
X15686848Y-12233984D02*
X15705896Y-12233984D01*
X15705896Y-12233984D02*
X15724944Y-12243508D01*
X15724944Y-12243508D02*
X15734467Y-12253031D01*
X15734467Y-12253031D02*
X15743991Y-12272079D01*
X15743991Y-12272079D02*
X15753515Y-12310174D01*
X15753515Y-12310174D02*
X15753515Y-12357793D01*
X15753515Y-12357793D02*
X15743991Y-12395888D01*
X15743991Y-12395888D02*
X15734467Y-12414936D01*
X15734467Y-12414936D02*
X15724944Y-12424460D01*
X15724944Y-12424460D02*
X15705896Y-12433984D01*
X15705896Y-12433984D02*
X15686848Y-12433984D01*
X15686848Y-12433984D02*
X15667801Y-12424460D01*
X15667801Y-12424460D02*
X15658277Y-12414936D01*
X15658277Y-12414936D02*
X15648753Y-12395888D01*
X15648753Y-12395888D02*
X15639229Y-12357793D01*
X15639229Y-12357793D02*
X15639229Y-12310174D01*
X15639229Y-12310174D02*
X15648753Y-12272079D01*
X15648753Y-12272079D02*
X15658277Y-12253031D01*
X15658277Y-12253031D02*
X15667801Y-12243508D01*
X15667801Y-12243508D02*
X15686848Y-12233984D01*
X15934467Y-12233984D02*
X15839229Y-12233984D01*
X15839229Y-12233984D02*
X15829706Y-12329222D01*
X15829706Y-12329222D02*
X15839229Y-12319698D01*
X15839229Y-12319698D02*
X15858277Y-12310174D01*
X15858277Y-12310174D02*
X15905896Y-12310174D01*
X15905896Y-12310174D02*
X15924944Y-12319698D01*
X15924944Y-12319698D02*
X15934467Y-12329222D01*
X15934467Y-12329222D02*
X15943991Y-12348269D01*
X15943991Y-12348269D02*
X15943991Y-12395888D01*
X15943991Y-12395888D02*
X15934467Y-12414936D01*
X15934467Y-12414936D02*
X15924944Y-12424460D01*
X15924944Y-12424460D02*
X15905896Y-12433984D01*
X15905896Y-12433984D02*
X15858277Y-12433984D01*
X15858277Y-12433984D02*
X15839229Y-12424460D01*
X15839229Y-12424460D02*
X15829706Y-12414936D01*
X16039229Y-12433984D02*
X16077325Y-12433984D01*
X16077325Y-12433984D02*
X16096372Y-12424460D01*
X16096372Y-12424460D02*
X16105896Y-12414936D01*
X16105896Y-12414936D02*
X16124944Y-12386365D01*
X16124944Y-12386365D02*
X16134467Y-12348269D01*
X16134467Y-12348269D02*
X16134467Y-12272079D01*
X16134467Y-12272079D02*
X16124944Y-12253031D01*
X16124944Y-12253031D02*
X16115420Y-12243508D01*
X16115420Y-12243508D02*
X16096372Y-12233984D01*
X16096372Y-12233984D02*
X16058277Y-12233984D01*
X16058277Y-12233984D02*
X16039229Y-12243508D01*
X16039229Y-12243508D02*
X16029706Y-12253031D01*
X16029706Y-12253031D02*
X16020182Y-12272079D01*
X16020182Y-12272079D02*
X16020182Y-12319698D01*
X16020182Y-12319698D02*
X16029706Y-12338746D01*
X16029706Y-12338746D02*
X16039229Y-12348269D01*
X16039229Y-12348269D02*
X16058277Y-12357793D01*
X16058277Y-12357793D02*
X16096372Y-12357793D01*
X16096372Y-12357793D02*
X16115420Y-12348269D01*
X16115420Y-12348269D02*
X16124944Y-12338746D01*
X16124944Y-12338746D02*
X16134467Y-12319698D01*
X16324944Y-12433984D02*
X16210658Y-12433984D01*
X16267801Y-12433984D02*
X16267801Y-12233984D01*
X16267801Y-12233984D02*
X16248753Y-12262555D01*
X16248753Y-12262555D02*
X16229706Y-12281603D01*
X16229706Y-12281603D02*
X16210658Y-12291127D01*
X16401134Y-12233984D02*
X16401134Y-12272079D01*
X16477325Y-12233984D02*
X16477325Y-12272079D01*
X16772563Y-12510174D02*
X16763039Y-12500650D01*
X16763039Y-12500650D02*
X16743991Y-12472079D01*
X16743991Y-12472079D02*
X16734468Y-12453031D01*
X16734468Y-12453031D02*
X16724944Y-12424460D01*
X16724944Y-12424460D02*
X16715420Y-12376841D01*
X16715420Y-12376841D02*
X16715420Y-12338746D01*
X16715420Y-12338746D02*
X16724944Y-12291127D01*
X16724944Y-12291127D02*
X16734468Y-12262555D01*
X16734468Y-12262555D02*
X16743991Y-12243508D01*
X16743991Y-12243508D02*
X16763039Y-12214936D01*
X16763039Y-12214936D02*
X16772563Y-12205412D01*
X16839230Y-12253031D02*
X16848753Y-12243508D01*
X16848753Y-12243508D02*
X16867801Y-12233984D01*
X16867801Y-12233984D02*
X16915420Y-12233984D01*
X16915420Y-12233984D02*
X16934468Y-12243508D01*
X16934468Y-12243508D02*
X16943991Y-12253031D01*
X16943991Y-12253031D02*
X16953515Y-12272079D01*
X16953515Y-12272079D02*
X16953515Y-12291127D01*
X16953515Y-12291127D02*
X16943991Y-12319698D01*
X16943991Y-12319698D02*
X16829706Y-12433984D01*
X16829706Y-12433984D02*
X16953515Y-12433984D01*
X17191611Y-12433984D02*
X17191611Y-12233984D01*
X17277325Y-12433984D02*
X17277325Y-12329222D01*
X17277325Y-12329222D02*
X17267801Y-12310174D01*
X17267801Y-12310174D02*
X17248753Y-12300650D01*
X17248753Y-12300650D02*
X17220182Y-12300650D01*
X17220182Y-12300650D02*
X17201134Y-12310174D01*
X17201134Y-12310174D02*
X17191611Y-12319698D01*
X17401134Y-12433984D02*
X17382087Y-12424460D01*
X17382087Y-12424460D02*
X17372563Y-12414936D01*
X17372563Y-12414936D02*
X17363039Y-12395888D01*
X17363039Y-12395888D02*
X17363039Y-12338746D01*
X17363039Y-12338746D02*
X17372563Y-12319698D01*
X17372563Y-12319698D02*
X17382087Y-12310174D01*
X17382087Y-12310174D02*
X17401134Y-12300650D01*
X17401134Y-12300650D02*
X17429706Y-12300650D01*
X17429706Y-12300650D02*
X17448753Y-12310174D01*
X17448753Y-12310174D02*
X17458277Y-12319698D01*
X17458277Y-12319698D02*
X17467801Y-12338746D01*
X17467801Y-12338746D02*
X17467801Y-12395888D01*
X17467801Y-12395888D02*
X17458277Y-12414936D01*
X17458277Y-12414936D02*
X17448753Y-12424460D01*
X17448753Y-12424460D02*
X17429706Y-12433984D01*
X17429706Y-12433984D02*
X17401134Y-12433984D01*
X17582087Y-12433984D02*
X17563039Y-12424460D01*
X17563039Y-12424460D02*
X17553515Y-12405412D01*
X17553515Y-12405412D02*
X17553515Y-12233984D01*
X17734468Y-12424460D02*
X17715420Y-12433984D01*
X17715420Y-12433984D02*
X17677325Y-12433984D01*
X17677325Y-12433984D02*
X17658277Y-12424460D01*
X17658277Y-12424460D02*
X17648753Y-12405412D01*
X17648753Y-12405412D02*
X17648753Y-12329222D01*
X17648753Y-12329222D02*
X17658277Y-12310174D01*
X17658277Y-12310174D02*
X17677325Y-12300650D01*
X17677325Y-12300650D02*
X17715420Y-12300650D01*
X17715420Y-12300650D02*
X17734468Y-12310174D01*
X17734468Y-12310174D02*
X17743992Y-12329222D01*
X17743992Y-12329222D02*
X17743992Y-12348269D01*
X17743992Y-12348269D02*
X17648753Y-12367317D01*
X17820182Y-12424460D02*
X17839230Y-12433984D01*
X17839230Y-12433984D02*
X17877325Y-12433984D01*
X17877325Y-12433984D02*
X17896373Y-12424460D01*
X17896373Y-12424460D02*
X17905896Y-12405412D01*
X17905896Y-12405412D02*
X17905896Y-12395888D01*
X17905896Y-12395888D02*
X17896373Y-12376841D01*
X17896373Y-12376841D02*
X17877325Y-12367317D01*
X17877325Y-12367317D02*
X17848753Y-12367317D01*
X17848753Y-12367317D02*
X17829706Y-12357793D01*
X17829706Y-12357793D02*
X17820182Y-12338746D01*
X17820182Y-12338746D02*
X17820182Y-12329222D01*
X17820182Y-12329222D02*
X17829706Y-12310174D01*
X17829706Y-12310174D02*
X17848753Y-12300650D01*
X17848753Y-12300650D02*
X17877325Y-12300650D01*
X17877325Y-12300650D02*
X17896373Y-12310174D01*
X17972563Y-12510174D02*
X17982087Y-12500650D01*
X17982087Y-12500650D02*
X18001134Y-12472079D01*
X18001134Y-12472079D02*
X18010658Y-12453031D01*
X18010658Y-12453031D02*
X18020182Y-12424460D01*
X18020182Y-12424460D02*
X18029706Y-12376841D01*
X18029706Y-12376841D02*
X18029706Y-12338746D01*
X18029706Y-12338746D02*
X18020182Y-12291127D01*
X18020182Y-12291127D02*
X18010658Y-12262555D01*
X18010658Y-12262555D02*
X18001134Y-12243508D01*
X18001134Y-12243508D02*
X17982087Y-12214936D01*
X17982087Y-12214936D02*
X17972563Y-12205412D01*
X13197500Y-12612500D02*
G75*
G02*
X12997500Y-12612500I-100000J0D01*
G01*
X12997500Y-12612500D02*
G75*
G02*
X13197500Y-12612500I100000J0D01*
G01*
X13543991Y-12570650D02*
X13543991Y-12703984D01*
X13496372Y-12494460D02*
X13448753Y-12637317D01*
X13448753Y-12637317D02*
X13572562Y-12637317D01*
X13648753Y-12684936D02*
X13658277Y-12694460D01*
X13658277Y-12694460D02*
X13648753Y-12703984D01*
X13648753Y-12703984D02*
X13639229Y-12694460D01*
X13639229Y-12694460D02*
X13648753Y-12684936D01*
X13648753Y-12684936D02*
X13648753Y-12703984D01*
X13782086Y-12503984D02*
X13801134Y-12503984D01*
X13801134Y-12503984D02*
X13820182Y-12513508D01*
X13820182Y-12513508D02*
X13829705Y-12523031D01*
X13829705Y-12523031D02*
X13839229Y-12542079D01*
X13839229Y-12542079D02*
X13848753Y-12580174D01*
X13848753Y-12580174D02*
X13848753Y-12627793D01*
X13848753Y-12627793D02*
X13839229Y-12665888D01*
X13839229Y-12665888D02*
X13829705Y-12684936D01*
X13829705Y-12684936D02*
X13820182Y-12694460D01*
X13820182Y-12694460D02*
X13801134Y-12703984D01*
X13801134Y-12703984D02*
X13782086Y-12703984D01*
X13782086Y-12703984D02*
X13763039Y-12694460D01*
X13763039Y-12694460D02*
X13753515Y-12684936D01*
X13753515Y-12684936D02*
X13743991Y-12665888D01*
X13743991Y-12665888D02*
X13734467Y-12627793D01*
X13734467Y-12627793D02*
X13734467Y-12580174D01*
X13734467Y-12580174D02*
X13743991Y-12542079D01*
X13743991Y-12542079D02*
X13753515Y-12523031D01*
X13753515Y-12523031D02*
X13763039Y-12513508D01*
X13763039Y-12513508D02*
X13782086Y-12503984D01*
X13972562Y-12503984D02*
X13991610Y-12503984D01*
X13991610Y-12503984D02*
X14010658Y-12513508D01*
X14010658Y-12513508D02*
X14020182Y-12523031D01*
X14020182Y-12523031D02*
X14029705Y-12542079D01*
X14029705Y-12542079D02*
X14039229Y-12580174D01*
X14039229Y-12580174D02*
X14039229Y-12627793D01*
X14039229Y-12627793D02*
X14029705Y-12665888D01*
X14029705Y-12665888D02*
X14020182Y-12684936D01*
X14020182Y-12684936D02*
X14010658Y-12694460D01*
X14010658Y-12694460D02*
X13991610Y-12703984D01*
X13991610Y-12703984D02*
X13972562Y-12703984D01*
X13972562Y-12703984D02*
X13953515Y-12694460D01*
X13953515Y-12694460D02*
X13943991Y-12684936D01*
X13943991Y-12684936D02*
X13934467Y-12665888D01*
X13934467Y-12665888D02*
X13924943Y-12627793D01*
X13924943Y-12627793D02*
X13924943Y-12580174D01*
X13924943Y-12580174D02*
X13934467Y-12542079D01*
X13934467Y-12542079D02*
X13943991Y-12523031D01*
X13943991Y-12523031D02*
X13953515Y-12513508D01*
X13953515Y-12513508D02*
X13972562Y-12503984D01*
X14163039Y-12503984D02*
X14182086Y-12503984D01*
X14182086Y-12503984D02*
X14201134Y-12513508D01*
X14201134Y-12513508D02*
X14210658Y-12523031D01*
X14210658Y-12523031D02*
X14220182Y-12542079D01*
X14220182Y-12542079D02*
X14229705Y-12580174D01*
X14229705Y-12580174D02*
X14229705Y-12627793D01*
X14229705Y-12627793D02*
X14220182Y-12665888D01*
X14220182Y-12665888D02*
X14210658Y-12684936D01*
X14210658Y-12684936D02*
X14201134Y-12694460D01*
X14201134Y-12694460D02*
X14182086Y-12703984D01*
X14182086Y-12703984D02*
X14163039Y-12703984D01*
X14163039Y-12703984D02*
X14143991Y-12694460D01*
X14143991Y-12694460D02*
X14134467Y-12684936D01*
X14134467Y-12684936D02*
X14124943Y-12665888D01*
X14124943Y-12665888D02*
X14115420Y-12627793D01*
X14115420Y-12627793D02*
X14115420Y-12580174D01*
X14115420Y-12580174D02*
X14124943Y-12542079D01*
X14124943Y-12542079D02*
X14134467Y-12523031D01*
X14134467Y-12523031D02*
X14143991Y-12513508D01*
X14143991Y-12513508D02*
X14163039Y-12503984D01*
X14315420Y-12703984D02*
X14315420Y-12570650D01*
X14315420Y-12589698D02*
X14324943Y-12580174D01*
X14324943Y-12580174D02*
X14343991Y-12570650D01*
X14343991Y-12570650D02*
X14372563Y-12570650D01*
X14372563Y-12570650D02*
X14391610Y-12580174D01*
X14391610Y-12580174D02*
X14401134Y-12599222D01*
X14401134Y-12599222D02*
X14401134Y-12703984D01*
X14401134Y-12599222D02*
X14410658Y-12580174D01*
X14410658Y-12580174D02*
X14429705Y-12570650D01*
X14429705Y-12570650D02*
X14458277Y-12570650D01*
X14458277Y-12570650D02*
X14477324Y-12580174D01*
X14477324Y-12580174D02*
X14486848Y-12599222D01*
X14486848Y-12599222D02*
X14486848Y-12703984D01*
X14582086Y-12703984D02*
X14582086Y-12570650D01*
X14582086Y-12589698D02*
X14591610Y-12580174D01*
X14591610Y-12580174D02*
X14610658Y-12570650D01*
X14610658Y-12570650D02*
X14639229Y-12570650D01*
X14639229Y-12570650D02*
X14658277Y-12580174D01*
X14658277Y-12580174D02*
X14667801Y-12599222D01*
X14667801Y-12599222D02*
X14667801Y-12703984D01*
X14667801Y-12599222D02*
X14677324Y-12580174D01*
X14677324Y-12580174D02*
X14696372Y-12570650D01*
X14696372Y-12570650D02*
X14724943Y-12570650D01*
X14724943Y-12570650D02*
X14743991Y-12580174D01*
X14743991Y-12580174D02*
X14753515Y-12599222D01*
X14753515Y-12599222D02*
X14753515Y-12703984D01*
X15143991Y-12494460D02*
X14972563Y-12751603D01*
X15401134Y-12503984D02*
X15420182Y-12503984D01*
X15420182Y-12503984D02*
X15439229Y-12513508D01*
X15439229Y-12513508D02*
X15448753Y-12523031D01*
X15448753Y-12523031D02*
X15458277Y-12542079D01*
X15458277Y-12542079D02*
X15467801Y-12580174D01*
X15467801Y-12580174D02*
X15467801Y-12627793D01*
X15467801Y-12627793D02*
X15458277Y-12665888D01*
X15458277Y-12665888D02*
X15448753Y-12684936D01*
X15448753Y-12684936D02*
X15439229Y-12694460D01*
X15439229Y-12694460D02*
X15420182Y-12703984D01*
X15420182Y-12703984D02*
X15401134Y-12703984D01*
X15401134Y-12703984D02*
X15382086Y-12694460D01*
X15382086Y-12694460D02*
X15372563Y-12684936D01*
X15372563Y-12684936D02*
X15363039Y-12665888D01*
X15363039Y-12665888D02*
X15353515Y-12627793D01*
X15353515Y-12627793D02*
X15353515Y-12580174D01*
X15353515Y-12580174D02*
X15363039Y-12542079D01*
X15363039Y-12542079D02*
X15372563Y-12523031D01*
X15372563Y-12523031D02*
X15382086Y-12513508D01*
X15382086Y-12513508D02*
X15401134Y-12503984D01*
X15553515Y-12684936D02*
X15563039Y-12694460D01*
X15563039Y-12694460D02*
X15553515Y-12703984D01*
X15553515Y-12703984D02*
X15543991Y-12694460D01*
X15543991Y-12694460D02*
X15553515Y-12684936D01*
X15553515Y-12684936D02*
X15553515Y-12703984D01*
X15753515Y-12703984D02*
X15639229Y-12703984D01*
X15696372Y-12703984D02*
X15696372Y-12503984D01*
X15696372Y-12503984D02*
X15677325Y-12532555D01*
X15677325Y-12532555D02*
X15658277Y-12551603D01*
X15658277Y-12551603D02*
X15639229Y-12561127D01*
X15934467Y-12503984D02*
X15839229Y-12503984D01*
X15839229Y-12503984D02*
X15829706Y-12599222D01*
X15829706Y-12599222D02*
X15839229Y-12589698D01*
X15839229Y-12589698D02*
X15858277Y-12580174D01*
X15858277Y-12580174D02*
X15905896Y-12580174D01*
X15905896Y-12580174D02*
X15924944Y-12589698D01*
X15924944Y-12589698D02*
X15934467Y-12599222D01*
X15934467Y-12599222D02*
X15943991Y-12618269D01*
X15943991Y-12618269D02*
X15943991Y-12665888D01*
X15943991Y-12665888D02*
X15934467Y-12684936D01*
X15934467Y-12684936D02*
X15924944Y-12694460D01*
X15924944Y-12694460D02*
X15905896Y-12703984D01*
X15905896Y-12703984D02*
X15858277Y-12703984D01*
X15858277Y-12703984D02*
X15839229Y-12694460D01*
X15839229Y-12694460D02*
X15829706Y-12684936D01*
X16010658Y-12503984D02*
X16143991Y-12503984D01*
X16143991Y-12503984D02*
X16058277Y-12703984D01*
X16315420Y-12503984D02*
X16220182Y-12503984D01*
X16220182Y-12503984D02*
X16210658Y-12599222D01*
X16210658Y-12599222D02*
X16220182Y-12589698D01*
X16220182Y-12589698D02*
X16239229Y-12580174D01*
X16239229Y-12580174D02*
X16286848Y-12580174D01*
X16286848Y-12580174D02*
X16305896Y-12589698D01*
X16305896Y-12589698D02*
X16315420Y-12599222D01*
X16315420Y-12599222D02*
X16324944Y-12618269D01*
X16324944Y-12618269D02*
X16324944Y-12665888D01*
X16324944Y-12665888D02*
X16315420Y-12684936D01*
X16315420Y-12684936D02*
X16305896Y-12694460D01*
X16305896Y-12694460D02*
X16286848Y-12703984D01*
X16286848Y-12703984D02*
X16239229Y-12703984D01*
X16239229Y-12703984D02*
X16220182Y-12694460D01*
X16220182Y-12694460D02*
X16210658Y-12684936D01*
X16401134Y-12503984D02*
X16401134Y-12542079D01*
X16477325Y-12503984D02*
X16477325Y-12542079D01*
X16772563Y-12780174D02*
X16763039Y-12770650D01*
X16763039Y-12770650D02*
X16743991Y-12742079D01*
X16743991Y-12742079D02*
X16734468Y-12723031D01*
X16734468Y-12723031D02*
X16724944Y-12694460D01*
X16724944Y-12694460D02*
X16715420Y-12646841D01*
X16715420Y-12646841D02*
X16715420Y-12608746D01*
X16715420Y-12608746D02*
X16724944Y-12561127D01*
X16724944Y-12561127D02*
X16734468Y-12532555D01*
X16734468Y-12532555D02*
X16743991Y-12513508D01*
X16743991Y-12513508D02*
X16763039Y-12484936D01*
X16763039Y-12484936D02*
X16772563Y-12475412D01*
X16953515Y-12703984D02*
X16839230Y-12703984D01*
X16896372Y-12703984D02*
X16896372Y-12503984D01*
X16896372Y-12503984D02*
X16877325Y-12532555D01*
X16877325Y-12532555D02*
X16858277Y-12551603D01*
X16858277Y-12551603D02*
X16839230Y-12561127D01*
X17191611Y-12703984D02*
X17191611Y-12503984D01*
X17277325Y-12703984D02*
X17277325Y-12599222D01*
X17277325Y-12599222D02*
X17267801Y-12580174D01*
X17267801Y-12580174D02*
X17248753Y-12570650D01*
X17248753Y-12570650D02*
X17220182Y-12570650D01*
X17220182Y-12570650D02*
X17201134Y-12580174D01*
X17201134Y-12580174D02*
X17191611Y-12589698D01*
X17401134Y-12703984D02*
X17382087Y-12694460D01*
X17382087Y-12694460D02*
X17372563Y-12684936D01*
X17372563Y-12684936D02*
X17363039Y-12665888D01*
X17363039Y-12665888D02*
X17363039Y-12608746D01*
X17363039Y-12608746D02*
X17372563Y-12589698D01*
X17372563Y-12589698D02*
X17382087Y-12580174D01*
X17382087Y-12580174D02*
X17401134Y-12570650D01*
X17401134Y-12570650D02*
X17429706Y-12570650D01*
X17429706Y-12570650D02*
X17448753Y-12580174D01*
X17448753Y-12580174D02*
X17458277Y-12589698D01*
X17458277Y-12589698D02*
X17467801Y-12608746D01*
X17467801Y-12608746D02*
X17467801Y-12665888D01*
X17467801Y-12665888D02*
X17458277Y-12684936D01*
X17458277Y-12684936D02*
X17448753Y-12694460D01*
X17448753Y-12694460D02*
X17429706Y-12703984D01*
X17429706Y-12703984D02*
X17401134Y-12703984D01*
X17582087Y-12703984D02*
X17563039Y-12694460D01*
X17563039Y-12694460D02*
X17553515Y-12675412D01*
X17553515Y-12675412D02*
X17553515Y-12503984D01*
X17734468Y-12694460D02*
X17715420Y-12703984D01*
X17715420Y-12703984D02*
X17677325Y-12703984D01*
X17677325Y-12703984D02*
X17658277Y-12694460D01*
X17658277Y-12694460D02*
X17648753Y-12675412D01*
X17648753Y-12675412D02*
X17648753Y-12599222D01*
X17648753Y-12599222D02*
X17658277Y-12580174D01*
X17658277Y-12580174D02*
X17677325Y-12570650D01*
X17677325Y-12570650D02*
X17715420Y-12570650D01*
X17715420Y-12570650D02*
X17734468Y-12580174D01*
X17734468Y-12580174D02*
X17743992Y-12599222D01*
X17743992Y-12599222D02*
X17743992Y-12618269D01*
X17743992Y-12618269D02*
X17648753Y-12637317D01*
X17810658Y-12780174D02*
X17820182Y-12770650D01*
X17820182Y-12770650D02*
X17839230Y-12742079D01*
X17839230Y-12742079D02*
X17848753Y-12723031D01*
X17848753Y-12723031D02*
X17858277Y-12694460D01*
X17858277Y-12694460D02*
X17867801Y-12646841D01*
X17867801Y-12646841D02*
X17867801Y-12608746D01*
X17867801Y-12608746D02*
X17858277Y-12561127D01*
X17858277Y-12561127D02*
X17848753Y-12532555D01*
X17848753Y-12532555D02*
X17839230Y-12513508D01*
X17839230Y-12513508D02*
X17820182Y-12484936D01*
X17820182Y-12484936D02*
X17810658Y-12475412D01*
M02*
