%TF.GenerationSoftware,KiCad,Pcbnew,8.0.6*%
%TF.CreationDate,2024-12-06T21:46:26+09:00*%
%TF.ProjectId,dummy_keyboard,64756d6d-795f-46b6-9579-626f6172642e,rev?*%
%TF.SameCoordinates,Original*%
%TF.FileFunction,Legend,Top*%
%TF.FilePolarity,Positive*%
%FSLAX46Y46*%
G04 Gerber Fmt 4.6, Leading zero omitted, Abs format (unit mm)*
G04 Created by KiCad (PCBNEW 8.0.6) date 2024-12-06 21:46:26*
%MOMM*%
%LPD*%
G01*
G04 APERTURE LIST*
%ADD10C,0.200000*%
%ADD11C,0.300000*%
%ADD12C,0.000000*%
%ADD13C,0.120000*%
G04 APERTURE END LIST*
D10*
X180000000Y-116000000D02*
X134000000Y-116000000D01*
X134000000Y-116000000D02*
G75*
G02*
X133000000Y-115000000I0J1000000D01*
G01*
X133000000Y-94000000D02*
G75*
G02*
X134000000Y-93000000I1000000J0D01*
G01*
X181000000Y-94000000D02*
X181000000Y-115000000D01*
X181000000Y-115000000D02*
G75*
G02*
X180000000Y-116000000I-1000000J0D01*
G01*
X133000000Y-115000000D02*
X133000000Y-94000000D01*
X180000000Y-93000000D02*
G75*
G02*
X181000000Y-94000000I0J-1000000D01*
G01*
X134000000Y-93000000D02*
X180000000Y-93000000D01*
D11*
G36*
X156541399Y-111055781D02*
G01*
X156541399Y-111424344D01*
X157178873Y-111424344D01*
X157178873Y-111682264D01*
X156250140Y-111682264D01*
X156250140Y-110791266D01*
X157159822Y-110791266D01*
X157159822Y-111055781D01*
X156541399Y-111055781D01*
G37*
G36*
X157733915Y-111846395D02*
G01*
X157733915Y-112098820D01*
X157727137Y-112175757D01*
X157715597Y-112248297D01*
X157698891Y-112322395D01*
X157684456Y-112372494D01*
X157663207Y-112430746D01*
X157639393Y-112494494D01*
X157350331Y-112494494D01*
X157381936Y-112428039D01*
X157407433Y-112358572D01*
X157412247Y-112341353D01*
X157429017Y-112269277D01*
X157437893Y-112218988D01*
X157444487Y-112158171D01*
X157446685Y-112110177D01*
X156444313Y-112110177D01*
X156444313Y-111846395D01*
X157733915Y-111846395D01*
G37*
G36*
X157733915Y-110680258D02*
G01*
X157733915Y-111729159D01*
X157431664Y-111729159D01*
X157431664Y-111354002D01*
X157178507Y-111354002D01*
X157178507Y-111072634D01*
X157431664Y-111072634D01*
X157431664Y-110680258D01*
X157733915Y-110680258D01*
G37*
G36*
X159270639Y-111862807D02*
G01*
X159306350Y-111870942D01*
X159375593Y-111900892D01*
X159395743Y-111914905D01*
X159446136Y-111971461D01*
X159456560Y-111990743D01*
X159477140Y-112063766D01*
X159478908Y-112096256D01*
X159478908Y-112266981D01*
X159466331Y-112340041D01*
X159459857Y-112356008D01*
X159420546Y-112418668D01*
X159408932Y-112431479D01*
X159348914Y-112475981D01*
X159332729Y-112483503D01*
X159259438Y-112501642D01*
X159237474Y-112502554D01*
X158405827Y-112502554D01*
X158331569Y-112493177D01*
X158262752Y-112461856D01*
X158230705Y-112435875D01*
X158186110Y-112374081D01*
X158165124Y-112303515D01*
X158161828Y-112256357D01*
X158161828Y-112157438D01*
X158459682Y-112157438D01*
X158459682Y-112228879D01*
X158478367Y-112264050D01*
X158536619Y-112274309D01*
X159146615Y-112274309D01*
X159206465Y-112228907D01*
X159206699Y-112222651D01*
X159206699Y-112159270D01*
X159188015Y-112122634D01*
X159144417Y-112105781D01*
X158536619Y-112105781D01*
X158470673Y-112123000D01*
X158459682Y-112157438D01*
X158161828Y-112157438D01*
X158161828Y-112108712D01*
X158170451Y-112035940D01*
X158203561Y-111965049D01*
X158250122Y-111919668D01*
X158317007Y-111883792D01*
X158388104Y-111864099D01*
X158469005Y-111856715D01*
X158477634Y-111856653D01*
X159197174Y-111856653D01*
X159270639Y-111862807D01*
G37*
G36*
X159491731Y-111752606D02*
G01*
X159191678Y-111752606D01*
X159191678Y-111565027D01*
X158940719Y-111565027D01*
X158940719Y-111330554D01*
X159191678Y-111330554D01*
X159191678Y-111142976D01*
X158942917Y-111142976D01*
X158942917Y-110885055D01*
X159191678Y-110885055D01*
X159191678Y-110669633D01*
X159491731Y-110669633D01*
X159491731Y-111752606D01*
G37*
G36*
X158575318Y-110760568D02*
G01*
X158623447Y-110775512D01*
X158688735Y-110811233D01*
X158721999Y-110839260D01*
X158769243Y-110898465D01*
X158787945Y-110934515D01*
X158808725Y-111005784D01*
X158812125Y-111051018D01*
X158812125Y-111342278D01*
X158803109Y-111418642D01*
X158789044Y-111461713D01*
X158753323Y-111525769D01*
X158725297Y-111558433D01*
X158667038Y-111604707D01*
X158632240Y-111623279D01*
X158559999Y-111644602D01*
X158519766Y-111647459D01*
X158249756Y-111647459D01*
X158176683Y-111638014D01*
X158134351Y-111623279D01*
X158070180Y-111586757D01*
X158036898Y-111558799D01*
X157989181Y-111498798D01*
X157969853Y-111462079D01*
X157948129Y-111389007D01*
X157944574Y-111342278D01*
X157944574Y-111102309D01*
X158217149Y-111102309D01*
X158217149Y-111279263D01*
X158242188Y-111348419D01*
X158252320Y-111358764D01*
X158321418Y-111389502D01*
X158336218Y-111390272D01*
X158431106Y-111390272D01*
X158502192Y-111366149D01*
X158510241Y-111358764D01*
X158541256Y-111291004D01*
X158541748Y-111279263D01*
X158541748Y-111102309D01*
X158517625Y-111031223D01*
X158510241Y-111023175D01*
X158442841Y-110992160D01*
X158431106Y-110991667D01*
X158336218Y-110991667D01*
X158263739Y-111014098D01*
X158252320Y-111023175D01*
X158217699Y-111090654D01*
X158217149Y-111102309D01*
X157944574Y-111102309D01*
X157944574Y-111074466D01*
X157953018Y-110998531D01*
X157966190Y-110953932D01*
X158000966Y-110886212D01*
X158028838Y-110851350D01*
X158085854Y-110802835D01*
X158125558Y-110779909D01*
X158196384Y-110756966D01*
X158249756Y-110752431D01*
X158498883Y-110752431D01*
X158575318Y-110760568D01*
G37*
G36*
X161157955Y-110744371D02*
G01*
X161157955Y-111009253D01*
X161156709Y-111088990D01*
X161152971Y-111167046D01*
X161146740Y-111243421D01*
X161142202Y-111285125D01*
X161132645Y-111358042D01*
X161120394Y-111435594D01*
X161106427Y-111509496D01*
X161101902Y-111530956D01*
X161084420Y-111605928D01*
X161063966Y-111681199D01*
X161047680Y-111733189D01*
X161021433Y-111806038D01*
X160990750Y-111876929D01*
X160986863Y-111884863D01*
X160681682Y-111884863D01*
X160709296Y-111810446D01*
X160733522Y-111738867D01*
X160756726Y-111661735D01*
X160771807Y-111604228D01*
X160790118Y-111525274D01*
X160805209Y-111449611D01*
X160817081Y-111377240D01*
X160819068Y-111363161D01*
X160828297Y-111288432D01*
X160834711Y-111212835D01*
X160837020Y-111160195D01*
X160837471Y-111084836D01*
X160834089Y-111023175D01*
X159847470Y-111023175D01*
X159847470Y-110744371D01*
X161157955Y-110744371D01*
G37*
G36*
X161348098Y-112234009D02*
G01*
X159691033Y-112234009D01*
X159691033Y-111963632D01*
X160296999Y-111963632D01*
X160296999Y-111471238D01*
X160601082Y-111471238D01*
X160601082Y-111963632D01*
X161348098Y-111963632D01*
X161348098Y-112234009D01*
G37*
G36*
X162784150Y-111860752D02*
G01*
X162856671Y-111882224D01*
X162915771Y-111918935D01*
X162965347Y-111978042D01*
X162989649Y-112051176D01*
X162992341Y-112089661D01*
X162992341Y-112241702D01*
X162982717Y-112317482D01*
X162969993Y-112350879D01*
X162926478Y-112412819D01*
X162911008Y-112426716D01*
X162847056Y-112463719D01*
X162826745Y-112470314D01*
X162754411Y-112482678D01*
X162729658Y-112483503D01*
X161952966Y-112483503D01*
X161879737Y-112474986D01*
X161852216Y-112467016D01*
X161784605Y-112434324D01*
X161768318Y-112422686D01*
X161718521Y-112366832D01*
X161711532Y-112354542D01*
X161690801Y-112281580D01*
X161690283Y-112266981D01*
X161690283Y-112153042D01*
X161985939Y-112153042D01*
X161985939Y-112207997D01*
X161993266Y-112236939D01*
X162012683Y-112250861D01*
X162042725Y-112255258D01*
X162081926Y-112255258D01*
X162645394Y-112255258D01*
X162698151Y-112238405D01*
X162717934Y-112197372D01*
X162717934Y-112157438D01*
X162695586Y-112117871D01*
X162634770Y-112103583D01*
X162081926Y-112103583D01*
X162009328Y-112116822D01*
X162005356Y-112119703D01*
X161985939Y-112153042D01*
X161690283Y-112153042D01*
X161690283Y-112089661D01*
X161701159Y-112016789D01*
X161718126Y-111980484D01*
X161766249Y-111924561D01*
X161789201Y-111907212D01*
X161857757Y-111873483D01*
X161882257Y-111866545D01*
X161956881Y-111855034D01*
X161976413Y-111854455D01*
X162706577Y-111854455D01*
X162784150Y-111860752D01*
G37*
G36*
X163157205Y-111729159D02*
G01*
X161483287Y-111729159D01*
X161483287Y-111479665D01*
X163157205Y-111479665D01*
X163157205Y-111729159D01*
G37*
G36*
X162933357Y-110926088D02*
G01*
X162013416Y-110926088D01*
X162013416Y-111105240D01*
X162939585Y-111105240D01*
X162939585Y-111345942D01*
X161709334Y-111345942D01*
X161709334Y-110685387D01*
X162933357Y-110685387D01*
X162933357Y-110926088D01*
G37*
G36*
X164730740Y-112085997D02*
G01*
X164723802Y-112163941D01*
X164712110Y-112243965D01*
X164696303Y-112315874D01*
X164683479Y-112359305D01*
X164663329Y-112417557D01*
X164640248Y-112481304D01*
X164353384Y-112481304D01*
X164385170Y-112414612D01*
X164411327Y-112345023D01*
X164416399Y-112327798D01*
X164434354Y-112256249D01*
X164443510Y-112206531D01*
X164449738Y-112144982D01*
X164451936Y-112097355D01*
X163436741Y-112097355D01*
X163436741Y-111833206D01*
X164730740Y-111833206D01*
X164730740Y-112085997D01*
G37*
G36*
X163945621Y-110814713D02*
G01*
X164285241Y-110814713D01*
X164285241Y-111026472D01*
X164150785Y-111017679D01*
X164186892Y-111081929D01*
X164189620Y-111088387D01*
X164209004Y-111159524D01*
X164211602Y-111198297D01*
X164211602Y-111417749D01*
X164203951Y-111492118D01*
X164187421Y-111544511D01*
X164151186Y-111610371D01*
X164123674Y-111644528D01*
X164066227Y-111692268D01*
X164031350Y-111710474D01*
X163959267Y-111730828D01*
X163919243Y-111733555D01*
X163657292Y-111733555D01*
X163582234Y-111723615D01*
X163545185Y-111710474D01*
X163481149Y-111673080D01*
X163451762Y-111647826D01*
X163405487Y-111589740D01*
X163386916Y-111554403D01*
X163366136Y-111484078D01*
X163362735Y-111438998D01*
X163362735Y-111258381D01*
X163629082Y-111258381D01*
X163629082Y-111393569D01*
X163649844Y-111466177D01*
X163654361Y-111471971D01*
X163722250Y-111501983D01*
X163725070Y-111502013D01*
X163843039Y-111502013D01*
X163913299Y-111475609D01*
X163916678Y-111471971D01*
X163942825Y-111402475D01*
X163943056Y-111393569D01*
X163943056Y-111258381D01*
X163918083Y-111188014D01*
X163912648Y-111182177D01*
X163843454Y-111152036D01*
X163834613Y-111151769D01*
X163745953Y-111151769D01*
X163675618Y-111173677D01*
X163664253Y-111182543D01*
X163629632Y-111247338D01*
X163629082Y-111258381D01*
X163362735Y-111258381D01*
X163362735Y-111198297D01*
X163372360Y-111125019D01*
X163385084Y-111088021D01*
X163418789Y-111025739D01*
X163293126Y-111025739D01*
X163293126Y-110814713D01*
X163633112Y-110814713D01*
X163633112Y-110674030D01*
X163945621Y-110674030D01*
X163945621Y-110814713D01*
G37*
G36*
X164722313Y-111034898D02*
G01*
X164960450Y-111034898D01*
X164960450Y-111307107D01*
X164722313Y-111307107D01*
X164722313Y-111682264D01*
X164447540Y-111682264D01*
X164447540Y-110674030D01*
X164722313Y-110674030D01*
X164722313Y-111034898D01*
G37*
G36*
X166483793Y-110796029D02*
G01*
X166483793Y-111016580D01*
X166482711Y-111098214D01*
X166479465Y-111175777D01*
X166474055Y-111249270D01*
X166465009Y-111329868D01*
X166453018Y-111404926D01*
X166437287Y-111484061D01*
X166420870Y-111556235D01*
X166401579Y-111629110D01*
X166385973Y-111679699D01*
X166361025Y-111750114D01*
X166340178Y-111800233D01*
X166306919Y-111867066D01*
X166284491Y-111905380D01*
X165983705Y-111905380D01*
X166018373Y-111837557D01*
X166051790Y-111763336D01*
X166079295Y-111691317D01*
X166094347Y-111644528D01*
X166115363Y-111568386D01*
X166132157Y-111494748D01*
X166145755Y-111416640D01*
X166146738Y-111409689D01*
X166155837Y-111335838D01*
X166161813Y-111260902D01*
X166163590Y-111208555D01*
X166163252Y-111133620D01*
X166159560Y-111072634D01*
X165172941Y-111072634D01*
X165172941Y-110796029D01*
X166483793Y-110796029D01*
G37*
G36*
X166578681Y-112221552D02*
G01*
X165054606Y-112221552D01*
X165054606Y-111963632D01*
X165326814Y-111963632D01*
X165326814Y-111541580D01*
X165567882Y-111541580D01*
X165567882Y-111963632D01*
X165734211Y-111963632D01*
X165734211Y-111541580D01*
X165968685Y-111541580D01*
X165968685Y-111963632D01*
X166578681Y-111963632D01*
X166578681Y-112221552D01*
G37*
G36*
X168349320Y-110764155D02*
G01*
X168369670Y-110835304D01*
X168396562Y-110906770D01*
X168424424Y-110969685D01*
X168460295Y-111042887D01*
X168495577Y-111110603D01*
X168533698Y-111180059D01*
X168551553Y-111211486D01*
X168593432Y-111282232D01*
X168632118Y-111344875D01*
X168672177Y-111407289D01*
X168708357Y-111461713D01*
X168750992Y-111523537D01*
X168794635Y-111584811D01*
X168839286Y-111645536D01*
X168884944Y-111705711D01*
X168521877Y-111705711D01*
X168477971Y-111644075D01*
X168435014Y-111583648D01*
X168420761Y-111563562D01*
X168377530Y-111500730D01*
X168336497Y-111438998D01*
X168297204Y-111376625D01*
X168259194Y-111312602D01*
X168222567Y-111246702D01*
X168194714Y-111193534D01*
X168159509Y-111265397D01*
X168122440Y-111333928D01*
X168085208Y-111397911D01*
X168059892Y-111439364D01*
X168017439Y-111506432D01*
X167973613Y-111573179D01*
X167928413Y-111639605D01*
X167881839Y-111705711D01*
X167478105Y-111705711D01*
X167532021Y-111644017D01*
X167582851Y-111582673D01*
X167630596Y-111521680D01*
X167675255Y-111461037D01*
X167699389Y-111426542D01*
X167745299Y-111358283D01*
X167788141Y-111291262D01*
X167827915Y-111225476D01*
X167864620Y-111160928D01*
X167902013Y-111090857D01*
X167935060Y-111024902D01*
X167966681Y-110956445D01*
X167977826Y-110930484D01*
X168004926Y-110859009D01*
X168024600Y-110785024D01*
X168027652Y-110764155D01*
X168349320Y-110764155D01*
G37*
G36*
X169004013Y-112291894D02*
G01*
X167408130Y-112291894D01*
X167408130Y-112010526D01*
X168030949Y-112010526D01*
X168030949Y-111705711D01*
X168360311Y-111705711D01*
X168360311Y-112010526D01*
X169004013Y-112010526D01*
X169004013Y-112291894D01*
G37*
G36*
X169302966Y-110801524D02*
G01*
X170588172Y-110801524D01*
X170588172Y-111073733D01*
X169302966Y-111073733D01*
X169302966Y-110801524D01*
G37*
G36*
X170416713Y-111136748D02*
G01*
X170287753Y-111461713D01*
X170630670Y-111461713D01*
X170630670Y-111711207D01*
X169324215Y-111711207D01*
X169324215Y-111461713D01*
X169593859Y-111461713D01*
X169441818Y-111136748D01*
X169742237Y-111136748D01*
X169883653Y-111451454D01*
X170021406Y-111451454D01*
X170118493Y-111136748D01*
X170416713Y-111136748D01*
G37*
G36*
X169140300Y-112244633D02*
G01*
X169140300Y-111963632D01*
X170757066Y-111963632D01*
X170757066Y-112244633D01*
X169140300Y-112244633D01*
G37*
G36*
X172275645Y-110752798D02*
G01*
X172275645Y-111014748D01*
X171093754Y-111014748D01*
X171093754Y-110752798D01*
X172275645Y-110752798D01*
G37*
G36*
X171380984Y-111565027D02*
G01*
X172298726Y-111565027D01*
X172298726Y-111822948D01*
X171093754Y-111822948D01*
X171093754Y-111142976D01*
X172275645Y-111142976D01*
X172275645Y-111407124D01*
X171380984Y-111407124D01*
X171380984Y-111565027D01*
G37*
G36*
X170892987Y-112291161D02*
G01*
X170892987Y-112010526D01*
X172509752Y-112010526D01*
X172509752Y-112291161D01*
X170892987Y-112291161D01*
G37*
G36*
X173591626Y-111916737D02*
G01*
X173234787Y-111916737D01*
X173234787Y-112479473D01*
X172922278Y-112479473D01*
X172922278Y-111916737D01*
X172645673Y-111916737D01*
X172645673Y-111658817D01*
X173591626Y-111658817D01*
X173591626Y-111916737D01*
G37*
G36*
X173920621Y-110676228D02*
G01*
X173920621Y-112479473D01*
X173641818Y-112479473D01*
X173641818Y-112291894D01*
X173346528Y-112291894D01*
X173346528Y-112055589D01*
X173641818Y-112055589D01*
X173641818Y-110674030D01*
X173920621Y-110676228D01*
G37*
G36*
X174300541Y-112479473D02*
G01*
X174025768Y-112479473D01*
X174025768Y-110674030D01*
X174300541Y-110671831D01*
X174300541Y-112479473D01*
G37*
G36*
X173290018Y-110726834D02*
G01*
X173327111Y-110739975D01*
X173390516Y-110777842D01*
X173419068Y-110803722D01*
X173463900Y-110863251D01*
X173481717Y-110899344D01*
X173501552Y-110970470D01*
X173504798Y-111015481D01*
X173504798Y-111260579D01*
X173495782Y-111334624D01*
X173481717Y-111376716D01*
X173444323Y-111442691D01*
X173419068Y-111472337D01*
X173361779Y-111518612D01*
X173327111Y-111537184D01*
X173254870Y-111558507D01*
X173214637Y-111561364D01*
X173009839Y-111561364D01*
X172933835Y-111550950D01*
X172895534Y-111537184D01*
X172829409Y-111498505D01*
X172799180Y-111472704D01*
X172751936Y-111413176D01*
X172733234Y-111377083D01*
X172712455Y-111305813D01*
X172709054Y-111260579D01*
X172709054Y-111070436D01*
X172979431Y-111070436D01*
X172979431Y-111214050D01*
X173002600Y-111285382D01*
X173007641Y-111291353D01*
X173075082Y-111322221D01*
X173083845Y-111322494D01*
X173140632Y-111322494D01*
X173211963Y-111296919D01*
X173217934Y-111291353D01*
X173249165Y-111222512D01*
X173249442Y-111214050D01*
X173249442Y-111070436D01*
X173223565Y-110999467D01*
X173217934Y-110993499D01*
X173149155Y-110962269D01*
X173140632Y-110961992D01*
X173083845Y-110961992D01*
X173013167Y-110987568D01*
X173007641Y-110993133D01*
X172979679Y-111061912D01*
X172979431Y-111070436D01*
X172709054Y-111070436D01*
X172709054Y-111015481D01*
X172718500Y-110941121D01*
X172733234Y-110898977D01*
X172772544Y-110833160D01*
X172799180Y-110803722D01*
X172859677Y-110757921D01*
X172895900Y-110739975D01*
X172969764Y-110719621D01*
X173009839Y-110716894D01*
X173214637Y-110716894D01*
X173290018Y-110726834D01*
G37*
G36*
X175983252Y-112479473D02*
G01*
X175689794Y-112479473D01*
X175689794Y-111565027D01*
X175461916Y-111565027D01*
X175461916Y-111260212D01*
X175689794Y-111260212D01*
X175689794Y-110713963D01*
X175983252Y-110713963D01*
X175983252Y-112479473D01*
G37*
G36*
X175119278Y-110806433D02*
G01*
X175194011Y-110824064D01*
X175265659Y-110859227D01*
X175318301Y-110904106D01*
X175364347Y-110969749D01*
X175392625Y-111041431D01*
X175407602Y-111114445D01*
X175413462Y-111197067D01*
X175413555Y-111209654D01*
X175413555Y-111697285D01*
X175408577Y-111773310D01*
X175392192Y-111847762D01*
X175387544Y-111861782D01*
X175356769Y-111929835D01*
X175316469Y-111985980D01*
X175261549Y-112035259D01*
X175212421Y-112063649D01*
X175139923Y-112086592D01*
X175087491Y-112091127D01*
X174855216Y-112091127D01*
X174779584Y-112084539D01*
X174729920Y-112072442D01*
X174663268Y-112041730D01*
X174622575Y-112010893D01*
X174575666Y-111953512D01*
X174547837Y-111896221D01*
X174528377Y-111821635D01*
X174521149Y-111745794D01*
X174520769Y-111722930D01*
X174797331Y-111722930D01*
X174804658Y-111783381D01*
X174840928Y-111829909D01*
X174912615Y-111848301D01*
X174927024Y-111848593D01*
X175017882Y-111848593D01*
X175074668Y-111832473D01*
X175111305Y-111792173D01*
X175130722Y-111736486D01*
X175136950Y-111674570D01*
X175136950Y-111248489D01*
X175134020Y-111178147D01*
X175119365Y-111112201D01*
X175083828Y-111064940D01*
X175017882Y-111046988D01*
X174931420Y-111046988D01*
X174861078Y-111062376D01*
X174821877Y-111102676D01*
X174803559Y-111160928D01*
X174799529Y-111227240D01*
X174799529Y-111664312D01*
X174797331Y-111722930D01*
X174520769Y-111722930D01*
X174520726Y-111720366D01*
X174520726Y-111207822D01*
X174524026Y-111131444D01*
X174534823Y-111054233D01*
X174535747Y-111049553D01*
X174559850Y-110975727D01*
X174593999Y-110919860D01*
X174648745Y-110868088D01*
X174712334Y-110833398D01*
X174786155Y-110811609D01*
X174861821Y-110802645D01*
X174903943Y-110801524D01*
X175045359Y-110801524D01*
X175119278Y-110806433D01*
G37*
G36*
X177825331Y-111869842D02*
G01*
X177154518Y-111869842D01*
X177154518Y-112479473D01*
X176854466Y-112479473D01*
X176854466Y-111869842D01*
X176183287Y-111869842D01*
X176183287Y-111595436D01*
X177825331Y-111595436D01*
X177825331Y-111869842D01*
G37*
G36*
X176592882Y-110861608D02*
G01*
X177415736Y-110861608D01*
X177415736Y-110674030D01*
X177711392Y-110674030D01*
X177711392Y-111447791D01*
X176295394Y-111447791D01*
X176295394Y-111197198D01*
X176592882Y-111197198D01*
X177415736Y-111197198D01*
X177415736Y-111096081D01*
X176592882Y-111096081D01*
X176592882Y-111197198D01*
X176295394Y-111197198D01*
X176295394Y-110674030D01*
X176592882Y-110674030D01*
X176592882Y-110861608D01*
G37*
D12*
%TO.C,G\u002A\u002A\u002A*%
G36*
X165507864Y-98467656D02*
G01*
X165507864Y-99798442D01*
X166111585Y-99798442D01*
X166715306Y-99798442D01*
X166712695Y-99257125D01*
X166712183Y-99156831D01*
X166711663Y-99068974D01*
X166711113Y-98992586D01*
X166710510Y-98926698D01*
X166709832Y-98870340D01*
X166709057Y-98822544D01*
X166708162Y-98782340D01*
X166707125Y-98748759D01*
X166705925Y-98720833D01*
X166704538Y-98697591D01*
X166702942Y-98678064D01*
X166701115Y-98661284D01*
X166699036Y-98646282D01*
X166698584Y-98643386D01*
X166685032Y-98569140D01*
X166669090Y-98500957D01*
X166651238Y-98440272D01*
X166631956Y-98388516D01*
X166611724Y-98347122D01*
X166591022Y-98317524D01*
X166588426Y-98314726D01*
X166572454Y-98300494D01*
X166548064Y-98281514D01*
X166518337Y-98259936D01*
X166486352Y-98237905D01*
X166455192Y-98217570D01*
X166427935Y-98201078D01*
X166416204Y-98194671D01*
X166396905Y-98187853D01*
X166365937Y-98180810D01*
X166325032Y-98173715D01*
X166275923Y-98166743D01*
X166220341Y-98160069D01*
X166160019Y-98153866D01*
X166096688Y-98148310D01*
X166032082Y-98143574D01*
X165967932Y-98139832D01*
X165905971Y-98137261D01*
X165847930Y-98136033D01*
X165832990Y-98135954D01*
X165796347Y-98135571D01*
X165761054Y-98134622D01*
X165731132Y-98133250D01*
X165710649Y-98131602D01*
X165675455Y-98127375D01*
X165675455Y-97805739D01*
X166010636Y-97805739D01*
X166072644Y-97810223D01*
X166174221Y-97818509D01*
X166265893Y-97827929D01*
X166347074Y-97838387D01*
X166417178Y-97849788D01*
X166475619Y-97862038D01*
X166521812Y-97875043D01*
X166554017Y-97888110D01*
X166600540Y-97913801D01*
X166650083Y-97944569D01*
X166700145Y-97978572D01*
X166748225Y-98013970D01*
X166791824Y-98048920D01*
X166828441Y-98081583D01*
X166855576Y-98110115D01*
X166855711Y-98110277D01*
X166894007Y-98164583D01*
X166928957Y-98231119D01*
X166960280Y-98309065D01*
X166987697Y-98397601D01*
X167010929Y-98495905D01*
X167029697Y-98603158D01*
X167033975Y-98633641D01*
X167036013Y-98650696D01*
X167037815Y-98670049D01*
X167039402Y-98692648D01*
X167040795Y-98719444D01*
X167042013Y-98751385D01*
X167043078Y-98789421D01*
X167044009Y-98834503D01*
X167044828Y-98887580D01*
X167045555Y-98949602D01*
X167046211Y-99021517D01*
X167046816Y-99104277D01*
X167047390Y-99198830D01*
X167047784Y-99272438D01*
X167050641Y-99829067D01*
X167093904Y-99844583D01*
X167150859Y-99872092D01*
X167202656Y-99911770D01*
X167249060Y-99963317D01*
X167289834Y-100026431D01*
X167324743Y-100100813D01*
X167348975Y-100170493D01*
X167356034Y-100195148D01*
X167361023Y-100216791D01*
X167364312Y-100238723D01*
X167366266Y-100264241D01*
X167367254Y-100296645D01*
X167367638Y-100338083D01*
X167367438Y-100384982D01*
X167366223Y-100421299D01*
X167363780Y-100449839D01*
X167359898Y-100473403D01*
X167356304Y-100488104D01*
X167328668Y-100569730D01*
X167293220Y-100641243D01*
X167248892Y-100704114D01*
X167194619Y-100759816D01*
X167129333Y-100809820D01*
X167117791Y-100817392D01*
X167050010Y-100860965D01*
X167049787Y-102178226D01*
X167049722Y-102346512D01*
X167049586Y-102505658D01*
X167049382Y-102655347D01*
X167049110Y-102795259D01*
X167048773Y-102925076D01*
X167048372Y-103044479D01*
X167047909Y-103153150D01*
X167047384Y-103250771D01*
X167046800Y-103337021D01*
X167046159Y-103411584D01*
X167045462Y-103474141D01*
X167044710Y-103524372D01*
X167043905Y-103561959D01*
X167043049Y-103586584D01*
X167042696Y-103592689D01*
X167033667Y-103692683D01*
X167021227Y-103781494D01*
X167004834Y-103861035D01*
X166983945Y-103933217D01*
X166958018Y-103999956D01*
X166926510Y-104063163D01*
X166894083Y-104116853D01*
X166865812Y-104157821D01*
X166839442Y-104189999D01*
X166811615Y-104216928D01*
X166778974Y-104242152D01*
X166768487Y-104249411D01*
X166743603Y-104264936D01*
X166710556Y-104283612D01*
X166672259Y-104303985D01*
X166631626Y-104324603D01*
X166591571Y-104344012D01*
X166555010Y-104360760D01*
X166524855Y-104373395D01*
X166507567Y-104379486D01*
X166475081Y-104387372D01*
X166430406Y-104395494D01*
X166374757Y-104403701D01*
X166309345Y-104411841D01*
X166235385Y-104419763D01*
X166154090Y-104427315D01*
X166069292Y-104434151D01*
X166010636Y-104438548D01*
X166010636Y-104596480D01*
X166010636Y-104754411D01*
X166106162Y-104749794D01*
X166151860Y-104747150D01*
X166204180Y-104743441D01*
X166256429Y-104739173D01*
X166298891Y-104735169D01*
X166430742Y-104718555D01*
X166552961Y-104696490D01*
X166668508Y-104668131D01*
X166780340Y-104632635D01*
X166891418Y-104589159D01*
X167004700Y-104536857D01*
X167018329Y-104530075D01*
X167060314Y-104507813D01*
X167110909Y-104478991D01*
X167167927Y-104444993D01*
X167229178Y-104407205D01*
X167292476Y-104367012D01*
X167355631Y-104325800D01*
X167416455Y-104284953D01*
X167472761Y-104245858D01*
X167512245Y-104217389D01*
X167561797Y-104179265D01*
X167617200Y-104133789D01*
X167675398Y-104083629D01*
X167733330Y-104031450D01*
X167787940Y-103979920D01*
X167813766Y-103954508D01*
X167950070Y-103808733D01*
X168077419Y-103653268D01*
X168195671Y-103488527D01*
X168304689Y-103314923D01*
X168404330Y-103132867D01*
X168494454Y-102942772D01*
X168504899Y-102917107D01*
X168875888Y-102917107D01*
X168877643Y-102925581D01*
X168882586Y-102936767D01*
X168891552Y-102952185D01*
X168905377Y-102973357D01*
X168924897Y-103001803D01*
X168950949Y-103039042D01*
X168964193Y-103057890D01*
X168990206Y-103094439D01*
X169013797Y-103126717D01*
X169033864Y-103153287D01*
X169049307Y-103172712D01*
X169059023Y-103183556D01*
X169061841Y-103185259D01*
X169065385Y-103178840D01*
X169074700Y-103161142D01*
X169089448Y-103132821D01*
X169109292Y-103094534D01*
X169133894Y-103046935D01*
X169162917Y-102990680D01*
X169196022Y-102926426D01*
X169232873Y-102854828D01*
X169273131Y-102776542D01*
X169316458Y-102692224D01*
X169362518Y-102602529D01*
X169410972Y-102508115D01*
X169461482Y-102409635D01*
X169513712Y-102307747D01*
X169526838Y-102282132D01*
X169579454Y-102179470D01*
X169630440Y-102080033D01*
X169679457Y-101984478D01*
X169726167Y-101893463D01*
X169770231Y-101807646D01*
X169811313Y-101727684D01*
X169849073Y-101654235D01*
X169883173Y-101587956D01*
X169913275Y-101529505D01*
X169939040Y-101479540D01*
X169960132Y-101438718D01*
X169976210Y-101407697D01*
X169986938Y-101387134D01*
X169991976Y-101377687D01*
X169992304Y-101377144D01*
X169996686Y-101369682D01*
X170006485Y-101351940D01*
X170020853Y-101325491D01*
X170038939Y-101291908D01*
X170059894Y-101252762D01*
X170082869Y-101209627D01*
X170086469Y-101202850D01*
X170111459Y-101156036D01*
X170136228Y-101110093D01*
X170159559Y-101067243D01*
X170180237Y-101029711D01*
X170197043Y-100999720D01*
X170208275Y-100980303D01*
X170251747Y-100913946D01*
X170302023Y-100847989D01*
X170355217Y-100787332D01*
X170385659Y-100756715D01*
X170422966Y-100722514D01*
X170457427Y-100694430D01*
X170491604Y-100671110D01*
X170528054Y-100651198D01*
X170569337Y-100633340D01*
X170618013Y-100616179D01*
X170676642Y-100598361D01*
X170694308Y-100593319D01*
X170749241Y-100576930D01*
X170802407Y-100559452D01*
X170851587Y-100541725D01*
X170894564Y-100524593D01*
X170929121Y-100508896D01*
X170953040Y-100495477D01*
X170954360Y-100494574D01*
X170986381Y-100465130D01*
X171011042Y-100428070D01*
X171028018Y-100385912D01*
X171036985Y-100341169D01*
X171037618Y-100296359D01*
X171029592Y-100253996D01*
X171012582Y-100216597D01*
X170993301Y-100192901D01*
X170966333Y-100170276D01*
X170938657Y-100155004D01*
X170905279Y-100144695D01*
X170883562Y-100140427D01*
X170872479Y-100139653D01*
X170849230Y-100138936D01*
X170814776Y-100138277D01*
X170770076Y-100137675D01*
X170716092Y-100137131D01*
X170653782Y-100136644D01*
X170584106Y-100136215D01*
X170508025Y-100135844D01*
X170426499Y-100135530D01*
X170340486Y-100135274D01*
X170250948Y-100135076D01*
X170158845Y-100134937D01*
X170065135Y-100134855D01*
X169970780Y-100134831D01*
X169876738Y-100134865D01*
X169783971Y-100134957D01*
X169693438Y-100135108D01*
X169606098Y-100135316D01*
X169522912Y-100135583D01*
X169444840Y-100135909D01*
X169372842Y-100136293D01*
X169307877Y-100136735D01*
X169250906Y-100137236D01*
X169202888Y-100137795D01*
X169164784Y-100138413D01*
X169137553Y-100139090D01*
X169122155Y-100139826D01*
X169118954Y-100140327D01*
X169118457Y-100148067D01*
X169120120Y-100165497D01*
X169123589Y-100189135D01*
X169124409Y-100193956D01*
X169128652Y-100220541D01*
X169133772Y-100255861D01*
X169139125Y-100295332D01*
X169144072Y-100334367D01*
X169144116Y-100334732D01*
X169148382Y-100369188D01*
X169152322Y-100399714D01*
X169155547Y-100423388D01*
X169157668Y-100437290D01*
X169157940Y-100438707D01*
X169166445Y-100450070D01*
X169187698Y-100464593D01*
X169211871Y-100477462D01*
X169298700Y-100526325D01*
X169373934Y-100581415D01*
X169438109Y-100643250D01*
X169491760Y-100712348D01*
X169535424Y-100789226D01*
X169536299Y-100791058D01*
X169560913Y-100850075D01*
X169578580Y-100910330D01*
X169589744Y-100974507D01*
X169594846Y-101045287D01*
X169594329Y-101125355D01*
X169593756Y-101139166D01*
X169585500Y-101255623D01*
X169571917Y-101360577D01*
X169553052Y-101453757D01*
X169528952Y-101534890D01*
X169524102Y-101548086D01*
X169518777Y-101559735D01*
X169507624Y-101582219D01*
X169491154Y-101614559D01*
X169469878Y-101655778D01*
X169444309Y-101704897D01*
X169414957Y-101760938D01*
X169382334Y-101822922D01*
X169346951Y-101889871D01*
X169309320Y-101960806D01*
X169269952Y-102034749D01*
X169257779Y-102057561D01*
X169005445Y-102530166D01*
X168945688Y-102704460D01*
X168929588Y-102751494D01*
X168914585Y-102795461D01*
X168901333Y-102834438D01*
X168890482Y-102866504D01*
X168882685Y-102889737D01*
X168878595Y-102902213D01*
X168878594Y-102902216D01*
X168876483Y-102909826D01*
X168875888Y-102917107D01*
X168504899Y-102917107D01*
X168574922Y-102745052D01*
X168645593Y-102540118D01*
X168706327Y-102328384D01*
X168756983Y-102110263D01*
X168797421Y-101886166D01*
X168827501Y-101656507D01*
X168844051Y-101458052D01*
X169180822Y-101458052D01*
X169181423Y-101474953D01*
X169182950Y-101481057D01*
X169189032Y-101475725D01*
X169197245Y-101462777D01*
X169197880Y-101461567D01*
X169207690Y-101438108D01*
X169218450Y-101404998D01*
X169229196Y-101365858D01*
X169238961Y-101324307D01*
X169246781Y-101283964D01*
X169249014Y-101269886D01*
X169252164Y-101241376D01*
X169254846Y-101203605D01*
X169256841Y-101160717D01*
X169257930Y-101116855D01*
X169258065Y-101098944D01*
X169257959Y-101056587D01*
X169257311Y-101024979D01*
X169255857Y-101001461D01*
X169253333Y-100983377D01*
X169249476Y-100968072D01*
X169244021Y-100952887D01*
X169243397Y-100951321D01*
X169231333Y-100925989D01*
X169216779Y-100901848D01*
X169208624Y-100890988D01*
X169188694Y-100867669D01*
X169187822Y-101095592D01*
X169187472Y-101153871D01*
X169186894Y-101211607D01*
X169186126Y-101266466D01*
X169185209Y-101316111D01*
X169184185Y-101358209D01*
X169183092Y-101390425D01*
X169182522Y-101402289D01*
X169181183Y-101432961D01*
X169180822Y-101458052D01*
X168844051Y-101458052D01*
X168847083Y-101421699D01*
X168856026Y-101182153D01*
X168854190Y-100938284D01*
X168852847Y-100897835D01*
X168837911Y-100642132D01*
X168812204Y-100394235D01*
X168775735Y-100154181D01*
X168728512Y-99922006D01*
X168670545Y-99697748D01*
X168601841Y-99481444D01*
X168522409Y-99273131D01*
X168433725Y-99075863D01*
X168343719Y-98903651D01*
X168245779Y-98741847D01*
X168139185Y-98589559D01*
X168023214Y-98445892D01*
X167897146Y-98309953D01*
X167760261Y-98180848D01*
X167612231Y-98057993D01*
X167455088Y-97941892D01*
X167298104Y-97839060D01*
X167140987Y-97749366D01*
X166983447Y-97672679D01*
X166825194Y-97608868D01*
X166665938Y-97557802D01*
X166505386Y-97519349D01*
X166365927Y-97496252D01*
X166327103Y-97491676D01*
X166280633Y-97487061D01*
X166229902Y-97482662D01*
X166178297Y-97478733D01*
X166129205Y-97475530D01*
X166086013Y-97473306D01*
X166052107Y-97472315D01*
X166046972Y-97472288D01*
X166010636Y-97472288D01*
X166010636Y-97639013D01*
X166010636Y-97805739D01*
X165675455Y-97805739D01*
X165675455Y-97639013D01*
X165675455Y-97632241D01*
X165675455Y-97137107D01*
X165878354Y-97137107D01*
X166000793Y-97137990D01*
X166111886Y-97140775D01*
X166213585Y-97145667D01*
X166307843Y-97152870D01*
X166396613Y-97162587D01*
X166481846Y-97175023D01*
X166565497Y-97190383D01*
X166649517Y-97208869D01*
X166711163Y-97224186D01*
X166816758Y-97253547D01*
X166915972Y-97285531D01*
X167012610Y-97321590D01*
X167110478Y-97363174D01*
X167213382Y-97411736D01*
X167247453Y-97428712D01*
X167424076Y-97524665D01*
X167595785Y-97631798D01*
X167761364Y-97749131D01*
X167919597Y-97875683D01*
X168069267Y-98010475D01*
X168209156Y-98152525D01*
X168338050Y-98300853D01*
X168353874Y-98320469D01*
X168462020Y-98464005D01*
X168562393Y-98614602D01*
X168655330Y-98772975D01*
X168741166Y-98939839D01*
X168820236Y-99115908D01*
X168892877Y-99301897D01*
X168959424Y-99498521D01*
X169020212Y-99706493D01*
X169040083Y-99781683D01*
X169046986Y-99808498D01*
X169109188Y-99804100D01*
X169123680Y-99803543D01*
X169150698Y-99802997D01*
X169189365Y-99802467D01*
X169238798Y-99801957D01*
X169298119Y-99801474D01*
X169366448Y-99801020D01*
X169442904Y-99800603D01*
X169526608Y-99800225D01*
X169616679Y-99799892D01*
X169712239Y-99799609D01*
X169812406Y-99799380D01*
X169916301Y-99799211D01*
X170016046Y-99799112D01*
X170143812Y-99799043D01*
X170258872Y-99799031D01*
X170361925Y-99799082D01*
X170453672Y-99799202D01*
X170534813Y-99799399D01*
X170606048Y-99799681D01*
X170668079Y-99800053D01*
X170721604Y-99800522D01*
X170767324Y-99801097D01*
X170805940Y-99801783D01*
X170838153Y-99802588D01*
X170864661Y-99803519D01*
X170886166Y-99804583D01*
X170903368Y-99805786D01*
X170916967Y-99807136D01*
X170924689Y-99808167D01*
X171010883Y-99827126D01*
X171089174Y-99856504D01*
X171159042Y-99895741D01*
X171219966Y-99944278D01*
X171271425Y-100001555D01*
X171312898Y-100067014D01*
X171343865Y-100140093D01*
X171363804Y-100220235D01*
X171371412Y-100288089D01*
X171369923Y-100373187D01*
X171356201Y-100455649D01*
X171330884Y-100534159D01*
X171294609Y-100607396D01*
X171248014Y-100674041D01*
X171191735Y-100732777D01*
X171135512Y-100776335D01*
X171102659Y-100795587D01*
X171059225Y-100816914D01*
X171007684Y-100839328D01*
X170950506Y-100861837D01*
X170890164Y-100883454D01*
X170829130Y-100903188D01*
X170790314Y-100914521D01*
X170754901Y-100924798D01*
X170721926Y-100935124D01*
X170694677Y-100944418D01*
X170676441Y-100951601D01*
X170674145Y-100952699D01*
X170651943Y-100967377D01*
X170624806Y-100990593D01*
X170595301Y-101019777D01*
X170565996Y-101052355D01*
X170539457Y-101085757D01*
X170534539Y-101092546D01*
X170525393Y-101105828D01*
X170515165Y-101121550D01*
X170503622Y-101140154D01*
X170490532Y-101162083D01*
X170475661Y-101187779D01*
X170458777Y-101217685D01*
X170439647Y-101252243D01*
X170418038Y-101291896D01*
X170393719Y-101337087D01*
X170366455Y-101388257D01*
X170336014Y-101445850D01*
X170302163Y-101510308D01*
X170264670Y-101582074D01*
X170223303Y-101661589D01*
X170177827Y-101749298D01*
X170128010Y-101845641D01*
X170073620Y-101951062D01*
X170014424Y-102066003D01*
X169950189Y-102190907D01*
X169880683Y-102326217D01*
X169805672Y-102472374D01*
X169724924Y-102629821D01*
X169683556Y-102710516D01*
X169624747Y-102825195D01*
X169567536Y-102936653D01*
X169512224Y-103044306D01*
X169459116Y-103147570D01*
X169408512Y-103245859D01*
X169360715Y-103338589D01*
X169316029Y-103425177D01*
X169274754Y-103505036D01*
X169237193Y-103577584D01*
X169203649Y-103642234D01*
X169174423Y-103698403D01*
X169149819Y-103745507D01*
X169130139Y-103782960D01*
X169115684Y-103810178D01*
X169106758Y-103826577D01*
X169103694Y-103831605D01*
X169098794Y-103826588D01*
X169087008Y-103811580D01*
X169069084Y-103787612D01*
X169045767Y-103755716D01*
X169017805Y-103716923D01*
X168985945Y-103672264D01*
X168950933Y-103622770D01*
X168913517Y-103569473D01*
X168903740Y-103555483D01*
X168865953Y-103501431D01*
X168830541Y-103450914D01*
X168798233Y-103404960D01*
X168769755Y-103364598D01*
X168745837Y-103330857D01*
X168727205Y-103304766D01*
X168714587Y-103287352D01*
X168708713Y-103279645D01*
X168708379Y-103279359D01*
X168704841Y-103285486D01*
X168696014Y-103301357D01*
X168683018Y-103324940D01*
X168666975Y-103354205D01*
X168656272Y-103373793D01*
X168605617Y-103466616D01*
X168801356Y-103762603D01*
X168997096Y-104058590D01*
X169000533Y-105359092D01*
X169000948Y-105514484D01*
X169001340Y-105657040D01*
X169001716Y-105787332D01*
X169002083Y-105905930D01*
X169002448Y-106013407D01*
X169002817Y-106110334D01*
X169003198Y-106197281D01*
X169003597Y-106274821D01*
X169004021Y-106343525D01*
X169004476Y-106403963D01*
X169004970Y-106456708D01*
X169005509Y-106502331D01*
X169006100Y-106541403D01*
X169006750Y-106574495D01*
X169007466Y-106602179D01*
X169008254Y-106625026D01*
X169009121Y-106643608D01*
X169010074Y-106658496D01*
X169011120Y-106670261D01*
X169012265Y-106679475D01*
X169013517Y-106686709D01*
X169014882Y-106692534D01*
X169016367Y-106697522D01*
X169016431Y-106697718D01*
X169024735Y-106721150D01*
X169033720Y-106739902D01*
X169045114Y-106755046D01*
X169060645Y-106767652D01*
X169082040Y-106778790D01*
X169111027Y-106789531D01*
X169149334Y-106800945D01*
X169198690Y-106814104D01*
X169208260Y-106816580D01*
X169252437Y-106828228D01*
X169295100Y-106839921D01*
X169333481Y-106850869D01*
X169364811Y-106860277D01*
X169386322Y-106867354D01*
X169388561Y-106868177D01*
X169462169Y-106902273D01*
X169526764Y-106945551D01*
X169581711Y-106997379D01*
X169626378Y-107057126D01*
X169660130Y-107124159D01*
X169668681Y-107147519D01*
X169675980Y-107170483D01*
X169681070Y-107190543D01*
X169684352Y-107211037D01*
X169686225Y-107235300D01*
X169687088Y-107266671D01*
X169687332Y-107303140D01*
X169686880Y-107350511D01*
X169684800Y-107388033D01*
X169680385Y-107419231D01*
X169672929Y-107447634D01*
X169661725Y-107476767D01*
X169646065Y-107510157D01*
X169645671Y-107510952D01*
X169610151Y-107568371D01*
X169563539Y-107621038D01*
X169507739Y-107667498D01*
X169444655Y-107706298D01*
X169376188Y-107735985D01*
X169334604Y-107748495D01*
X169321286Y-107751788D01*
X169308118Y-107754804D01*
X169294487Y-107757556D01*
X169279784Y-107760054D01*
X169263397Y-107762312D01*
X169244716Y-107764340D01*
X169223130Y-107766150D01*
X169198029Y-107767755D01*
X169168800Y-107769165D01*
X169134835Y-107770393D01*
X169095521Y-107771450D01*
X169050249Y-107772349D01*
X168998407Y-107773100D01*
X168939384Y-107773716D01*
X168872571Y-107774209D01*
X168797356Y-107774590D01*
X168713128Y-107774870D01*
X168619276Y-107775063D01*
X168515190Y-107775179D01*
X168400260Y-107775230D01*
X168273873Y-107775228D01*
X168135420Y-107775185D01*
X167984290Y-107775112D01*
X167953272Y-107775096D01*
X167798611Y-107774996D01*
X167656814Y-107774867D01*
X167527336Y-107774705D01*
X167409636Y-107774507D01*
X167303169Y-107774267D01*
X167207391Y-107773982D01*
X167121760Y-107773648D01*
X167045731Y-107773259D01*
X166978762Y-107772813D01*
X166920308Y-107772305D01*
X166869827Y-107771731D01*
X166826774Y-107771086D01*
X166790607Y-107770367D01*
X166760781Y-107769569D01*
X166736754Y-107768689D01*
X166717981Y-107767721D01*
X166703920Y-107766662D01*
X166694026Y-107765508D01*
X166693530Y-107765431D01*
X166622440Y-107752189D01*
X166562697Y-107736248D01*
X166515562Y-107718520D01*
X166457160Y-107687407D01*
X166401496Y-107647764D01*
X166351181Y-107601985D01*
X166308827Y-107552464D01*
X166277046Y-107501597D01*
X166275417Y-107498319D01*
X166255661Y-107453678D01*
X166242537Y-107412394D01*
X166235185Y-107370057D01*
X166232746Y-107322256D01*
X166232931Y-107312674D01*
X166565533Y-107312674D01*
X166568441Y-107331946D01*
X166583287Y-107361383D01*
X166609784Y-107387382D01*
X166646395Y-107408924D01*
X166691584Y-107424991D01*
X166717663Y-107430791D01*
X166730917Y-107431969D01*
X166756740Y-107433073D01*
X166794292Y-107434102D01*
X166842734Y-107435056D01*
X166901229Y-107435935D01*
X166968938Y-107436738D01*
X167045021Y-107437467D01*
X167128640Y-107438121D01*
X167218956Y-107438699D01*
X167315131Y-107439201D01*
X167416326Y-107439629D01*
X167521702Y-107439980D01*
X167630421Y-107440256D01*
X167741643Y-107440456D01*
X167854530Y-107440581D01*
X167968243Y-107440629D01*
X168081944Y-107440602D01*
X168194794Y-107440498D01*
X168305954Y-107440318D01*
X168414585Y-107440062D01*
X168519849Y-107439729D01*
X168620907Y-107439320D01*
X168716920Y-107438835D01*
X168807049Y-107438272D01*
X168890457Y-107437634D01*
X168966303Y-107436918D01*
X169033750Y-107436125D01*
X169091959Y-107435255D01*
X169140090Y-107434309D01*
X169177306Y-107433285D01*
X169202767Y-107432184D01*
X169215384Y-107431052D01*
X169266771Y-107418285D01*
X169306737Y-107400166D01*
X169335629Y-107376992D01*
X169343989Y-107366715D01*
X169349006Y-107355519D01*
X169351511Y-107339730D01*
X169352339Y-107315670D01*
X169352388Y-107303092D01*
X169351761Y-107276692D01*
X169349064Y-107254674D01*
X169343071Y-107236195D01*
X169332558Y-107220413D01*
X169316300Y-107206486D01*
X169293072Y-107193573D01*
X169261650Y-107180832D01*
X169220807Y-107167420D01*
X169169320Y-107152496D01*
X169109533Y-107136179D01*
X169063204Y-107123445D01*
X169019652Y-107110973D01*
X168981050Y-107099423D01*
X168949573Y-107089459D01*
X168927396Y-107081741D01*
X168918643Y-107078067D01*
X168862499Y-107042507D01*
X168810491Y-106994387D01*
X168787888Y-106967977D01*
X168748095Y-106910600D01*
X168716943Y-106848119D01*
X168693688Y-106778551D01*
X168677583Y-106699915D01*
X168672412Y-106660508D01*
X168671372Y-106644395D01*
X168670415Y-106615419D01*
X168669540Y-106573536D01*
X168668747Y-106518702D01*
X168668037Y-106450873D01*
X168667408Y-106370004D01*
X168666860Y-106276050D01*
X168666394Y-106168969D01*
X168666008Y-106048715D01*
X168665704Y-105915245D01*
X168665479Y-105768514D01*
X168665335Y-105608478D01*
X168665271Y-105435092D01*
X168665267Y-105379554D01*
X168665267Y-104162671D01*
X168546278Y-103982112D01*
X168517361Y-103938372D01*
X168490775Y-103898429D01*
X168467418Y-103863610D01*
X168448186Y-103835241D01*
X168433978Y-103814648D01*
X168425689Y-103803159D01*
X168423937Y-103801187D01*
X168418870Y-103806147D01*
X168408410Y-103819639D01*
X168394575Y-103839023D01*
X168390714Y-103844644D01*
X168373405Y-103869055D01*
X168351039Y-103899220D01*
X168327069Y-103930530D01*
X168313006Y-103948384D01*
X168231512Y-104045463D01*
X168143928Y-104139942D01*
X168049359Y-104232560D01*
X167946907Y-104324059D01*
X167835679Y-104415181D01*
X167714779Y-104506666D01*
X167583312Y-104599255D01*
X167440381Y-104693690D01*
X167324544Y-104766530D01*
X167254156Y-104809938D01*
X167250388Y-105748173D01*
X167249859Y-105881066D01*
X167249374Y-106001254D01*
X167248910Y-106109442D01*
X167248442Y-106206330D01*
X167247946Y-106292622D01*
X167247399Y-106369020D01*
X167246775Y-106436228D01*
X167246052Y-106494948D01*
X167245203Y-106545882D01*
X167244207Y-106589734D01*
X167243037Y-106627206D01*
X167241670Y-106659000D01*
X167240082Y-106685821D01*
X167238249Y-106708369D01*
X167236146Y-106727348D01*
X167233749Y-106743462D01*
X167231035Y-106757411D01*
X167227978Y-106769900D01*
X167224555Y-106781630D01*
X167220741Y-106793305D01*
X167216513Y-106805627D01*
X167213715Y-106813776D01*
X167189193Y-106872666D01*
X167157314Y-106929069D01*
X167119922Y-106980614D01*
X167078865Y-107024928D01*
X167035987Y-107059640D01*
X167010799Y-107074546D01*
X166993227Y-107081937D01*
X166964938Y-107091675D01*
X166925520Y-107103880D01*
X166874560Y-107118673D01*
X166811647Y-107136174D01*
X166736367Y-107156504D01*
X166677645Y-107172074D01*
X166645489Y-107183756D01*
X166615486Y-107200270D01*
X166592301Y-107218866D01*
X166586144Y-107226049D01*
X166574300Y-107250267D01*
X166567085Y-107281208D01*
X166565533Y-107312674D01*
X166232931Y-107312674D01*
X166233499Y-107283249D01*
X166240896Y-107206982D01*
X166257246Y-107139463D01*
X166283355Y-107078791D01*
X166320029Y-107023067D01*
X166364884Y-106973472D01*
X166392009Y-106948458D01*
X166419011Y-106926972D01*
X166447713Y-106908182D01*
X166479936Y-106891261D01*
X166517502Y-106875379D01*
X166562231Y-106859706D01*
X166615945Y-106843413D01*
X166680465Y-106825671D01*
X166701922Y-106820014D01*
X166749051Y-106807587D01*
X166785024Y-106797754D01*
X166811685Y-106789840D01*
X166830882Y-106783164D01*
X166844457Y-106777048D01*
X166854258Y-106770814D01*
X166862129Y-106763784D01*
X166865973Y-106759698D01*
X166880609Y-106739517D01*
X166894298Y-106714102D01*
X166899491Y-106701588D01*
X166901348Y-106696065D01*
X166903020Y-106689817D01*
X166904517Y-106682133D01*
X166905851Y-106672304D01*
X166907033Y-106659619D01*
X166908076Y-106643367D01*
X166908990Y-106622840D01*
X166909787Y-106597325D01*
X166910479Y-106566114D01*
X166911078Y-106528495D01*
X166911594Y-106483760D01*
X166912040Y-106431196D01*
X166912427Y-106370095D01*
X166912767Y-106299745D01*
X166913070Y-106219437D01*
X166913350Y-106128460D01*
X166913617Y-106026105D01*
X166913883Y-105911660D01*
X166914118Y-105803592D01*
X166915964Y-104940888D01*
X166847082Y-104964106D01*
X166733243Y-104997911D01*
X166607382Y-105026625D01*
X166469435Y-105050257D01*
X166319336Y-105068815D01*
X166157018Y-105082306D01*
X165982417Y-105090739D01*
X165795467Y-105094121D01*
X165770981Y-105094189D01*
X165675455Y-105094299D01*
X165675455Y-104601583D01*
X165675455Y-104108867D01*
X165784389Y-104108836D01*
X165865447Y-104107714D01*
X165953278Y-104104555D01*
X166044241Y-104099607D01*
X166134689Y-104093116D01*
X166220981Y-104085328D01*
X166299472Y-104076491D01*
X166336933Y-104071427D01*
X166382580Y-104063138D01*
X166422060Y-104051696D01*
X166462573Y-104035007D01*
X166463246Y-104034697D01*
X166490019Y-104022144D01*
X166506473Y-104013490D01*
X166514505Y-104007107D01*
X166516011Y-104001369D01*
X166512888Y-103994649D01*
X166511846Y-103993000D01*
X166507402Y-103985569D01*
X166496573Y-103967225D01*
X166479744Y-103938626D01*
X166457302Y-103900430D01*
X166429632Y-103853296D01*
X166397121Y-103797881D01*
X166360155Y-103734845D01*
X166319118Y-103664844D01*
X166274399Y-103588538D01*
X166226381Y-103506585D01*
X166175452Y-103419643D01*
X166121997Y-103328370D01*
X166066402Y-103233425D01*
X166010841Y-103138519D01*
X165953661Y-103040905D01*
X165898290Y-102946509D01*
X165845108Y-102855972D01*
X165794496Y-102769939D01*
X165746835Y-102689053D01*
X165702508Y-102613957D01*
X165661894Y-102545296D01*
X165625375Y-102483714D01*
X165593332Y-102429852D01*
X165566146Y-102384356D01*
X165544199Y-102347868D01*
X165527871Y-102321032D01*
X165517543Y-102304492D01*
X165513602Y-102298891D01*
X165513043Y-102305492D01*
X165512498Y-102324882D01*
X165511971Y-102356445D01*
X165511464Y-102399564D01*
X165510980Y-102453620D01*
X165510521Y-102517996D01*
X165510090Y-102592076D01*
X165509690Y-102675241D01*
X165509322Y-102766875D01*
X165508989Y-102866359D01*
X165508695Y-102973078D01*
X165508441Y-103086412D01*
X165508230Y-103205746D01*
X165508064Y-103330461D01*
X165507947Y-103459941D01*
X165507880Y-103593567D01*
X165507864Y-103696595D01*
X165507864Y-105094299D01*
X164312945Y-105094241D01*
X164152965Y-105094194D01*
X164002312Y-105094069D01*
X163861306Y-105093868D01*
X163730267Y-105093592D01*
X163609517Y-105093244D01*
X163499375Y-105092824D01*
X163400162Y-105092336D01*
X163312198Y-105091780D01*
X163235803Y-105091158D01*
X163171299Y-105090473D01*
X163119005Y-105089725D01*
X163079242Y-105088917D01*
X163052331Y-105088049D01*
X163040934Y-105087376D01*
X162944030Y-105074185D01*
X162857528Y-105052602D01*
X162781312Y-105022553D01*
X162715267Y-104983963D01*
X162659277Y-104936756D01*
X162613228Y-104880859D01*
X162577005Y-104816195D01*
X162560365Y-104774392D01*
X162552804Y-104751164D01*
X162547678Y-104730656D01*
X162544522Y-104709208D01*
X162542870Y-104683161D01*
X162542255Y-104648856D01*
X162542195Y-104631749D01*
X162542827Y-104617779D01*
X162873696Y-104617779D01*
X162876091Y-104653314D01*
X162886055Y-104683395D01*
X162896930Y-104698914D01*
X162922916Y-104718303D01*
X162959495Y-104734454D01*
X163004044Y-104746402D01*
X163040697Y-104751978D01*
X163053057Y-104752580D01*
X163078057Y-104753153D01*
X163114930Y-104753694D01*
X163162909Y-104754199D01*
X163221228Y-104754666D01*
X163289120Y-104755091D01*
X163365816Y-104755470D01*
X163450552Y-104755802D01*
X163542559Y-104756081D01*
X163641071Y-104756306D01*
X163745320Y-104756472D01*
X163854540Y-104756578D01*
X163967965Y-104756619D01*
X164084826Y-104756592D01*
X164133623Y-104756561D01*
X165176035Y-104755766D01*
X165177553Y-103237397D01*
X165179072Y-101719028D01*
X164982759Y-101383847D01*
X164940522Y-101311563D01*
X164904421Y-101249733D01*
X164873601Y-101197372D01*
X164847205Y-101153496D01*
X164824378Y-101117118D01*
X164804262Y-101087254D01*
X164786004Y-101062919D01*
X164768746Y-101043128D01*
X164751632Y-101026895D01*
X164733807Y-101013236D01*
X164714414Y-101001165D01*
X164692598Y-100989697D01*
X164667503Y-100977847D01*
X164638272Y-100964630D01*
X164605593Y-100949772D01*
X164553559Y-100925259D01*
X164511143Y-100903817D01*
X164475450Y-100883700D01*
X164443588Y-100863160D01*
X164412662Y-100840450D01*
X164379780Y-100813823D01*
X164378009Y-100812337D01*
X164315125Y-100752366D01*
X164263584Y-100687063D01*
X164222166Y-100614584D01*
X164189652Y-100533084D01*
X164186234Y-100522433D01*
X164179637Y-100499491D01*
X164175189Y-100478108D01*
X164172517Y-100454732D01*
X164171246Y-100425811D01*
X164171002Y-100387793D01*
X164171021Y-100383757D01*
X164503108Y-100383757D01*
X164507515Y-100415785D01*
X164517175Y-100447793D01*
X164533341Y-100483895D01*
X164556001Y-100516969D01*
X164586394Y-100548047D01*
X164625761Y-100578159D01*
X164675343Y-100608336D01*
X164736379Y-100639608D01*
X164762946Y-100652044D01*
X164839068Y-100688705D01*
X164903459Y-100723827D01*
X164957538Y-100758500D01*
X165002720Y-100793813D01*
X165040424Y-100830853D01*
X165072066Y-100870711D01*
X165094994Y-100907160D01*
X165104578Y-100923872D01*
X165120691Y-100951725D01*
X165143082Y-100990291D01*
X165171503Y-101039145D01*
X165205705Y-101097859D01*
X165245437Y-101166007D01*
X165290451Y-101243160D01*
X165340497Y-101328894D01*
X165395326Y-101422779D01*
X165454688Y-101524391D01*
X165518335Y-101633301D01*
X165586015Y-101749083D01*
X165657482Y-101871311D01*
X165732484Y-101999556D01*
X165810772Y-102133392D01*
X165892098Y-102272393D01*
X165976211Y-102416131D01*
X166062863Y-102564179D01*
X166103474Y-102633555D01*
X166697697Y-103648636D01*
X166703726Y-103622338D01*
X166704397Y-103612835D01*
X166705074Y-103590568D01*
X166705753Y-103556178D01*
X166706429Y-103510308D01*
X166707098Y-103453601D01*
X166707755Y-103386699D01*
X166708395Y-103310244D01*
X166709014Y-103224879D01*
X166709607Y-103131247D01*
X166710170Y-103029989D01*
X166710698Y-102921749D01*
X166711187Y-102807169D01*
X166711631Y-102686890D01*
X166712027Y-102561557D01*
X166712370Y-102431810D01*
X166712457Y-102394653D01*
X166715158Y-101193265D01*
X166681535Y-101127451D01*
X166660826Y-101085835D01*
X166645851Y-101052431D01*
X166635556Y-101023890D01*
X166628887Y-100996861D01*
X166624790Y-100967996D01*
X166622582Y-100940173D01*
X166623106Y-100870290D01*
X166634002Y-100808577D01*
X166655403Y-100754545D01*
X166685448Y-100710050D01*
X166707184Y-100688481D01*
X166739900Y-100662032D01*
X166782449Y-100631534D01*
X166833683Y-100597820D01*
X166878754Y-100569936D01*
X166909708Y-100550813D01*
X166937918Y-100532591D01*
X166960647Y-100517091D01*
X166975160Y-100506135D01*
X166977014Y-100504482D01*
X166999701Y-100475331D01*
X167017456Y-100437596D01*
X167029477Y-100395079D01*
X167034962Y-100351582D01*
X167033107Y-100310905D01*
X167024451Y-100279738D01*
X166997941Y-100228137D01*
X166969492Y-100189168D01*
X166938555Y-100162128D01*
X166927585Y-100155639D01*
X166892161Y-100136975D01*
X165792768Y-100136975D01*
X165650346Y-100136980D01*
X165520710Y-100137000D01*
X165403241Y-100137042D01*
X165297318Y-100137112D01*
X165202321Y-100137217D01*
X165117630Y-100137363D01*
X165042623Y-100137558D01*
X164976682Y-100137807D01*
X164919185Y-100138118D01*
X164869511Y-100138496D01*
X164827042Y-100138950D01*
X164791156Y-100139485D01*
X164761232Y-100140108D01*
X164736652Y-100140825D01*
X164716794Y-100141644D01*
X164701037Y-100142570D01*
X164688762Y-100143611D01*
X164679349Y-100144774D01*
X164672176Y-100146064D01*
X164666624Y-100147489D01*
X164662072Y-100149055D01*
X164662002Y-100149082D01*
X164616032Y-100173746D01*
X164575560Y-100209223D01*
X164542450Y-100253422D01*
X164518568Y-100304248D01*
X164515561Y-100313392D01*
X164505812Y-100351495D01*
X164503108Y-100383757D01*
X164171021Y-100383757D01*
X164171047Y-100378305D01*
X164171609Y-100337779D01*
X164173055Y-100306808D01*
X164175851Y-100281546D01*
X164180463Y-100258148D01*
X164187355Y-100232767D01*
X164189543Y-100225486D01*
X164222536Y-100138133D01*
X164265547Y-100059622D01*
X164318322Y-99990213D01*
X164380601Y-99930166D01*
X164452130Y-99879741D01*
X164532650Y-99839198D01*
X164593062Y-99817201D01*
X164605392Y-99813528D01*
X164617672Y-99810503D01*
X164631349Y-99808050D01*
X164647869Y-99806090D01*
X164668678Y-99804544D01*
X164695224Y-99803334D01*
X164728953Y-99802382D01*
X164771311Y-99801611D01*
X164823745Y-99800941D01*
X164887701Y-99800295D01*
X164909567Y-99800092D01*
X165179387Y-99797616D01*
X165179387Y-98634834D01*
X165179387Y-97472052D01*
X164088374Y-97473846D01*
X162997360Y-97475640D01*
X162958069Y-97491483D01*
X162932965Y-97503321D01*
X162909693Y-97517125D01*
X162897736Y-97526143D01*
X162887139Y-97536389D01*
X162880869Y-97546188D01*
X162877794Y-97559376D01*
X162876783Y-97579789D01*
X162876695Y-97597446D01*
X162879389Y-97638190D01*
X162888260Y-97669003D01*
X162904493Y-97692394D01*
X162929274Y-97710877D01*
X162930585Y-97711620D01*
X162945706Y-97718710D01*
X162970816Y-97728944D01*
X163003170Y-97741269D01*
X163040023Y-97754629D01*
X163067635Y-97764241D01*
X163121931Y-97783146D01*
X163165294Y-97799169D01*
X163199647Y-97813223D01*
X163226916Y-97826224D01*
X163249024Y-97839085D01*
X163267898Y-97852721D01*
X163284755Y-97867385D01*
X163333320Y-97921005D01*
X163372567Y-97982690D01*
X163402776Y-98053081D01*
X163424225Y-98132821D01*
X163436639Y-98216761D01*
X163437285Y-98229683D01*
X163437890Y-98254980D01*
X163438453Y-98292705D01*
X163438974Y-98342908D01*
X163439454Y-98405643D01*
X163439892Y-98480959D01*
X163440289Y-98568910D01*
X163440645Y-98669545D01*
X163440959Y-98782916D01*
X163441232Y-98909076D01*
X163441464Y-99048075D01*
X163441655Y-99199965D01*
X163441806Y-99364797D01*
X163441915Y-99542624D01*
X163441984Y-99733496D01*
X163442012Y-99937465D01*
X163441999Y-100154582D01*
X163441946Y-100384899D01*
X163441853Y-100628468D01*
X163441720Y-100885339D01*
X163441546Y-101155565D01*
X163441541Y-101162628D01*
X163439519Y-104038479D01*
X163424931Y-104101307D01*
X163400229Y-104180844D01*
X163364705Y-104255216D01*
X163327747Y-104311227D01*
X163308466Y-104335437D01*
X163289631Y-104355838D01*
X163269442Y-104373467D01*
X163246102Y-104389357D01*
X163217809Y-104404544D01*
X163182765Y-104420063D01*
X163139171Y-104436948D01*
X163085228Y-104456235D01*
X163061138Y-104464582D01*
X163008870Y-104483164D01*
X162968001Y-104499272D01*
X162936978Y-104513896D01*
X162914248Y-104528028D01*
X162898257Y-104542657D01*
X162887453Y-104558775D01*
X162880282Y-104577370D01*
X162879415Y-104580466D01*
X162873696Y-104617779D01*
X162542827Y-104617779D01*
X162545537Y-104557844D01*
X162556308Y-104493068D01*
X162575320Y-104434890D01*
X162603383Y-104380779D01*
X162638244Y-104331976D01*
X162665992Y-104300026D01*
X162695050Y-104272246D01*
X162727294Y-104247529D01*
X162764598Y-104224768D01*
X162808836Y-104202856D01*
X162861883Y-104180686D01*
X162925613Y-104157152D01*
X162946776Y-104149771D01*
X162986635Y-104135523D01*
X163021052Y-104122267D01*
X163048062Y-104110822D01*
X163065701Y-104102009D01*
X163071552Y-104097683D01*
X163079226Y-104084312D01*
X163088244Y-104063956D01*
X163092802Y-104051887D01*
X163093765Y-104048706D01*
X163094675Y-104044531D01*
X163095534Y-104038984D01*
X163096343Y-104031688D01*
X163097105Y-104022268D01*
X163097822Y-104010345D01*
X163098494Y-103995545D01*
X163099124Y-103977489D01*
X163099713Y-103955802D01*
X163100264Y-103930106D01*
X163100778Y-103900025D01*
X163101256Y-103865183D01*
X163101702Y-103825203D01*
X163102115Y-103779708D01*
X163102499Y-103728322D01*
X163102854Y-103670667D01*
X163103183Y-103606368D01*
X163103487Y-103535047D01*
X163103769Y-103456328D01*
X163104030Y-103369835D01*
X163104271Y-103275191D01*
X163104495Y-103172018D01*
X163104703Y-103059941D01*
X163104897Y-102938583D01*
X163105078Y-102807567D01*
X163105250Y-102666517D01*
X163105412Y-102515055D01*
X163105568Y-102352806D01*
X163105718Y-102179393D01*
X163105865Y-101994438D01*
X163106011Y-101797566D01*
X163106156Y-101588400D01*
X163106304Y-101366563D01*
X163106448Y-101142517D01*
X163106603Y-100877111D01*
X163106721Y-100625010D01*
X163106802Y-100386112D01*
X163106847Y-100160316D01*
X163106854Y-99947519D01*
X163106824Y-99747621D01*
X163106757Y-99560517D01*
X163106652Y-99386108D01*
X163106509Y-99224291D01*
X163106328Y-99074963D01*
X163106108Y-98938024D01*
X163105851Y-98813371D01*
X163105554Y-98700902D01*
X163105219Y-98600516D01*
X163104845Y-98512111D01*
X163104432Y-98435584D01*
X163103980Y-98370833D01*
X163103488Y-98317758D01*
X163102956Y-98276255D01*
X163102385Y-98246224D01*
X163101773Y-98227561D01*
X163101273Y-98220862D01*
X163092740Y-98181787D01*
X163080585Y-98149275D01*
X163065925Y-98125806D01*
X163053868Y-98115582D01*
X163043080Y-98111018D01*
X163022007Y-98103088D01*
X162993080Y-98092672D01*
X162958730Y-98080648D01*
X162931904Y-98071455D01*
X162874579Y-98051367D01*
X162827902Y-98033324D01*
X162789535Y-98016039D01*
X162757140Y-97998225D01*
X162728378Y-97978593D01*
X162700911Y-97955857D01*
X162672401Y-97928728D01*
X162671996Y-97928324D01*
X162626941Y-97877771D01*
X162592765Y-97825946D01*
X162567197Y-97768970D01*
X162554031Y-97727025D01*
X162547308Y-97692196D01*
X162543129Y-97649254D01*
X162541496Y-97602231D01*
X162542410Y-97555161D01*
X162545871Y-97512076D01*
X162551880Y-97477009D01*
X162553986Y-97469286D01*
X162581955Y-97398525D01*
X162620340Y-97335960D01*
X162669247Y-97281499D01*
X162728781Y-97235048D01*
X162799048Y-97196513D01*
X162880154Y-97165801D01*
X162904369Y-97158715D01*
X162970546Y-97140459D01*
X164239205Y-97138664D01*
X165507864Y-97136870D01*
X165507864Y-98467656D01*
G37*
D13*
%TO.C,SW1*%
X138015000Y-97515000D02*
X151985000Y-97515000D01*
X138015000Y-111485000D02*
X138015000Y-97515000D01*
X151985000Y-97515000D02*
X151985000Y-111485000D01*
X151985000Y-111485000D02*
X138015000Y-111485000D01*
%TD*%
M02*
