%TF.GenerationSoftware,KiCad,Pcbnew,8.0.6*%
%TF.CreationDate,2024-12-06T21:46:26+09:00*%
%TF.ProjectId,dummy_keyboard,64756d6d-795f-46b6-9579-626f6172642e,rev?*%
%TF.SameCoordinates,Original*%
%TF.FileFunction,Copper,L2,Bot*%
%TF.FilePolarity,Positive*%
%FSLAX46Y46*%
G04 Gerber Fmt 4.6, Leading zero omitted, Abs format (unit mm)*
G04 Created by KiCad (PCBNEW 8.0.6) date 2024-12-06 21:46:26*
%MOMM*%
%LPD*%
G01*
G04 APERTURE LIST*
%ADD10C,0.300000*%
%TA.AperFunction,NonConductor*%
%ADD11C,0.300000*%
%TD*%
%ADD12C,0.200000*%
%TA.AperFunction,NonConductor*%
%ADD13C,0.200000*%
%TD*%
%TA.AperFunction,ComponentPad*%
%ADD14C,2.200000*%
%TD*%
%TA.AperFunction,ViaPad*%
%ADD15C,5.000000*%
%TD*%
G04 APERTURE END LIST*
D10*
D11*
D10*
D11*
D12*
D13*
G36*
X178415980Y-113918000D02*
G01*
X178426228Y-113965988D01*
X178426238Y-113967826D01*
X178415980Y-114016430D01*
X178379099Y-114039633D01*
X178329136Y-114038476D01*
X178319260Y-114040610D01*
X178298988Y-114063813D01*
X178298988Y-114755509D01*
X178318527Y-114774560D01*
X178368349Y-114774026D01*
X178378855Y-114773094D01*
X178415980Y-114793367D01*
X178426228Y-114841354D01*
X178426238Y-114843192D01*
X178416611Y-114891971D01*
X178415980Y-114893262D01*
X178379344Y-114915000D01*
X178328292Y-114912187D01*
X178277626Y-114910071D01*
X178227347Y-114908650D01*
X178199581Y-114908161D01*
X178149099Y-114908588D01*
X178095839Y-114909870D01*
X178046957Y-114911694D01*
X177995948Y-114914171D01*
X177980983Y-114915000D01*
X177926269Y-114911666D01*
X177876002Y-114901666D01*
X177821554Y-114880867D01*
X177773512Y-114850467D01*
X177731875Y-114810467D01*
X177707676Y-114778468D01*
X177683260Y-114735524D01*
X177662982Y-114686986D01*
X177646843Y-114632856D01*
X177634842Y-114573132D01*
X177628220Y-114521326D01*
X177624248Y-114465940D01*
X177622923Y-114406974D01*
X177768492Y-114406974D01*
X177770156Y-114465589D01*
X177775147Y-114519159D01*
X177783465Y-114567685D01*
X177797839Y-114619256D01*
X177820665Y-114670241D01*
X177836636Y-114694937D01*
X177871715Y-114733308D01*
X177913478Y-114759122D01*
X177961926Y-114772378D01*
X177991730Y-114774316D01*
X178157571Y-114774316D01*
X178157571Y-114039633D01*
X177991730Y-114039633D01*
X177939568Y-114045796D01*
X177894091Y-114064285D01*
X177855299Y-114095101D01*
X177836636Y-114117547D01*
X177810084Y-114163036D01*
X177792516Y-114209970D01*
X177779739Y-114264238D01*
X177772751Y-114315063D01*
X177769091Y-114370980D01*
X177768492Y-114406974D01*
X177622923Y-114406974D01*
X177624248Y-114347669D01*
X177628220Y-114291997D01*
X177634842Y-114239958D01*
X177644112Y-114191552D01*
X177659423Y-114136154D01*
X177678873Y-114086432D01*
X177702461Y-114042388D01*
X177707676Y-114034260D01*
X177738369Y-113995279D01*
X177781074Y-113957223D01*
X177830184Y-113928681D01*
X177885699Y-113909653D01*
X177936856Y-113901063D01*
X177980983Y-113898949D01*
X178031682Y-113901614D01*
X178080767Y-113903624D01*
X178134890Y-113905120D01*
X178186906Y-113905761D01*
X178199581Y-113905788D01*
X178248540Y-113904655D01*
X178298697Y-113902903D01*
X178350051Y-113900533D01*
X178379099Y-113898949D01*
X178415980Y-113918000D01*
G37*
G36*
X177387718Y-114318314D02*
G01*
X177387718Y-114708859D01*
X177383627Y-114759005D01*
X177369244Y-114809471D01*
X177344506Y-114853638D01*
X177322260Y-114879584D01*
X177279072Y-114911816D01*
X177233448Y-114931612D01*
X177181016Y-114943072D01*
X177129553Y-114946263D01*
X177079450Y-114941808D01*
X177032158Y-114927238D01*
X177029413Y-114925990D01*
X176983656Y-114903665D01*
X176955652Y-114886423D01*
X176941242Y-114883492D01*
X176927808Y-114915488D01*
X176877244Y-114912157D01*
X176827216Y-114910865D01*
X176820586Y-114910847D01*
X176769219Y-114912019D01*
X176731681Y-114915000D01*
X176692114Y-114895216D01*
X176680193Y-114847059D01*
X176680146Y-114843192D01*
X176690879Y-114795092D01*
X176692358Y-114792634D01*
X176731681Y-114774316D01*
X176738032Y-114774316D01*
X176785170Y-114776025D01*
X176802023Y-114743053D01*
X176802023Y-114163953D01*
X176850917Y-114167292D01*
X176903199Y-114168795D01*
X176913642Y-114168838D01*
X176964139Y-114167800D01*
X177004256Y-114164685D01*
X177043335Y-114183981D01*
X177054082Y-114227212D01*
X177043335Y-114270443D01*
X177004256Y-114289738D01*
X176957362Y-114288028D01*
X176943440Y-114309766D01*
X176943440Y-114712522D01*
X176975250Y-114749917D01*
X177016183Y-114778296D01*
X177022330Y-114781399D01*
X177069324Y-114798754D01*
X177119480Y-114805366D01*
X177131018Y-114805579D01*
X177181227Y-114798776D01*
X177208932Y-114786284D01*
X177240134Y-114748044D01*
X177246301Y-114710568D01*
X177246301Y-114164197D01*
X177297348Y-114166578D01*
X177347624Y-114167360D01*
X177355233Y-114167372D01*
X177405189Y-114166858D01*
X177448534Y-114164685D01*
X177484926Y-114183004D01*
X177494207Y-114227212D01*
X177484926Y-114270198D01*
X177448290Y-114289738D01*
X177403593Y-114290471D01*
X177387718Y-114318314D01*
G37*
G36*
X176460816Y-114045983D02*
G01*
X176460816Y-114763080D01*
X176486461Y-114774316D01*
X176535517Y-114774565D01*
X176540683Y-114774316D01*
X176577564Y-114796053D01*
X176587822Y-114844658D01*
X176578195Y-114893436D01*
X176577564Y-114894727D01*
X176541172Y-114915000D01*
X176489703Y-114915000D01*
X176443475Y-114915000D01*
X176392077Y-114915000D01*
X176340332Y-114915000D01*
X176319399Y-114915000D01*
X176319399Y-114605300D01*
X176233182Y-114532759D01*
X176096894Y-114741343D01*
X176081995Y-114773583D01*
X176088834Y-114774560D01*
X176131332Y-114793855D01*
X176144908Y-114841199D01*
X176145010Y-114842948D01*
X176133549Y-114891298D01*
X176132798Y-114892529D01*
X176088256Y-114915081D01*
X176086392Y-114915000D01*
X176037161Y-114914209D01*
X175985870Y-114913855D01*
X175943021Y-114913778D01*
X175892028Y-114914522D01*
X175840920Y-114914980D01*
X175831158Y-114915000D01*
X175791346Y-114890819D01*
X175779378Y-114841727D01*
X175790610Y-114793850D01*
X175791346Y-114792634D01*
X175831646Y-114774316D01*
X175849232Y-114774316D01*
X175884647Y-114775781D01*
X175905163Y-114764302D01*
X176123517Y-114444344D01*
X175915910Y-114289494D01*
X175890509Y-114273862D01*
X175863886Y-114272641D01*
X175839218Y-114272641D01*
X175795743Y-114252369D01*
X175782065Y-114206207D01*
X175795987Y-114160045D01*
X175839951Y-114142215D01*
X175890672Y-114146109D01*
X175942086Y-114148386D01*
X175989427Y-114149054D01*
X176041801Y-114148935D01*
X176092746Y-114146765D01*
X176136706Y-114142459D01*
X176176517Y-114158091D01*
X176187264Y-114203520D01*
X176178471Y-114249438D01*
X176147452Y-114272641D01*
X176124005Y-114276793D01*
X176127424Y-114281678D01*
X176319399Y-114422850D01*
X176319399Y-113890645D01*
X176368880Y-113897043D01*
X176419016Y-113899140D01*
X176433461Y-113898949D01*
X176483968Y-113896411D01*
X176536327Y-113892457D01*
X176540439Y-113892110D01*
X176577320Y-113911161D01*
X176587822Y-113956102D01*
X176577320Y-114002508D01*
X176540439Y-114024002D01*
X176491390Y-114022929D01*
X176487438Y-114023757D01*
X176460816Y-114045983D01*
G37*
G36*
X175596196Y-114323932D02*
G01*
X175401046Y-114825118D01*
X175460642Y-114942843D01*
X175505505Y-114962356D01*
X175513398Y-114963115D01*
X175562745Y-114964375D01*
X175594487Y-114963115D01*
X175625017Y-114961894D01*
X175660676Y-114980457D01*
X175669469Y-115030038D01*
X175660432Y-115079375D01*
X175625750Y-115102578D01*
X175571635Y-115098972D01*
X175522278Y-115096868D01*
X175472304Y-115095846D01*
X175449895Y-115095739D01*
X175396020Y-115096280D01*
X175343947Y-115097669D01*
X175287935Y-115099913D01*
X175235694Y-115102578D01*
X175190309Y-115081808D01*
X175189288Y-115080352D01*
X175176740Y-115031521D01*
X175176831Y-115029549D01*
X175192492Y-114981902D01*
X175193440Y-114980701D01*
X175236427Y-114961894D01*
X175285834Y-114964573D01*
X175304815Y-114962383D01*
X175302128Y-114937958D01*
X174982170Y-114323199D01*
X174960921Y-114295600D01*
X174919155Y-114289738D01*
X174880321Y-114271908D01*
X174867864Y-114227212D01*
X174880321Y-114183736D01*
X174919155Y-114164685D01*
X174967922Y-114168526D01*
X175017610Y-114170106D01*
X175045184Y-114170303D01*
X175097572Y-114169639D01*
X175147939Y-114167648D01*
X175191974Y-114164685D01*
X175232274Y-114182515D01*
X175243021Y-114224525D01*
X175232274Y-114267756D01*
X175192463Y-114289738D01*
X175143691Y-114293316D01*
X175142149Y-114294134D01*
X175138241Y-114317093D01*
X175314829Y-114660743D01*
X175446720Y-114317093D01*
X175450628Y-114292424D01*
X175407641Y-114289738D01*
X175366852Y-114268244D01*
X175354396Y-114224525D01*
X175366852Y-114180806D01*
X175408618Y-114164685D01*
X175458219Y-114168526D01*
X175508251Y-114170106D01*
X175535868Y-114170303D01*
X175585027Y-114168669D01*
X175637250Y-114166148D01*
X175662386Y-114164685D01*
X175699755Y-114183981D01*
X175711967Y-114227212D01*
X175701221Y-114269221D01*
X175662386Y-114289738D01*
X175614759Y-114291448D01*
X175597418Y-114322466D01*
X175596196Y-114323932D01*
G37*
G36*
X174435306Y-114152065D02*
G01*
X174487774Y-114161099D01*
X174536294Y-114176156D01*
X174580867Y-114197235D01*
X174629144Y-114230479D01*
X174665033Y-114264808D01*
X174671737Y-114272397D01*
X174704026Y-114315836D01*
X174729634Y-114363175D01*
X174748562Y-114414411D01*
X174760809Y-114469546D01*
X174765913Y-114518470D01*
X174766748Y-114549124D01*
X174764428Y-114598827D01*
X174755521Y-114655087D01*
X174739933Y-114707655D01*
X174717665Y-114756530D01*
X174688717Y-114801713D01*
X174671737Y-114822920D01*
X174636638Y-114858453D01*
X174597591Y-114887964D01*
X174554597Y-114911452D01*
X174507656Y-114928918D01*
X174456766Y-114940360D01*
X174401930Y-114945781D01*
X174378890Y-114946263D01*
X174322826Y-114943251D01*
X174270650Y-114934217D01*
X174222362Y-114919161D01*
X174177962Y-114898082D01*
X174129814Y-114864837D01*
X174093967Y-114830508D01*
X174087264Y-114822920D01*
X174054975Y-114779583D01*
X174029367Y-114732554D01*
X174010439Y-114681832D01*
X173998192Y-114627419D01*
X173992625Y-114569313D01*
X173992254Y-114549124D01*
X173992321Y-114547658D01*
X174139043Y-114547658D01*
X174142692Y-114598812D01*
X174155518Y-114651068D01*
X174177579Y-114697722D01*
X174197418Y-114725711D01*
X174233474Y-114760653D01*
X174275697Y-114785612D01*
X174324088Y-114800587D01*
X174378646Y-114805579D01*
X174427768Y-114801757D01*
X174477811Y-114788030D01*
X174521351Y-114764319D01*
X174558388Y-114730625D01*
X174562561Y-114725711D01*
X174590188Y-114682793D01*
X174608774Y-114634272D01*
X174618318Y-114580148D01*
X174619713Y-114547658D01*
X174616141Y-114495421D01*
X174603583Y-114442566D01*
X174581984Y-114395970D01*
X174562561Y-114368384D01*
X174526886Y-114333976D01*
X174484342Y-114309399D01*
X174434928Y-114294653D01*
X174386057Y-114289815D01*
X174378646Y-114289738D01*
X174324088Y-114294668D01*
X174275697Y-114309460D01*
X174233474Y-114334114D01*
X174197418Y-114368628D01*
X174169200Y-114411031D01*
X174150217Y-114459655D01*
X174141096Y-114508100D01*
X174139043Y-114547658D01*
X173992321Y-114547658D01*
X173994573Y-114498576D01*
X174003480Y-114441492D01*
X174019068Y-114388306D01*
X174041336Y-114339018D01*
X174070285Y-114293629D01*
X174087264Y-114272397D01*
X174122333Y-114236863D01*
X174161291Y-114207353D01*
X174204136Y-114183864D01*
X174250869Y-114166399D01*
X174301489Y-114154956D01*
X174355998Y-114149536D01*
X174378890Y-114149054D01*
X174435306Y-114152065D01*
G37*
G36*
X173761200Y-114318314D02*
G01*
X173761200Y-114708859D01*
X173757109Y-114759005D01*
X173742726Y-114809471D01*
X173717988Y-114853638D01*
X173695743Y-114879584D01*
X173652554Y-114911816D01*
X173606930Y-114931612D01*
X173554498Y-114943072D01*
X173503035Y-114946263D01*
X173452932Y-114941808D01*
X173405640Y-114927238D01*
X173402896Y-114925990D01*
X173357138Y-114903665D01*
X173329134Y-114886423D01*
X173314724Y-114883492D01*
X173301290Y-114915488D01*
X173250726Y-114912157D01*
X173200698Y-114910865D01*
X173194068Y-114910847D01*
X173142702Y-114912019D01*
X173105163Y-114915000D01*
X173065596Y-114895216D01*
X173053675Y-114847059D01*
X173053628Y-114843192D01*
X173064362Y-114795092D01*
X173065840Y-114792634D01*
X173105163Y-114774316D01*
X173111514Y-114774316D01*
X173158653Y-114776025D01*
X173175505Y-114743053D01*
X173175505Y-114163953D01*
X173224399Y-114167292D01*
X173276681Y-114168795D01*
X173287124Y-114168838D01*
X173337622Y-114167800D01*
X173377739Y-114164685D01*
X173416817Y-114183981D01*
X173427564Y-114227212D01*
X173416817Y-114270443D01*
X173377739Y-114289738D01*
X173330844Y-114288028D01*
X173316922Y-114309766D01*
X173316922Y-114712522D01*
X173348732Y-114749917D01*
X173389665Y-114778296D01*
X173395812Y-114781399D01*
X173442807Y-114798754D01*
X173492962Y-114805366D01*
X173504501Y-114805579D01*
X173554709Y-114798776D01*
X173582414Y-114786284D01*
X173613616Y-114748044D01*
X173619783Y-114710568D01*
X173619783Y-114164197D01*
X173670830Y-114166578D01*
X173721106Y-114167360D01*
X173728715Y-114167372D01*
X173778671Y-114166858D01*
X173822016Y-114164685D01*
X173858408Y-114183004D01*
X173867690Y-114227212D01*
X173858408Y-114270198D01*
X173821772Y-114289738D01*
X173777076Y-114290471D01*
X173761200Y-114318314D01*
G37*
G36*
X172861653Y-114353485D02*
G01*
X172861653Y-114765279D01*
X172876796Y-114777002D01*
X172920516Y-114774560D01*
X172957885Y-114793367D01*
X172966922Y-114841727D01*
X172958441Y-114890579D01*
X172957885Y-114891796D01*
X172921493Y-114915000D01*
X172869273Y-114912636D01*
X172818824Y-114911176D01*
X172785450Y-114910847D01*
X172735534Y-114911642D01*
X172685806Y-114914026D01*
X172671632Y-114915000D01*
X172633775Y-114893750D01*
X172621819Y-114845134D01*
X172621807Y-114843192D01*
X172632326Y-114795307D01*
X172633775Y-114792878D01*
X172672854Y-114774560D01*
X172708757Y-114778712D01*
X172720237Y-114765034D01*
X172720237Y-114368872D01*
X172682207Y-114335136D01*
X172642812Y-114312697D01*
X172593932Y-114297002D01*
X172544441Y-114290298D01*
X172524354Y-114289738D01*
X172474834Y-114294867D01*
X172441556Y-114310254D01*
X172417648Y-114353531D01*
X172414445Y-114386946D01*
X172414445Y-114765034D01*
X172422260Y-114776025D01*
X172450104Y-114774560D01*
X172496755Y-114792390D01*
X172510135Y-114840589D01*
X172510188Y-114844658D01*
X172497751Y-114892178D01*
X172495045Y-114895949D01*
X172450837Y-114915000D01*
X172398797Y-114912810D01*
X172348880Y-114911253D01*
X172317725Y-114910847D01*
X172266638Y-114912019D01*
X172217217Y-114914744D01*
X172213433Y-114915000D01*
X172171667Y-114895460D01*
X172158286Y-114847060D01*
X172158234Y-114843192D01*
X172169267Y-114795153D01*
X172171667Y-114791168D01*
X172214410Y-114774560D01*
X172263503Y-114778712D01*
X172273028Y-114764790D01*
X172273028Y-114348356D01*
X172278476Y-114295638D01*
X172297310Y-114245855D01*
X172329596Y-114205326D01*
X172341905Y-114194972D01*
X172388368Y-114168829D01*
X172438972Y-114154480D01*
X172491327Y-114149233D01*
X172503838Y-114149054D01*
X172555941Y-114152248D01*
X172607194Y-114162918D01*
X172632554Y-114171769D01*
X172678079Y-114194238D01*
X172701674Y-114209870D01*
X172705582Y-114211092D01*
X172717306Y-114218175D01*
X172718039Y-114179584D01*
X172769523Y-114182757D01*
X172820846Y-114184184D01*
X172830635Y-114184225D01*
X172879791Y-114183122D01*
X172920760Y-114180317D01*
X172957641Y-114197658D01*
X172966913Y-114245816D01*
X172966922Y-114247728D01*
X172958441Y-114296492D01*
X172957885Y-114297798D01*
X172921249Y-114321001D01*
X172878750Y-114323199D01*
X172861653Y-114353485D01*
G37*
G36*
X171767810Y-114153055D02*
G01*
X171821110Y-114165059D01*
X171869705Y-114185066D01*
X171913594Y-114213076D01*
X171952778Y-114249089D01*
X171964794Y-114262871D01*
X171993264Y-114302896D01*
X172015844Y-114346219D01*
X172032534Y-114392839D01*
X172043333Y-114442756D01*
X172048242Y-114495970D01*
X172048569Y-114514441D01*
X172045624Y-114568798D01*
X172036788Y-114619943D01*
X172022062Y-114667876D01*
X172001445Y-114712599D01*
X171974938Y-114754109D01*
X171964794Y-114767233D01*
X171927178Y-114806826D01*
X171884858Y-114838227D01*
X171837831Y-114861437D01*
X171786099Y-114876455D01*
X171729662Y-114883281D01*
X171709804Y-114883736D01*
X171660336Y-114880511D01*
X171611382Y-114869895D01*
X171602093Y-114866884D01*
X171554863Y-114849167D01*
X171513921Y-114823897D01*
X171513921Y-114829515D01*
X171522870Y-114879688D01*
X171552523Y-114922991D01*
X171568143Y-114935760D01*
X171612555Y-114959539D01*
X171662395Y-114972590D01*
X171714961Y-114977363D01*
X171727634Y-114977526D01*
X171778105Y-114972790D01*
X171821667Y-114964092D01*
X171870760Y-114952735D01*
X171907641Y-114940157D01*
X171957658Y-114937208D01*
X171960642Y-114938691D01*
X171993370Y-114975572D01*
X171997177Y-115024888D01*
X171996301Y-115028328D01*
X171968394Y-115068501D01*
X171958199Y-115074979D01*
X171911366Y-115094945D01*
X171864051Y-115107122D01*
X171851953Y-115109417D01*
X171801591Y-115115427D01*
X171749216Y-115117995D01*
X171727634Y-115118210D01*
X171673515Y-115115539D01*
X171622899Y-115107528D01*
X171575787Y-115094175D01*
X171525251Y-115071848D01*
X171479483Y-115042250D01*
X171437799Y-115004582D01*
X171406353Y-114961887D01*
X171385146Y-114914168D01*
X171374176Y-114861423D01*
X171372505Y-114829026D01*
X171372505Y-114514441D01*
X171511235Y-114514441D01*
X171515118Y-114564407D01*
X171528542Y-114614668D01*
X171551554Y-114659395D01*
X171560327Y-114671734D01*
X171597503Y-114709343D01*
X171642168Y-114733023D01*
X171694322Y-114742774D01*
X171705652Y-114743053D01*
X171754985Y-114737411D01*
X171802412Y-114717910D01*
X171842063Y-114684479D01*
X171852442Y-114671734D01*
X171878331Y-114628667D01*
X171894631Y-114580066D01*
X171901103Y-114531595D01*
X171901535Y-114514441D01*
X171897671Y-114463883D01*
X171884314Y-114413508D01*
X171861416Y-114369239D01*
X171852686Y-114357149D01*
X171815344Y-114321600D01*
X171770178Y-114299217D01*
X171717189Y-114290001D01*
X171705652Y-114289738D01*
X171656910Y-114295070D01*
X171609912Y-114313503D01*
X171570452Y-114345102D01*
X171560083Y-114357149D01*
X171534323Y-114399586D01*
X171518104Y-114448129D01*
X171511664Y-114497039D01*
X171511235Y-114514441D01*
X171372505Y-114514441D01*
X171372505Y-114324909D01*
X171360781Y-114307812D01*
X171311164Y-114305379D01*
X171305826Y-114305369D01*
X171300942Y-114306346D01*
X171258688Y-114287295D01*
X171245267Y-114239825D01*
X171245254Y-114237958D01*
X171257061Y-114189816D01*
X171258688Y-114187156D01*
X171300209Y-114164685D01*
X171351053Y-114167666D01*
X171402058Y-114168838D01*
X171453654Y-114167677D01*
X171503220Y-114165026D01*
X171515631Y-114164197D01*
X171516608Y-114189354D01*
X171543963Y-114179096D01*
X171591400Y-114161685D01*
X171609909Y-114157358D01*
X171659185Y-114151130D01*
X171709804Y-114149054D01*
X171767810Y-114153055D01*
G37*
G36*
X170562107Y-114055753D02*
G01*
X170562107Y-114764790D01*
X170582135Y-114777002D01*
X170631379Y-114774570D01*
X170633426Y-114774316D01*
X170669330Y-114794344D01*
X170679588Y-114843192D01*
X170669961Y-114891971D01*
X170669330Y-114893262D01*
X170634159Y-114915000D01*
X170582581Y-114912037D01*
X170532238Y-114910046D01*
X170488590Y-114909382D01*
X170436104Y-114910309D01*
X170386600Y-114913090D01*
X170364759Y-114915000D01*
X170325924Y-114892285D01*
X170315422Y-114843192D01*
X170325924Y-114795565D01*
X170364515Y-114774316D01*
X170375505Y-114774316D01*
X170412875Y-114776025D01*
X170420690Y-114764546D01*
X170420690Y-114446053D01*
X170086322Y-114446053D01*
X170086322Y-114769675D01*
X170096824Y-114778468D01*
X170141032Y-114774560D01*
X170182065Y-114792634D01*
X170194277Y-114841727D01*
X170184448Y-114889765D01*
X170182309Y-114893750D01*
X170141765Y-114915000D01*
X170090941Y-114911362D01*
X170041522Y-114909651D01*
X170011584Y-114909382D01*
X169960854Y-114910172D01*
X169909229Y-114912811D01*
X169882868Y-114915000D01*
X169843300Y-114896437D01*
X169832808Y-114848050D01*
X169832798Y-114846123D01*
X169842028Y-114796764D01*
X169843300Y-114794099D01*
X169882868Y-114774560D01*
X169931472Y-114778468D01*
X169944905Y-114770163D01*
X169944905Y-114051845D01*
X169934159Y-114040610D01*
X169896789Y-114038412D01*
X169882135Y-114039633D01*
X169843300Y-114016919D01*
X169832798Y-113968558D01*
X169842654Y-113920024D01*
X169843300Y-113918733D01*
X169882623Y-113898949D01*
X169934531Y-113902148D01*
X169984310Y-113904122D01*
X170016957Y-113904567D01*
X170066932Y-113903492D01*
X170119784Y-113900568D01*
X170141765Y-113898949D01*
X170182065Y-113918733D01*
X170194265Y-113966720D01*
X170194277Y-113968558D01*
X170182065Y-114017163D01*
X170142254Y-114039633D01*
X170127355Y-114038412D01*
X170094382Y-114040610D01*
X170086322Y-114050624D01*
X170086322Y-114305369D01*
X170420690Y-114305369D01*
X170420690Y-114054288D01*
X170413607Y-114040366D01*
X170377948Y-114038412D01*
X170364759Y-114039633D01*
X170325924Y-114015453D01*
X170315422Y-113967093D01*
X170325924Y-113918733D01*
X170365491Y-113899193D01*
X170416477Y-113905239D01*
X170466818Y-113907128D01*
X170485903Y-113907254D01*
X170535239Y-113905611D01*
X170586192Y-113902699D01*
X170633914Y-113898949D01*
X170669085Y-113918977D01*
X170679588Y-113967093D01*
X170669330Y-114015209D01*
X170633670Y-114039633D01*
X170584477Y-114037859D01*
X170583112Y-114038168D01*
X170562107Y-114055753D01*
G37*
G36*
X169445673Y-113867686D02*
G01*
X169494708Y-113878966D01*
X169519923Y-113899682D01*
X169541301Y-113945208D01*
X169543614Y-113970024D01*
X169532416Y-114018678D01*
X169519923Y-114037435D01*
X169478325Y-114066191D01*
X169445673Y-114070896D01*
X169397658Y-114059186D01*
X169372644Y-114037679D01*
X169349944Y-113993423D01*
X169347487Y-113970024D01*
X169358322Y-113920782D01*
X169372644Y-113899438D01*
X169413765Y-113872151D01*
X169445673Y-113867686D01*
G37*
G36*
X169493056Y-114317581D02*
G01*
X169493056Y-114752822D01*
X169536531Y-114778224D01*
X169588385Y-114778260D01*
X169638703Y-114774734D01*
X169643510Y-114774316D01*
X169655478Y-114774316D01*
X169702128Y-114793367D01*
X169717212Y-114840937D01*
X169717271Y-114844658D01*
X169703747Y-114891999D01*
X169701884Y-114894483D01*
X169657497Y-114915186D01*
X169655722Y-114915000D01*
X169603096Y-114913701D01*
X169552847Y-114912903D01*
X169499331Y-114912441D01*
X169449825Y-114912313D01*
X169398915Y-114912441D01*
X169347911Y-114912827D01*
X169296814Y-114913470D01*
X169245623Y-114914370D01*
X169216329Y-114915000D01*
X169168885Y-114900227D01*
X169163572Y-114894727D01*
X169145415Y-114848148D01*
X169145254Y-114842459D01*
X169159466Y-114795095D01*
X169163817Y-114789947D01*
X169211274Y-114773575D01*
X169217306Y-114774560D01*
X169266740Y-114780991D01*
X169313538Y-114781154D01*
X169351639Y-114752334D01*
X169351639Y-114163953D01*
X169403825Y-114168119D01*
X169457280Y-114170208D01*
X169506978Y-114170303D01*
X169557892Y-114169416D01*
X169593440Y-114164930D01*
X169640738Y-114180858D01*
X169643021Y-114183736D01*
X169658348Y-114231106D01*
X169658408Y-114235027D01*
X169644884Y-114282369D01*
X169643021Y-114284853D01*
X169598456Y-114305661D01*
X169594661Y-114305369D01*
X169545374Y-114303339D01*
X169536287Y-114303904D01*
X169493056Y-114317581D01*
G37*
G36*
X168769485Y-114153055D02*
G01*
X168822785Y-114165059D01*
X168871380Y-114185066D01*
X168915269Y-114213076D01*
X168954453Y-114249089D01*
X168966468Y-114262871D01*
X168994939Y-114302896D01*
X169017519Y-114346219D01*
X169034209Y-114392839D01*
X169045008Y-114442756D01*
X169049916Y-114495970D01*
X169050244Y-114514441D01*
X169047299Y-114568798D01*
X169038463Y-114619943D01*
X169023737Y-114667876D01*
X169003120Y-114712599D01*
X168976613Y-114754109D01*
X168966468Y-114767233D01*
X168928853Y-114806826D01*
X168886532Y-114838227D01*
X168839506Y-114861437D01*
X168787774Y-114876455D01*
X168731337Y-114883281D01*
X168711479Y-114883736D01*
X168662011Y-114880511D01*
X168613056Y-114869895D01*
X168603768Y-114866884D01*
X168556538Y-114849167D01*
X168515596Y-114823897D01*
X168515596Y-114829515D01*
X168524545Y-114879688D01*
X168554197Y-114922991D01*
X168569818Y-114935760D01*
X168614229Y-114959539D01*
X168664070Y-114972590D01*
X168716636Y-114977363D01*
X168729309Y-114977526D01*
X168779780Y-114972790D01*
X168823342Y-114964092D01*
X168872435Y-114952735D01*
X168909316Y-114940157D01*
X168959333Y-114937208D01*
X168962316Y-114938691D01*
X168995045Y-114975572D01*
X168998852Y-115024888D01*
X168997976Y-115028328D01*
X168970069Y-115068501D01*
X168959874Y-115074979D01*
X168913040Y-115094945D01*
X168865726Y-115107122D01*
X168853628Y-115109417D01*
X168803266Y-115115427D01*
X168750891Y-115117995D01*
X168729309Y-115118210D01*
X168675190Y-115115539D01*
X168624574Y-115107528D01*
X168577462Y-115094175D01*
X168526926Y-115071848D01*
X168481158Y-115042250D01*
X168439474Y-115004582D01*
X168408028Y-114961887D01*
X168386821Y-114914168D01*
X168375851Y-114861423D01*
X168374180Y-114829026D01*
X168374180Y-114514441D01*
X168512909Y-114514441D01*
X168516793Y-114564407D01*
X168530217Y-114614668D01*
X168553229Y-114659395D01*
X168562002Y-114671734D01*
X168599178Y-114709343D01*
X168643843Y-114733023D01*
X168695997Y-114742774D01*
X168707327Y-114743053D01*
X168756659Y-114737411D01*
X168804086Y-114717910D01*
X168843738Y-114684479D01*
X168854117Y-114671734D01*
X168880006Y-114628667D01*
X168896306Y-114580066D01*
X168902778Y-114531595D01*
X168903210Y-114514441D01*
X168899346Y-114463883D01*
X168885989Y-114413508D01*
X168863091Y-114369239D01*
X168854361Y-114357149D01*
X168817019Y-114321600D01*
X168771853Y-114299217D01*
X168718863Y-114290001D01*
X168707327Y-114289738D01*
X168658585Y-114295070D01*
X168611587Y-114313503D01*
X168572126Y-114345102D01*
X168561758Y-114357149D01*
X168535998Y-114399586D01*
X168519779Y-114448129D01*
X168513339Y-114497039D01*
X168512909Y-114514441D01*
X168374180Y-114514441D01*
X168374180Y-114324909D01*
X168362456Y-114307812D01*
X168312839Y-114305379D01*
X168307501Y-114305369D01*
X168302616Y-114306346D01*
X168260362Y-114287295D01*
X168246942Y-114239825D01*
X168246929Y-114237958D01*
X168258736Y-114189816D01*
X168260362Y-114187156D01*
X168301884Y-114164685D01*
X168352727Y-114167666D01*
X168403733Y-114168838D01*
X168455329Y-114167677D01*
X168504895Y-114165026D01*
X168517306Y-114164197D01*
X168518283Y-114189354D01*
X168545638Y-114179096D01*
X168593075Y-114161685D01*
X168611584Y-114157358D01*
X168660860Y-114151130D01*
X168711479Y-114149054D01*
X168769485Y-114153055D01*
G37*
G36*
X168053000Y-114071629D02*
G01*
X168053000Y-114751601D01*
X168063258Y-114776514D01*
X168096231Y-114774316D01*
X168111130Y-114774316D01*
X168154117Y-114792390D01*
X168166317Y-114839874D01*
X168166329Y-114841727D01*
X168155596Y-114889869D01*
X168154117Y-114892529D01*
X168111374Y-114915000D01*
X168060593Y-114912311D01*
X168011644Y-114911046D01*
X167982170Y-114910847D01*
X167933231Y-114911533D01*
X167884050Y-114913588D01*
X167861270Y-114915000D01*
X167822435Y-114893995D01*
X167810235Y-114846510D01*
X167810223Y-114844658D01*
X167820956Y-114796343D01*
X167822435Y-114793855D01*
X167861270Y-114774316D01*
X167881786Y-114774316D01*
X167906943Y-114775537D01*
X167911584Y-114751845D01*
X167911584Y-114371803D01*
X167873466Y-114336330D01*
X167830006Y-114310010D01*
X167781778Y-114295459D01*
X167732340Y-114290055D01*
X167715701Y-114289738D01*
X167666566Y-114297657D01*
X167645603Y-114310010D01*
X167620835Y-114355023D01*
X167616782Y-114394762D01*
X167616782Y-114751845D01*
X167630460Y-114774804D01*
X167664166Y-114774316D01*
X167675401Y-114774316D01*
X167716922Y-114795565D01*
X167727424Y-114844658D01*
X167715964Y-114892763D01*
X167715212Y-114893995D01*
X167675157Y-114915000D01*
X167623339Y-114911576D01*
X167571933Y-114909733D01*
X167537892Y-114909382D01*
X167486993Y-114910309D01*
X167438078Y-114912811D01*
X167408688Y-114915000D01*
X167365701Y-114894239D01*
X167352320Y-114846883D01*
X167352267Y-114843192D01*
X167364289Y-114794849D01*
X167365945Y-114792390D01*
X167409420Y-114774316D01*
X167422609Y-114775781D01*
X167462665Y-114776270D01*
X167473900Y-114751357D01*
X167473900Y-114369849D01*
X167477824Y-114315582D01*
X167491616Y-114263763D01*
X167518588Y-114217653D01*
X167536671Y-114199124D01*
X167579237Y-114172720D01*
X167627947Y-114157317D01*
X167679516Y-114150276D01*
X167715701Y-114149054D01*
X167765476Y-114152560D01*
X167814783Y-114163079D01*
X167828785Y-114167372D01*
X167875686Y-114185404D01*
X167911584Y-114207916D01*
X167911584Y-113897728D01*
X167962123Y-113903895D01*
X168012853Y-113907021D01*
X168030041Y-113907254D01*
X168079423Y-113903905D01*
X168110886Y-113898949D01*
X168154117Y-113919710D01*
X168166317Y-113967439D01*
X168166329Y-113969291D01*
X168154117Y-114017407D01*
X168111130Y-114039633D01*
X168067899Y-114039877D01*
X168053000Y-114071629D01*
G37*
G36*
X166392393Y-114008370D02*
G01*
X166342476Y-114012306D01*
X166292650Y-114027418D01*
X166259525Y-114048670D01*
X166228212Y-114090184D01*
X166214656Y-114139704D01*
X166214340Y-114188377D01*
X166199086Y-114236355D01*
X166193579Y-114241622D01*
X166146599Y-114258327D01*
X166140823Y-114258475D01*
X166093052Y-114243448D01*
X166090509Y-114241378D01*
X166072183Y-114195937D01*
X166072923Y-114187889D01*
X166077528Y-114137896D01*
X166076744Y-114086669D01*
X166075610Y-114069431D01*
X166069489Y-114020410D01*
X166057107Y-113969706D01*
X166048988Y-113949263D01*
X166050003Y-113899762D01*
X166054361Y-113893820D01*
X166097137Y-113868976D01*
X166101011Y-113867930D01*
X166150281Y-113868145D01*
X166154989Y-113869152D01*
X166186985Y-113899682D01*
X166189427Y-113906032D01*
X166190893Y-113914092D01*
X166221667Y-113900170D01*
X166268988Y-113882539D01*
X166299581Y-113875746D01*
X166348360Y-113869961D01*
X166399232Y-113867686D01*
X166448453Y-113869731D01*
X166502858Y-113877585D01*
X166552179Y-113891330D01*
X166603297Y-113914810D01*
X166647495Y-113946307D01*
X166653244Y-113951461D01*
X166687791Y-113989921D01*
X166713852Y-114033921D01*
X166731428Y-114083461D01*
X166740519Y-114138540D01*
X166741905Y-114172501D01*
X166738230Y-114227413D01*
X166727204Y-114276743D01*
X166705052Y-114327241D01*
X166672895Y-114370142D01*
X166637369Y-114400868D01*
X166590466Y-114426676D01*
X166540580Y-114446017D01*
X166487913Y-114461989D01*
X166436072Y-114474972D01*
X166426831Y-114477072D01*
X166396789Y-114483667D01*
X166347162Y-114496474D01*
X166297364Y-114512784D01*
X166252953Y-114534486D01*
X166250488Y-114536179D01*
X166217149Y-114575197D01*
X166206079Y-114625418D01*
X166206036Y-114629235D01*
X166210854Y-114679968D01*
X166227283Y-114726022D01*
X166255373Y-114761859D01*
X166299016Y-114788501D01*
X166350367Y-114802120D01*
X166400453Y-114805579D01*
X166452263Y-114803152D01*
X166501864Y-114794619D01*
X166549998Y-114775846D01*
X166564096Y-114766744D01*
X166599044Y-114729320D01*
X166616906Y-114678504D01*
X166618812Y-114626967D01*
X166618318Y-114620687D01*
X166636136Y-114574418D01*
X166642009Y-114569396D01*
X166690242Y-114555389D01*
X166695987Y-114555474D01*
X166742947Y-114571321D01*
X166746545Y-114574769D01*
X166761686Y-114622773D01*
X166759490Y-114633876D01*
X166749400Y-114683227D01*
X166743341Y-114734836D01*
X166741905Y-114759417D01*
X166741985Y-114809551D01*
X166747374Y-114859099D01*
X166751430Y-114877386D01*
X166741172Y-114922815D01*
X166697452Y-114946018D01*
X166648360Y-114945774D01*
X166618318Y-114909382D01*
X166608304Y-114895704D01*
X166562557Y-114916637D01*
X166560188Y-114917930D01*
X166512801Y-114934734D01*
X166490823Y-114939180D01*
X166442042Y-114945094D01*
X166401919Y-114946263D01*
X166352768Y-114944277D01*
X166298432Y-114936652D01*
X166249162Y-114923308D01*
X166198083Y-114900513D01*
X166153899Y-114869934D01*
X166148150Y-114864930D01*
X166113509Y-114828310D01*
X166087376Y-114786197D01*
X166069751Y-114738591D01*
X166060635Y-114685491D01*
X166059246Y-114652683D01*
X166062247Y-114599327D01*
X166072368Y-114548494D01*
X166084647Y-114515418D01*
X166110489Y-114471909D01*
X166145884Y-114437094D01*
X166151325Y-114433108D01*
X166195507Y-114407044D01*
X166243649Y-114388168D01*
X166292087Y-114375554D01*
X166342545Y-114364425D01*
X166346964Y-114363499D01*
X166396301Y-114352508D01*
X166448291Y-114338381D01*
X166494592Y-114322095D01*
X166536741Y-114299996D01*
X166570809Y-114264587D01*
X166590736Y-114219480D01*
X166596580Y-114170059D01*
X166590398Y-114119443D01*
X166567557Y-114072286D01*
X166552616Y-114055997D01*
X166510102Y-114028881D01*
X166460032Y-114013998D01*
X166405670Y-114008556D01*
X166392393Y-114008370D01*
G37*
G36*
X165524598Y-114289738D02*
G01*
X165473636Y-114292616D01*
X165423314Y-114303954D01*
X165383426Y-114326130D01*
X165353244Y-114367210D01*
X165338063Y-114415375D01*
X165334089Y-114439459D01*
X165311334Y-114483365D01*
X165308199Y-114485376D01*
X165258762Y-114493192D01*
X165256908Y-114492948D01*
X165210912Y-114475002D01*
X165208548Y-114472920D01*
X165194138Y-114428224D01*
X165204370Y-114379373D01*
X165209880Y-114329448D01*
X165210258Y-114322711D01*
X165209073Y-114270822D01*
X165198778Y-114223304D01*
X165200539Y-114173372D01*
X165202930Y-114170792D01*
X165247238Y-114149683D01*
X165251290Y-114149054D01*
X165301529Y-114149801D01*
X165306245Y-114150519D01*
X165334089Y-114182027D01*
X165332623Y-114188621D01*
X165344836Y-114182515D01*
X165358513Y-114175676D01*
X165404671Y-114159476D01*
X165435938Y-114152962D01*
X165487225Y-114149699D01*
X165524598Y-114149054D01*
X165574475Y-114151487D01*
X165630391Y-114160829D01*
X165682014Y-114177178D01*
X165729344Y-114200534D01*
X165772380Y-114230896D01*
X165792288Y-114248705D01*
X165829391Y-114291421D01*
X165858818Y-114339701D01*
X165880568Y-114393545D01*
X165892829Y-114442665D01*
X165899759Y-114495650D01*
X165901465Y-114540819D01*
X165898698Y-114600191D01*
X165890398Y-114655270D01*
X165876564Y-114706055D01*
X165857196Y-114752547D01*
X165832295Y-114794746D01*
X165795109Y-114839717D01*
X165788136Y-114846612D01*
X165747101Y-114880477D01*
X165701480Y-114907336D01*
X165651273Y-114927189D01*
X165596482Y-114940034D01*
X165547320Y-114945387D01*
X165516294Y-114946263D01*
X165462591Y-114944309D01*
X165414078Y-114938447D01*
X165365705Y-114927181D01*
X165332623Y-114915000D01*
X165285725Y-114889577D01*
X165247184Y-114859355D01*
X165211605Y-114821959D01*
X165182903Y-114783353D01*
X165171639Y-114735001D01*
X165173866Y-114726200D01*
X165205956Y-114687359D01*
X165207571Y-114686388D01*
X165255656Y-114675383D01*
X165258862Y-114675886D01*
X165299949Y-114702662D01*
X165301605Y-114705928D01*
X165332813Y-114744721D01*
X165374047Y-114773666D01*
X165384403Y-114778956D01*
X165433624Y-114796193D01*
X165484354Y-114804305D01*
X165516294Y-114805579D01*
X165569692Y-114801075D01*
X165617044Y-114787566D01*
X165663090Y-114761602D01*
X165693614Y-114733527D01*
X165723721Y-114690274D01*
X165743975Y-114639100D01*
X165753707Y-114586961D01*
X165755896Y-114543750D01*
X165752857Y-114492845D01*
X165741943Y-114441108D01*
X165720176Y-114391114D01*
X165692393Y-114353974D01*
X165654631Y-114322922D01*
X165609489Y-114302033D01*
X165556966Y-114291306D01*
X165524598Y-114289738D01*
G37*
G36*
X164949162Y-114071629D02*
G01*
X164949162Y-114751601D01*
X164959420Y-114776514D01*
X164992393Y-114774316D01*
X165007292Y-114774316D01*
X165050279Y-114792390D01*
X165062479Y-114839874D01*
X165062491Y-114841727D01*
X165051757Y-114889869D01*
X165050279Y-114892529D01*
X165007536Y-114915000D01*
X164956755Y-114912311D01*
X164907806Y-114911046D01*
X164878332Y-114910847D01*
X164829393Y-114911533D01*
X164780212Y-114913588D01*
X164757431Y-114915000D01*
X164718597Y-114893995D01*
X164706397Y-114846510D01*
X164706385Y-114844658D01*
X164717118Y-114796343D01*
X164718597Y-114793855D01*
X164757431Y-114774316D01*
X164777948Y-114774316D01*
X164803105Y-114775537D01*
X164807745Y-114751845D01*
X164807745Y-114371803D01*
X164769628Y-114336330D01*
X164726168Y-114310010D01*
X164677940Y-114295459D01*
X164628502Y-114290055D01*
X164611863Y-114289738D01*
X164562728Y-114297657D01*
X164541765Y-114310010D01*
X164516997Y-114355023D01*
X164512944Y-114394762D01*
X164512944Y-114751845D01*
X164526622Y-114774804D01*
X164560327Y-114774316D01*
X164571563Y-114774316D01*
X164613084Y-114795565D01*
X164623586Y-114844658D01*
X164612126Y-114892763D01*
X164611374Y-114893995D01*
X164571318Y-114915000D01*
X164519501Y-114911576D01*
X164468095Y-114909733D01*
X164434054Y-114909382D01*
X164383155Y-114910309D01*
X164334240Y-114912811D01*
X164304849Y-114915000D01*
X164261863Y-114894239D01*
X164248482Y-114846883D01*
X164248429Y-114843192D01*
X164260451Y-114794849D01*
X164262107Y-114792390D01*
X164305582Y-114774316D01*
X164318771Y-114775781D01*
X164358827Y-114776270D01*
X164370062Y-114751357D01*
X164370062Y-114369849D01*
X164373985Y-114315582D01*
X164387778Y-114263763D01*
X164414749Y-114217653D01*
X164432833Y-114199124D01*
X164475399Y-114172720D01*
X164524109Y-114157317D01*
X164575678Y-114150276D01*
X164611863Y-114149054D01*
X164661638Y-114152560D01*
X164710945Y-114163079D01*
X164724947Y-114167372D01*
X164771848Y-114185404D01*
X164807745Y-114207916D01*
X164807745Y-113897728D01*
X164858284Y-113903895D01*
X164909014Y-113907021D01*
X164926203Y-113907254D01*
X164975585Y-113903905D01*
X165007048Y-113898949D01*
X165050279Y-113919710D01*
X165062479Y-113967439D01*
X165062491Y-113969291D01*
X165050279Y-114017407D01*
X165007292Y-114039633D01*
X164964061Y-114039877D01*
X164949162Y-114071629D01*
G37*
G36*
X163802926Y-114152065D02*
G01*
X163855394Y-114161099D01*
X163903915Y-114176156D01*
X163948488Y-114197235D01*
X163996765Y-114230479D01*
X164032653Y-114264808D01*
X164039357Y-114272397D01*
X164071646Y-114315836D01*
X164097254Y-114363175D01*
X164116182Y-114414411D01*
X164128430Y-114469546D01*
X164133533Y-114518470D01*
X164134368Y-114549124D01*
X164132048Y-114598827D01*
X164123141Y-114655087D01*
X164107553Y-114707655D01*
X164085285Y-114756530D01*
X164056337Y-114801713D01*
X164039357Y-114822920D01*
X164004258Y-114858453D01*
X163965212Y-114887964D01*
X163922218Y-114911452D01*
X163875276Y-114928918D01*
X163824387Y-114940360D01*
X163769550Y-114945781D01*
X163746510Y-114946263D01*
X163690447Y-114943251D01*
X163638271Y-114934217D01*
X163589983Y-114919161D01*
X163545582Y-114898082D01*
X163497434Y-114864837D01*
X163461587Y-114830508D01*
X163454884Y-114822920D01*
X163422596Y-114779583D01*
X163396987Y-114732554D01*
X163378059Y-114681832D01*
X163365812Y-114627419D01*
X163360245Y-114569313D01*
X163359874Y-114549124D01*
X163359941Y-114547658D01*
X163506664Y-114547658D01*
X163510312Y-114598812D01*
X163523139Y-114651068D01*
X163545200Y-114697722D01*
X163565038Y-114725711D01*
X163601094Y-114760653D01*
X163643318Y-114785612D01*
X163691708Y-114800587D01*
X163746266Y-114805579D01*
X163795388Y-114801757D01*
X163845431Y-114788030D01*
X163888971Y-114764319D01*
X163926009Y-114730625D01*
X163930181Y-114725711D01*
X163957809Y-114682793D01*
X163976394Y-114634272D01*
X163985938Y-114580148D01*
X163987334Y-114547658D01*
X163983762Y-114495421D01*
X163971204Y-114442566D01*
X163949604Y-114395970D01*
X163930181Y-114368384D01*
X163894506Y-114333976D01*
X163851962Y-114309399D01*
X163802549Y-114294653D01*
X163753677Y-114289815D01*
X163746266Y-114289738D01*
X163691708Y-114294668D01*
X163643318Y-114309460D01*
X163601094Y-114334114D01*
X163565038Y-114368628D01*
X163536820Y-114411031D01*
X163517837Y-114459655D01*
X163508716Y-114508100D01*
X163506664Y-114547658D01*
X163359941Y-114547658D01*
X163362193Y-114498576D01*
X163371101Y-114441492D01*
X163386688Y-114388306D01*
X163408956Y-114339018D01*
X163437905Y-114293629D01*
X163454884Y-114272397D01*
X163489954Y-114236863D01*
X163528911Y-114207353D01*
X163571756Y-114183864D01*
X163618489Y-114166399D01*
X163669110Y-114154956D01*
X163723618Y-114149536D01*
X163746510Y-114149054D01*
X163802926Y-114152065D01*
G37*
G36*
X162883596Y-114152065D02*
G01*
X162936064Y-114161099D01*
X162984584Y-114176156D01*
X163029158Y-114197235D01*
X163077435Y-114230479D01*
X163113323Y-114264808D01*
X163120027Y-114272397D01*
X163152316Y-114315836D01*
X163177924Y-114363175D01*
X163196852Y-114414411D01*
X163209100Y-114469546D01*
X163214203Y-114518470D01*
X163215038Y-114549124D01*
X163212718Y-114598827D01*
X163203811Y-114655087D01*
X163188223Y-114707655D01*
X163165955Y-114756530D01*
X163137007Y-114801713D01*
X163120027Y-114822920D01*
X163084928Y-114858453D01*
X163045882Y-114887964D01*
X163002887Y-114911452D01*
X162955946Y-114928918D01*
X162905057Y-114940360D01*
X162850220Y-114945781D01*
X162827180Y-114946263D01*
X162771116Y-114943251D01*
X162718941Y-114934217D01*
X162670653Y-114919161D01*
X162626252Y-114898082D01*
X162578104Y-114864837D01*
X162542257Y-114830508D01*
X162535554Y-114822920D01*
X162503266Y-114779583D01*
X162477657Y-114732554D01*
X162458729Y-114681832D01*
X162446482Y-114627419D01*
X162440915Y-114569313D01*
X162440544Y-114549124D01*
X162440611Y-114547658D01*
X162587334Y-114547658D01*
X162590982Y-114598812D01*
X162603808Y-114651068D01*
X162625870Y-114697722D01*
X162645708Y-114725711D01*
X162681764Y-114760653D01*
X162723988Y-114785612D01*
X162772378Y-114800587D01*
X162826936Y-114805579D01*
X162876058Y-114801757D01*
X162926101Y-114788030D01*
X162969641Y-114764319D01*
X163006678Y-114730625D01*
X163010851Y-114725711D01*
X163038478Y-114682793D01*
X163057064Y-114634272D01*
X163066608Y-114580148D01*
X163068004Y-114547658D01*
X163064432Y-114495421D01*
X163051874Y-114442566D01*
X163030274Y-114395970D01*
X163010851Y-114368384D01*
X162975176Y-114333976D01*
X162932632Y-114309399D01*
X162883219Y-114294653D01*
X162834347Y-114289815D01*
X162826936Y-114289738D01*
X162772378Y-114294668D01*
X162723988Y-114309460D01*
X162681764Y-114334114D01*
X162645708Y-114368628D01*
X162617490Y-114411031D01*
X162598507Y-114459655D01*
X162589386Y-114508100D01*
X162587334Y-114547658D01*
X162440611Y-114547658D01*
X162442863Y-114498576D01*
X162451771Y-114441492D01*
X162467358Y-114388306D01*
X162489626Y-114339018D01*
X162518575Y-114293629D01*
X162535554Y-114272397D01*
X162570624Y-114236863D01*
X162609581Y-114207353D01*
X162652426Y-114183864D01*
X162699159Y-114166399D01*
X162749780Y-114154956D01*
X162804288Y-114149536D01*
X162827180Y-114149054D01*
X162883596Y-114152065D01*
G37*
G36*
X162081018Y-114050380D02*
G01*
X162081018Y-114766256D01*
X162129638Y-114780387D01*
X162144521Y-114781154D01*
X162195609Y-114780314D01*
X162247662Y-114775502D01*
X162254675Y-114774560D01*
X162299616Y-114790924D01*
X162313280Y-114838394D01*
X162313293Y-114840261D01*
X162302261Y-114888501D01*
X162299860Y-114892529D01*
X162255408Y-114915000D01*
X162202288Y-114910411D01*
X162149662Y-114908270D01*
X162093946Y-114907223D01*
X162039009Y-114906939D01*
X161982786Y-114907223D01*
X161930805Y-114908073D01*
X161875522Y-114909781D01*
X161826013Y-114912260D01*
X161788171Y-114915000D01*
X161741253Y-114897686D01*
X161737613Y-114893262D01*
X161722286Y-114845649D01*
X161722226Y-114841727D01*
X161735750Y-114794386D01*
X161737613Y-114791901D01*
X161784739Y-114773640D01*
X161788660Y-114774316D01*
X161837752Y-114779055D01*
X161888486Y-114781302D01*
X161895150Y-114781154D01*
X161939602Y-114766011D01*
X161939602Y-113898217D01*
X161992571Y-113902467D01*
X162046123Y-113905558D01*
X162098584Y-113906975D01*
X162107397Y-113907009D01*
X162156718Y-113905876D01*
X162205578Y-113901688D01*
X162223656Y-113898949D01*
X162269669Y-113916532D01*
X162270795Y-113918000D01*
X162285879Y-113964840D01*
X162285938Y-113968558D01*
X162273501Y-114016639D01*
X162270795Y-114020582D01*
X162225477Y-114039910D01*
X162223656Y-114039633D01*
X162173574Y-114033386D01*
X162126936Y-114032794D01*
X162081018Y-114050380D01*
G37*
G36*
X161319225Y-114844658D02*
G01*
X161331796Y-114796543D01*
X161354884Y-114769675D01*
X161400451Y-114746796D01*
X161431088Y-114743053D01*
X161481405Y-114752524D01*
X161509979Y-114769919D01*
X161538529Y-114810642D01*
X161544173Y-114844658D01*
X161532118Y-114892256D01*
X161509979Y-114918175D01*
X161466613Y-114941627D01*
X161431088Y-114946263D01*
X161383014Y-114936447D01*
X161354884Y-114918419D01*
X161325110Y-114878511D01*
X161319225Y-114844658D01*
G37*
G36*
X160284368Y-114008370D02*
G01*
X160234451Y-114012306D01*
X160184625Y-114027418D01*
X160151500Y-114048670D01*
X160120187Y-114090184D01*
X160106630Y-114139704D01*
X160106315Y-114188377D01*
X160091061Y-114236355D01*
X160085554Y-114241622D01*
X160038574Y-114258327D01*
X160032798Y-114258475D01*
X159985027Y-114243448D01*
X159982484Y-114241378D01*
X159964158Y-114195937D01*
X159964898Y-114187889D01*
X159969503Y-114137896D01*
X159968718Y-114086669D01*
X159967585Y-114069431D01*
X159961464Y-114020410D01*
X159949082Y-113969706D01*
X159940963Y-113949263D01*
X159941978Y-113899762D01*
X159946336Y-113893820D01*
X159989112Y-113868976D01*
X159992986Y-113867930D01*
X160042256Y-113868145D01*
X160046964Y-113869152D01*
X160078960Y-113899682D01*
X160081402Y-113906032D01*
X160082868Y-113914092D01*
X160113642Y-113900170D01*
X160160963Y-113882539D01*
X160191556Y-113875746D01*
X160240335Y-113869961D01*
X160291207Y-113867686D01*
X160340427Y-113869731D01*
X160394833Y-113877585D01*
X160444154Y-113891330D01*
X160495272Y-113914810D01*
X160539470Y-113946307D01*
X160545219Y-113951461D01*
X160579766Y-113989921D01*
X160605827Y-114033921D01*
X160623403Y-114083461D01*
X160632494Y-114138540D01*
X160633879Y-114172501D01*
X160630204Y-114227413D01*
X160619179Y-114276743D01*
X160597026Y-114327241D01*
X160564869Y-114370142D01*
X160529344Y-114400868D01*
X160482441Y-114426676D01*
X160432555Y-114446017D01*
X160379888Y-114461989D01*
X160328047Y-114474972D01*
X160318806Y-114477072D01*
X160288764Y-114483667D01*
X160239137Y-114496474D01*
X160189339Y-114512784D01*
X160144927Y-114534486D01*
X160142463Y-114536179D01*
X160109124Y-114575197D01*
X160098054Y-114625418D01*
X160098011Y-114629235D01*
X160102829Y-114679968D01*
X160119258Y-114726022D01*
X160147348Y-114761859D01*
X160190991Y-114788501D01*
X160242342Y-114802120D01*
X160292428Y-114805579D01*
X160344238Y-114803152D01*
X160393839Y-114794619D01*
X160441973Y-114775846D01*
X160456071Y-114766744D01*
X160491018Y-114729320D01*
X160508881Y-114678504D01*
X160510787Y-114626967D01*
X160510293Y-114620687D01*
X160528111Y-114574418D01*
X160533984Y-114569396D01*
X160582217Y-114555389D01*
X160587962Y-114555474D01*
X160634922Y-114571321D01*
X160638520Y-114574769D01*
X160653661Y-114622773D01*
X160651465Y-114633876D01*
X160641375Y-114683227D01*
X160635316Y-114734836D01*
X160633879Y-114759417D01*
X160633960Y-114809551D01*
X160639349Y-114859099D01*
X160643405Y-114877386D01*
X160633147Y-114922815D01*
X160589427Y-114946018D01*
X160540334Y-114945774D01*
X160510293Y-114909382D01*
X160500279Y-114895704D01*
X160454532Y-114916637D01*
X160452163Y-114917930D01*
X160404775Y-114934734D01*
X160382798Y-114939180D01*
X160334017Y-114945094D01*
X160293893Y-114946263D01*
X160244743Y-114944277D01*
X160190407Y-114936652D01*
X160141136Y-114923308D01*
X160090058Y-114900513D01*
X160045874Y-114869934D01*
X160040125Y-114864930D01*
X160005484Y-114828310D01*
X159979351Y-114786197D01*
X159961726Y-114738591D01*
X159952610Y-114685491D01*
X159951221Y-114652683D01*
X159954222Y-114599327D01*
X159964343Y-114548494D01*
X159976622Y-114515418D01*
X160002464Y-114471909D01*
X160037859Y-114437094D01*
X160043300Y-114433108D01*
X160087482Y-114407044D01*
X160135624Y-114388168D01*
X160184061Y-114375554D01*
X160234520Y-114364425D01*
X160238939Y-114363499D01*
X160288276Y-114352508D01*
X160340266Y-114338381D01*
X160386567Y-114322095D01*
X160428715Y-114299996D01*
X160462784Y-114264587D01*
X160482711Y-114219480D01*
X160488555Y-114170059D01*
X160482373Y-114119443D01*
X160459532Y-114072286D01*
X160444591Y-114055997D01*
X160402077Y-114028881D01*
X160352007Y-114013998D01*
X160297645Y-114008556D01*
X160284368Y-114008370D01*
G37*
G36*
X159466150Y-114152065D02*
G01*
X159518618Y-114161099D01*
X159567139Y-114176156D01*
X159611712Y-114197235D01*
X159659989Y-114230479D01*
X159695877Y-114264808D01*
X159702581Y-114272397D01*
X159734870Y-114315836D01*
X159760478Y-114363175D01*
X159779406Y-114414411D01*
X159791654Y-114469546D01*
X159796757Y-114518470D01*
X159797592Y-114549124D01*
X159795272Y-114598827D01*
X159786365Y-114655087D01*
X159770777Y-114707655D01*
X159748509Y-114756530D01*
X159719561Y-114801713D01*
X159702581Y-114822920D01*
X159667482Y-114858453D01*
X159628436Y-114887964D01*
X159585442Y-114911452D01*
X159538500Y-114928918D01*
X159487611Y-114940360D01*
X159432774Y-114945781D01*
X159409734Y-114946263D01*
X159353671Y-114943251D01*
X159301495Y-114934217D01*
X159253207Y-114919161D01*
X159208806Y-114898082D01*
X159160658Y-114864837D01*
X159124811Y-114830508D01*
X159118108Y-114822920D01*
X159085820Y-114779583D01*
X159060211Y-114732554D01*
X159041283Y-114681832D01*
X159029036Y-114627419D01*
X159023469Y-114569313D01*
X159023098Y-114549124D01*
X159023165Y-114547658D01*
X159169888Y-114547658D01*
X159173536Y-114598812D01*
X159186363Y-114651068D01*
X159208424Y-114697722D01*
X159228262Y-114725711D01*
X159264318Y-114760653D01*
X159306542Y-114785612D01*
X159354932Y-114800587D01*
X159409490Y-114805579D01*
X159458612Y-114801757D01*
X159508655Y-114788030D01*
X159552195Y-114764319D01*
X159589233Y-114730625D01*
X159593405Y-114725711D01*
X159621033Y-114682793D01*
X159639618Y-114634272D01*
X159649162Y-114580148D01*
X159650558Y-114547658D01*
X159646986Y-114495421D01*
X159634428Y-114442566D01*
X159612828Y-114395970D01*
X159593405Y-114368384D01*
X159557730Y-114333976D01*
X159515186Y-114309399D01*
X159465773Y-114294653D01*
X159416901Y-114289815D01*
X159409490Y-114289738D01*
X159354932Y-114294668D01*
X159306542Y-114309460D01*
X159264318Y-114334114D01*
X159228262Y-114368628D01*
X159200044Y-114411031D01*
X159181061Y-114459655D01*
X159171940Y-114508100D01*
X159169888Y-114547658D01*
X159023165Y-114547658D01*
X159025417Y-114498576D01*
X159034325Y-114441492D01*
X159049912Y-114388306D01*
X159072180Y-114339018D01*
X159101129Y-114293629D01*
X159118108Y-114272397D01*
X159153178Y-114236863D01*
X159192135Y-114207353D01*
X159234980Y-114183864D01*
X159281713Y-114166399D01*
X159332334Y-114154956D01*
X159386842Y-114149536D01*
X159409734Y-114149054D01*
X159466150Y-114152065D01*
G37*
G36*
X158760537Y-114320512D02*
G01*
X158760537Y-114742808D01*
X158782763Y-114770652D01*
X158832619Y-114776042D01*
X158850907Y-114774560D01*
X158890963Y-114791657D01*
X158901465Y-114840261D01*
X158892449Y-114889191D01*
X158891207Y-114891796D01*
X158851395Y-114915000D01*
X158802301Y-114909781D01*
X158753342Y-114907727D01*
X158699540Y-114906971D01*
X158684577Y-114906939D01*
X158628994Y-114907325D01*
X158578430Y-114908270D01*
X158525169Y-114909781D01*
X158469213Y-114911859D01*
X158410560Y-114914504D01*
X158400523Y-114915000D01*
X158353888Y-114898689D01*
X158350209Y-114894483D01*
X158334957Y-114847544D01*
X158334822Y-114841727D01*
X158347459Y-114794497D01*
X158350209Y-114790436D01*
X158397364Y-114773634D01*
X158401256Y-114774316D01*
X158450492Y-114778523D01*
X158487718Y-114781154D01*
X158537466Y-114781763D01*
X158584682Y-114781154D01*
X158610327Y-114773827D01*
X158619120Y-114742564D01*
X158619120Y-114317337D01*
X158587369Y-114289738D01*
X158535816Y-114286798D01*
X158486379Y-114287394D01*
X158432053Y-114289417D01*
X158396371Y-114291203D01*
X158349176Y-114275204D01*
X158345324Y-114271420D01*
X158327983Y-114226479D01*
X158345324Y-114180317D01*
X158390693Y-114161662D01*
X158396371Y-114161999D01*
X158449531Y-114164103D01*
X158501458Y-114165624D01*
X158552250Y-114166102D01*
X158587613Y-114164685D01*
X158619120Y-114142704D01*
X158619120Y-114097519D01*
X158600818Y-114050926D01*
X158576622Y-114032062D01*
X158529533Y-114013576D01*
X158479169Y-114008370D01*
X158430082Y-114009527D01*
X158406385Y-114011057D01*
X158356681Y-114020408D01*
X158336531Y-114025956D01*
X158287194Y-114016430D01*
X158258860Y-113975245D01*
X158258374Y-113973443D01*
X158259204Y-113924585D01*
X158260327Y-113921664D01*
X158298925Y-113889106D01*
X158302581Y-113888203D01*
X158351003Y-113878311D01*
X158389288Y-113872083D01*
X158439709Y-113868412D01*
X158479169Y-113867686D01*
X158532449Y-113870005D01*
X158587599Y-113878570D01*
X158635198Y-113893446D01*
X158680353Y-113918176D01*
X158699232Y-113933632D01*
X158731561Y-113974151D01*
X158751916Y-114023353D01*
X158759998Y-114075057D01*
X158760537Y-114093855D01*
X158760537Y-114141238D01*
X158783984Y-114161999D01*
X158833875Y-114162707D01*
X158847732Y-114161999D01*
X158890230Y-114181782D01*
X158902686Y-114226723D01*
X158890474Y-114273374D01*
X158847976Y-114294378D01*
X158798440Y-114293801D01*
X158784473Y-114295600D01*
X158760537Y-114320512D01*
G37*
G36*
X158070551Y-114337854D02*
G01*
X158070551Y-114712034D01*
X158066551Y-114763172D01*
X158052491Y-114813915D01*
X158028306Y-114857471D01*
X158006559Y-114882515D01*
X157965822Y-114913331D01*
X157916700Y-114934061D01*
X157865996Y-114944021D01*
X157823621Y-114946263D01*
X157770043Y-114944137D01*
X157718895Y-114936791D01*
X157669167Y-114921049D01*
X157665596Y-114919396D01*
X157619615Y-114889757D01*
X157582505Y-114853323D01*
X157552939Y-114813654D01*
X157526085Y-114766716D01*
X157522470Y-114759417D01*
X157519611Y-114709568D01*
X157522714Y-114703241D01*
X157559995Y-114669853D01*
X157563503Y-114668314D01*
X157612205Y-114660062D01*
X157616992Y-114660743D01*
X157654605Y-114687854D01*
X157677813Y-114733822D01*
X157710404Y-114772275D01*
X157714933Y-114776025D01*
X157759141Y-114798190D01*
X157810346Y-114805550D01*
X157814096Y-114805579D01*
X157865419Y-114799192D01*
X157903733Y-114776514D01*
X157924942Y-114730987D01*
X157929134Y-114686144D01*
X157929134Y-114337365D01*
X157924982Y-114299996D01*
X157903733Y-114293890D01*
X157853506Y-114290650D01*
X157804400Y-114289754D01*
X157796022Y-114289738D01*
X157746025Y-114290322D01*
X157693954Y-114292272D01*
X157666817Y-114293890D01*
X157621632Y-114272885D01*
X157606489Y-114225746D01*
X157621877Y-114178607D01*
X157667062Y-114160533D01*
X157718299Y-114163372D01*
X157770285Y-114164621D01*
X157785275Y-114164685D01*
X157837078Y-114163773D01*
X157887617Y-114161507D01*
X157904221Y-114160533D01*
X157927913Y-114144902D01*
X157930274Y-114092827D01*
X157929134Y-114049159D01*
X157925226Y-113960010D01*
X157944643Y-113913967D01*
X157946231Y-113912871D01*
X157994631Y-113899004D01*
X157998499Y-113898949D01*
X158046558Y-113909608D01*
X158051988Y-113912871D01*
X158070932Y-113957916D01*
X158070551Y-113959766D01*
X158068587Y-114012625D01*
X158068862Y-114061958D01*
X158074312Y-114113804D01*
X158078367Y-114127561D01*
X158119046Y-114157000D01*
X158138450Y-114157602D01*
X158182658Y-114177875D01*
X158196336Y-114225746D01*
X158182658Y-114273862D01*
X158138450Y-114293890D01*
X158089190Y-114297523D01*
X158084717Y-114299752D01*
X158070551Y-114337854D01*
G37*
G36*
X157336357Y-114319047D02*
G01*
X157179064Y-114874455D01*
X157159822Y-114920643D01*
X157153663Y-114927212D01*
X157107257Y-114946263D01*
X157061095Y-114928677D01*
X157034482Y-114887044D01*
X157030076Y-114872501D01*
X156935554Y-114588203D01*
X156933600Y-114571106D01*
X156930181Y-114588203D01*
X156833217Y-114882271D01*
X156810783Y-114926015D01*
X156765797Y-114946013D01*
X156758722Y-114946263D01*
X156711950Y-114930081D01*
X156686512Y-114885520D01*
X156685450Y-114881538D01*
X156528157Y-114319047D01*
X156512770Y-114291448D01*
X156476866Y-114289494D01*
X156444138Y-114271175D01*
X156434856Y-114227212D01*
X156444138Y-114183248D01*
X156476866Y-114164930D01*
X156526377Y-114168090D01*
X156577759Y-114168822D01*
X156587752Y-114168838D01*
X156638233Y-114169062D01*
X156688608Y-114167505D01*
X156722086Y-114164685D01*
X156757257Y-114183981D01*
X156767759Y-114226479D01*
X156757257Y-114270443D01*
X156722575Y-114289738D01*
X156676413Y-114293157D01*
X156671772Y-114314651D01*
X156760676Y-114628258D01*
X156765317Y-114649263D01*
X156771423Y-114628014D01*
X156878157Y-114309277D01*
X156903196Y-114266859D01*
X156932135Y-114258475D01*
X156976340Y-114283710D01*
X156986357Y-114307323D01*
X157094068Y-114614581D01*
X157100418Y-114633632D01*
X157105059Y-114614581D01*
X157191277Y-114313918D01*
X157185903Y-114293157D01*
X157155861Y-114288517D01*
X157150244Y-114289738D01*
X157111409Y-114269466D01*
X157100662Y-114225258D01*
X157111409Y-114182515D01*
X157150732Y-114164685D01*
X157201766Y-114168339D01*
X157254557Y-114170005D01*
X157269923Y-114170303D01*
X157319973Y-114169754D01*
X157369920Y-114167401D01*
X157394487Y-114164685D01*
X157427215Y-114183492D01*
X157436252Y-114227212D01*
X157427215Y-114269710D01*
X157394242Y-114289494D01*
X157352965Y-114291448D01*
X157336357Y-114319047D01*
G37*
G36*
X156034928Y-114150793D02*
G01*
X156087049Y-114156803D01*
X156136165Y-114167107D01*
X156150314Y-114171036D01*
X156199706Y-114189344D01*
X156244996Y-114212519D01*
X156286183Y-114240559D01*
X156293928Y-114246751D01*
X156321273Y-114288180D01*
X156322749Y-114297798D01*
X156311466Y-114346125D01*
X156310537Y-114347623D01*
X156271702Y-114377177D01*
X156223366Y-114366822D01*
X156218457Y-114363255D01*
X156177546Y-114336114D01*
X156132604Y-114315020D01*
X156110502Y-114307323D01*
X156061938Y-114295937D01*
X156010311Y-114290356D01*
X155985450Y-114289738D01*
X155934393Y-114296631D01*
X155888605Y-114319471D01*
X155874563Y-114331503D01*
X155844452Y-114372120D01*
X155835973Y-114409905D01*
X155887523Y-114403892D01*
X155921946Y-114401845D01*
X155972449Y-114399749D01*
X156008653Y-114399159D01*
X156063848Y-114401632D01*
X156114578Y-114409050D01*
X156168119Y-114423957D01*
X156215584Y-114445595D01*
X156251430Y-114469501D01*
X156288260Y-114505394D01*
X156316045Y-114547038D01*
X156334783Y-114594432D01*
X156344475Y-114647576D01*
X156345952Y-114680526D01*
X156342703Y-114732013D01*
X156331033Y-114784529D01*
X156310875Y-114830298D01*
X156278053Y-114873722D01*
X156239019Y-114905459D01*
X156192262Y-114928128D01*
X156137781Y-114941729D01*
X156083773Y-114946192D01*
X156075575Y-114946263D01*
X156026297Y-114944116D01*
X155976389Y-114936796D01*
X155930983Y-114924281D01*
X155885403Y-114905261D01*
X155850872Y-114875921D01*
X155857955Y-114895949D01*
X155836217Y-114872257D01*
X155832798Y-114879829D01*
X155820341Y-114905718D01*
X155785659Y-114919884D01*
X155735589Y-114917076D01*
X155698220Y-114915000D01*
X155648886Y-114916463D01*
X155624459Y-114919152D01*
X155584891Y-114898635D01*
X155574481Y-114850486D01*
X155574389Y-114844658D01*
X155583014Y-114795173D01*
X155584891Y-114790924D01*
X155624703Y-114768698D01*
X155673302Y-114774965D01*
X155675994Y-114774560D01*
X155694556Y-114748914D01*
X155694556Y-114551078D01*
X155835973Y-114551078D01*
X155835973Y-114692494D01*
X155871129Y-114729674D01*
X155913150Y-114759593D01*
X155931716Y-114769919D01*
X155979378Y-114790221D01*
X156029003Y-114802096D01*
X156075819Y-114805579D01*
X156124112Y-114797743D01*
X156167166Y-114769919D01*
X156193275Y-114727469D01*
X156200628Y-114680282D01*
X156190753Y-114631803D01*
X156161129Y-114591696D01*
X156155687Y-114586981D01*
X156109260Y-114560144D01*
X156060413Y-114546471D01*
X156008786Y-114540579D01*
X155980076Y-114539842D01*
X155930849Y-114541616D01*
X155914863Y-114542529D01*
X155864782Y-114547546D01*
X155835973Y-114551078D01*
X155694556Y-114551078D01*
X155694556Y-114393053D01*
X155699512Y-114339648D01*
X155714378Y-114292274D01*
X155743504Y-114245516D01*
X155779608Y-114211065D01*
X155798115Y-114198147D01*
X155845224Y-114174415D01*
X155896699Y-114158451D01*
X155946120Y-114150780D01*
X155985450Y-114149054D01*
X156034928Y-114150793D01*
G37*
G36*
X155374842Y-114342006D02*
G01*
X155374842Y-114760638D01*
X155394870Y-114781154D01*
X155441765Y-114774560D01*
X155488415Y-114792390D01*
X155501796Y-114840790D01*
X155501849Y-114844658D01*
X155490816Y-114892897D01*
X155488415Y-114896926D01*
X155442254Y-114915000D01*
X155389131Y-114912469D01*
X155337748Y-114911338D01*
X155283770Y-114910884D01*
X155261514Y-114910847D01*
X155210124Y-114911046D01*
X155155601Y-114911760D01*
X155105565Y-114912992D01*
X155054640Y-114915000D01*
X155005827Y-114906717D01*
X154995045Y-114898147D01*
X154973887Y-114852546D01*
X154973551Y-114844658D01*
X154988853Y-114798077D01*
X154995045Y-114791168D01*
X155041457Y-114773048D01*
X155054640Y-114774316D01*
X155062456Y-114774316D01*
X155115297Y-114779196D01*
X155165805Y-114782331D01*
X155188729Y-114782376D01*
X155233382Y-114762072D01*
X155233426Y-114760882D01*
X155233426Y-114458510D01*
X155197178Y-114423546D01*
X155159359Y-114388768D01*
X155121410Y-114356248D01*
X155091765Y-114333213D01*
X155049656Y-114306720D01*
X155001996Y-114290120D01*
X154995045Y-114289738D01*
X154952302Y-114306835D01*
X154938166Y-114355741D01*
X154935938Y-114389877D01*
X154916681Y-114436069D01*
X154912491Y-114439703D01*
X154864463Y-114455230D01*
X154860711Y-114455090D01*
X154814630Y-114438447D01*
X154809176Y-114433841D01*
X154786778Y-114389051D01*
X154786217Y-114378886D01*
X154791292Y-114325361D01*
X154804867Y-114277169D01*
X154829921Y-114229875D01*
X154842882Y-114212801D01*
X154879036Y-114179185D01*
X154924041Y-114156587D01*
X154974528Y-114149054D01*
X155026661Y-114153916D01*
X155074492Y-114168502D01*
X155087369Y-114174455D01*
X155131747Y-114199767D01*
X155174772Y-114231137D01*
X155198011Y-114250170D01*
X155210223Y-114258230D01*
X155227808Y-114271420D01*
X155232982Y-114220055D01*
X155233426Y-114179829D01*
X155285261Y-114182675D01*
X155335403Y-114184118D01*
X155351884Y-114184225D01*
X155403055Y-114183122D01*
X155442254Y-114180317D01*
X155488171Y-114197658D01*
X155501849Y-114244797D01*
X155487927Y-114290715D01*
X155440788Y-114304881D01*
X155438834Y-114304148D01*
X155395603Y-114307568D01*
X155374842Y-114342006D01*
G37*
G36*
X154363408Y-114152071D02*
G01*
X154420561Y-114163657D01*
X154472630Y-114183933D01*
X154519617Y-114212899D01*
X154561520Y-114250554D01*
X154580565Y-114272641D01*
X154610446Y-114316444D01*
X154634146Y-114363957D01*
X154651662Y-114415179D01*
X154662997Y-114470111D01*
X154668149Y-114528752D01*
X154668492Y-114549124D01*
X154666346Y-114598435D01*
X154658102Y-114654397D01*
X154643677Y-114706856D01*
X154623069Y-114755811D01*
X154596278Y-114801263D01*
X154580565Y-114822676D01*
X154541203Y-114864676D01*
X154496759Y-114897986D01*
X154447231Y-114922607D01*
X154392620Y-114938538D01*
X154343227Y-114945176D01*
X154311898Y-114946263D01*
X154256607Y-114944690D01*
X154206751Y-114939973D01*
X154157159Y-114930908D01*
X154123342Y-114921106D01*
X154074675Y-114899329D01*
X154032750Y-114872511D01*
X153992604Y-114838853D01*
X153975331Y-114821699D01*
X153953130Y-114777371D01*
X153952861Y-114766500D01*
X153974354Y-114721803D01*
X154020272Y-114701775D01*
X154067418Y-114718937D01*
X154071563Y-114723025D01*
X154111354Y-114756798D01*
X154154563Y-114782544D01*
X154165596Y-114787016D01*
X154213543Y-114799035D01*
X154266392Y-114804419D01*
X154311898Y-114805579D01*
X154365192Y-114798948D01*
X154411808Y-114779055D01*
X154451746Y-114745901D01*
X154458932Y-114737679D01*
X154487486Y-114693470D01*
X154505880Y-114647369D01*
X154517071Y-114595639D01*
X154517794Y-114590157D01*
X154468915Y-114587659D01*
X154419958Y-114586791D01*
X154366944Y-114586493D01*
X154314973Y-114586560D01*
X154280390Y-114586737D01*
X154224202Y-114586947D01*
X154169437Y-114587463D01*
X154119141Y-114588128D01*
X154064612Y-114589008D01*
X154005850Y-114590103D01*
X153955792Y-114591133D01*
X153954082Y-114540331D01*
X153956258Y-114491290D01*
X153961266Y-114458021D01*
X154110886Y-114458021D01*
X154165497Y-114459792D01*
X154215078Y-114460880D01*
X154265636Y-114461509D01*
X154310676Y-114461685D01*
X154362819Y-114461395D01*
X154411828Y-114460651D01*
X154463340Y-114459449D01*
X154510467Y-114458021D01*
X154496625Y-114410611D01*
X154470235Y-114365530D01*
X154451116Y-114343960D01*
X154410533Y-114313089D01*
X154362330Y-114295033D01*
X154311898Y-114289738D01*
X154260678Y-114295152D01*
X154211555Y-114313615D01*
X154169993Y-114345181D01*
X154137968Y-114386663D01*
X154116908Y-114434110D01*
X154110886Y-114458021D01*
X153961266Y-114458021D01*
X153964616Y-114435763D01*
X153979242Y-114383860D01*
X154000136Y-114335580D01*
X154027299Y-114290923D01*
X154043230Y-114269954D01*
X154082592Y-114228867D01*
X154127036Y-114196281D01*
X154176564Y-114172195D01*
X154231175Y-114156610D01*
X154280568Y-114150117D01*
X154311898Y-114149054D01*
X154363408Y-114152071D01*
G37*
G36*
X153341032Y-113918000D02*
G01*
X153351280Y-113965988D01*
X153351290Y-113967826D01*
X153341032Y-114016430D01*
X153304152Y-114039633D01*
X153254188Y-114038476D01*
X153244312Y-114040610D01*
X153224040Y-114063813D01*
X153224040Y-114755509D01*
X153243579Y-114774560D01*
X153293401Y-114774026D01*
X153303907Y-114773094D01*
X153341032Y-114793367D01*
X153351280Y-114841354D01*
X153351290Y-114843192D01*
X153341663Y-114891971D01*
X153341032Y-114893262D01*
X153304396Y-114915000D01*
X153253344Y-114912187D01*
X153202678Y-114910071D01*
X153152399Y-114908650D01*
X153124633Y-114908161D01*
X153074151Y-114908588D01*
X153020891Y-114909870D01*
X152972009Y-114911694D01*
X152921000Y-114914171D01*
X152906036Y-114915000D01*
X152851321Y-114911666D01*
X152801054Y-114901666D01*
X152746606Y-114880867D01*
X152698564Y-114850467D01*
X152656927Y-114810467D01*
X152632728Y-114778468D01*
X152608312Y-114735524D01*
X152588034Y-114686986D01*
X152571895Y-114632856D01*
X152559894Y-114573132D01*
X152553273Y-114521326D01*
X152549300Y-114465940D01*
X152547976Y-114406974D01*
X152693545Y-114406974D01*
X152695208Y-114465589D01*
X152700199Y-114519159D01*
X152708518Y-114567685D01*
X152722892Y-114619256D01*
X152745717Y-114670241D01*
X152761688Y-114694937D01*
X152796767Y-114733308D01*
X152838530Y-114759122D01*
X152886978Y-114772378D01*
X152916782Y-114774316D01*
X153082623Y-114774316D01*
X153082623Y-114039633D01*
X152916782Y-114039633D01*
X152864621Y-114045796D01*
X152819144Y-114064285D01*
X152780351Y-114095101D01*
X152761688Y-114117547D01*
X152735136Y-114163036D01*
X152717568Y-114209970D01*
X152704791Y-114264238D01*
X152697803Y-114315063D01*
X152694143Y-114370980D01*
X152693545Y-114406974D01*
X152547976Y-114406974D01*
X152549300Y-114347669D01*
X152553273Y-114291997D01*
X152559894Y-114239958D01*
X152569164Y-114191552D01*
X152584476Y-114136154D01*
X152603926Y-114086432D01*
X152627514Y-114042388D01*
X152632728Y-114034260D01*
X152663422Y-113995279D01*
X152706126Y-113957223D01*
X152755236Y-113928681D01*
X152810752Y-113909653D01*
X152861908Y-113901063D01*
X152906036Y-113898949D01*
X152956734Y-113901614D01*
X153005819Y-113903624D01*
X153059942Y-113905120D01*
X153111958Y-113905761D01*
X153124633Y-113905788D01*
X153173592Y-113904655D01*
X153223749Y-113902903D01*
X153275104Y-113900533D01*
X153304152Y-113898949D01*
X153341032Y-113918000D01*
G37*
G36*
X152093904Y-114152071D02*
G01*
X152151056Y-114163657D01*
X152203126Y-114183933D01*
X152250112Y-114212899D01*
X152292015Y-114250554D01*
X152311060Y-114272641D01*
X152340942Y-114316444D01*
X152364641Y-114363957D01*
X152382158Y-114415179D01*
X152393492Y-114470111D01*
X152398644Y-114528752D01*
X152398988Y-114549124D01*
X152396841Y-114598435D01*
X152388598Y-114654397D01*
X152374172Y-114706856D01*
X152353564Y-114755811D01*
X152326774Y-114801263D01*
X152311060Y-114822676D01*
X152271699Y-114864676D01*
X152227254Y-114897986D01*
X152177727Y-114922607D01*
X152123115Y-114938538D01*
X152073723Y-114945176D01*
X152042393Y-114946263D01*
X151987103Y-114944690D01*
X151937247Y-114939973D01*
X151887654Y-114930908D01*
X151853838Y-114921106D01*
X151805170Y-114899329D01*
X151763246Y-114872511D01*
X151723099Y-114838853D01*
X151705826Y-114821699D01*
X151683625Y-114777371D01*
X151683356Y-114766500D01*
X151704849Y-114721803D01*
X151750767Y-114701775D01*
X151797914Y-114718937D01*
X151802058Y-114723025D01*
X151841850Y-114756798D01*
X151885059Y-114782544D01*
X151896092Y-114787016D01*
X151944038Y-114799035D01*
X151996888Y-114804419D01*
X152042393Y-114805579D01*
X152095688Y-114798948D01*
X152142304Y-114779055D01*
X152182241Y-114745901D01*
X152189427Y-114737679D01*
X152217981Y-114693470D01*
X152236376Y-114647369D01*
X152247567Y-114595639D01*
X152248290Y-114590157D01*
X152199410Y-114587659D01*
X152150453Y-114586791D01*
X152097439Y-114586493D01*
X152045469Y-114586560D01*
X152010886Y-114586737D01*
X151954698Y-114586947D01*
X151899932Y-114587463D01*
X151849637Y-114588128D01*
X151795108Y-114589008D01*
X151736345Y-114590103D01*
X151686287Y-114591133D01*
X151684577Y-114540331D01*
X151686754Y-114491290D01*
X151691761Y-114458021D01*
X151841381Y-114458021D01*
X151895992Y-114459792D01*
X151945574Y-114460880D01*
X151996132Y-114461509D01*
X152041172Y-114461685D01*
X152093314Y-114461395D01*
X152142323Y-114460651D01*
X152193836Y-114459449D01*
X152240963Y-114458021D01*
X152227121Y-114410611D01*
X152200730Y-114365530D01*
X152181612Y-114343960D01*
X152141028Y-114313089D01*
X152092825Y-114295033D01*
X152042393Y-114289738D01*
X151991174Y-114295152D01*
X151942050Y-114313615D01*
X151900488Y-114345181D01*
X151868464Y-114386663D01*
X151847403Y-114434110D01*
X151841381Y-114458021D01*
X151691761Y-114458021D01*
X151695111Y-114435763D01*
X151709737Y-114383860D01*
X151730632Y-114335580D01*
X151757794Y-114290923D01*
X151773726Y-114269954D01*
X151813087Y-114228867D01*
X151857532Y-114196281D01*
X151907060Y-114172195D01*
X151961671Y-114156610D01*
X152011063Y-114150117D01*
X152042393Y-114149054D01*
X152093904Y-114152071D01*
G37*
G36*
X151162630Y-114150886D02*
G01*
X151210502Y-114156381D01*
X151259619Y-114169547D01*
X151276203Y-114174944D01*
X151306978Y-114186667D01*
X151306734Y-114163953D01*
X151356010Y-114166929D01*
X151406785Y-114168718D01*
X151421039Y-114168838D01*
X151471515Y-114167374D01*
X151505059Y-114164685D01*
X151549267Y-114187156D01*
X151562648Y-114235026D01*
X151562700Y-114238691D01*
X151549864Y-114286568D01*
X151549023Y-114287784D01*
X151505059Y-114305369D01*
X151462805Y-114307812D01*
X151452058Y-114326130D01*
X151452058Y-114949682D01*
X151465003Y-114972152D01*
X151504326Y-114973129D01*
X151549023Y-114989738D01*
X151562700Y-115036388D01*
X151549023Y-115084260D01*
X151504815Y-115102578D01*
X151451668Y-115100388D01*
X151399880Y-115099111D01*
X151350699Y-115098527D01*
X151318457Y-115098426D01*
X151269456Y-115098685D01*
X151218079Y-115099740D01*
X151167692Y-115102323D01*
X151164584Y-115102578D01*
X151117216Y-115086067D01*
X151113782Y-115081817D01*
X151101231Y-115032745D01*
X151101325Y-115028817D01*
X151117411Y-114981690D01*
X151119399Y-114979235D01*
X151165073Y-114961894D01*
X151216838Y-114966055D01*
X151265945Y-114966046D01*
X151310642Y-114952857D01*
X151310642Y-114853206D01*
X151266716Y-114880245D01*
X151226622Y-114895460D01*
X151178123Y-114908817D01*
X151127940Y-114914694D01*
X151113293Y-114915000D01*
X151055837Y-114910912D01*
X151003086Y-114898650D01*
X150955041Y-114878214D01*
X150911701Y-114849603D01*
X150873067Y-114812818D01*
X150861235Y-114798740D01*
X150832266Y-114757017D01*
X150809291Y-114711534D01*
X150792310Y-114662289D01*
X150781321Y-114609284D01*
X150776327Y-114552517D01*
X150775994Y-114532759D01*
X150923028Y-114532759D01*
X150926096Y-114582066D01*
X150936883Y-114631916D01*
X150957978Y-114680326D01*
X150972121Y-114701775D01*
X151009401Y-114740029D01*
X151054076Y-114764115D01*
X151106144Y-114774032D01*
X151117445Y-114774316D01*
X151167388Y-114768578D01*
X151215311Y-114748742D01*
X151255267Y-114714739D01*
X151265701Y-114701775D01*
X151291590Y-114657039D01*
X151306691Y-114610495D01*
X151314027Y-114558000D01*
X151314794Y-114532759D01*
X151311725Y-114482629D01*
X151300938Y-114431924D01*
X151279844Y-114382656D01*
X151265701Y-114360812D01*
X151228134Y-114323332D01*
X151182601Y-114299733D01*
X151129101Y-114290015D01*
X151117445Y-114289738D01*
X151068920Y-114295360D01*
X151022027Y-114314794D01*
X150982529Y-114348111D01*
X150972121Y-114360812D01*
X150946232Y-114406360D01*
X150931130Y-114453715D01*
X150923795Y-114507099D01*
X150923028Y-114532759D01*
X150775994Y-114532759D01*
X150778075Y-114483726D01*
X150786066Y-114428428D01*
X150800051Y-114376994D01*
X150820029Y-114329424D01*
X150846001Y-114285718D01*
X150861235Y-114265314D01*
X150898300Y-114225803D01*
X150940072Y-114194468D01*
X150986548Y-114171307D01*
X151037731Y-114156320D01*
X151093618Y-114149508D01*
X151113293Y-114149054D01*
X151162630Y-114150886D01*
G37*
G36*
X150320622Y-114150793D02*
G01*
X150372743Y-114156803D01*
X150421859Y-114167107D01*
X150436008Y-114171036D01*
X150485400Y-114189344D01*
X150530690Y-114212519D01*
X150571877Y-114240559D01*
X150579623Y-114246751D01*
X150606967Y-114288180D01*
X150608443Y-114297798D01*
X150597160Y-114346125D01*
X150596231Y-114347623D01*
X150557397Y-114377177D01*
X150509060Y-114366822D01*
X150504152Y-114363255D01*
X150463240Y-114336114D01*
X150418298Y-114315020D01*
X150396196Y-114307323D01*
X150347633Y-114295937D01*
X150296005Y-114290356D01*
X150271144Y-114289738D01*
X150220087Y-114296631D01*
X150174299Y-114319471D01*
X150160258Y-114331503D01*
X150130147Y-114372120D01*
X150121667Y-114409905D01*
X150173218Y-114403892D01*
X150207641Y-114401845D01*
X150258144Y-114399749D01*
X150294347Y-114399159D01*
X150349542Y-114401632D01*
X150400272Y-114409050D01*
X150453814Y-114423957D01*
X150501278Y-114445595D01*
X150537124Y-114469501D01*
X150573955Y-114505394D01*
X150601739Y-114547038D01*
X150620477Y-114594432D01*
X150630169Y-114647576D01*
X150631646Y-114680526D01*
X150628397Y-114732013D01*
X150616727Y-114784529D01*
X150596569Y-114830298D01*
X150563747Y-114873722D01*
X150524714Y-114905459D01*
X150477957Y-114928128D01*
X150423475Y-114941729D01*
X150369468Y-114946192D01*
X150361270Y-114946263D01*
X150311992Y-114944116D01*
X150262084Y-114936796D01*
X150216678Y-114924281D01*
X150171097Y-114905261D01*
X150136566Y-114875921D01*
X150143649Y-114895949D01*
X150121912Y-114872257D01*
X150118492Y-114879829D01*
X150106036Y-114905718D01*
X150071353Y-114919884D01*
X150021284Y-114917076D01*
X149983914Y-114915000D01*
X149934581Y-114916463D01*
X149910153Y-114919152D01*
X149870586Y-114898635D01*
X149860176Y-114850486D01*
X149860083Y-114844658D01*
X149868709Y-114795173D01*
X149870586Y-114790924D01*
X149910397Y-114768698D01*
X149958996Y-114774965D01*
X149961688Y-114774560D01*
X149980251Y-114748914D01*
X149980251Y-114551078D01*
X150121667Y-114551078D01*
X150121667Y-114692494D01*
X150156823Y-114729674D01*
X150198844Y-114759593D01*
X150217411Y-114769919D01*
X150265073Y-114790221D01*
X150314697Y-114802096D01*
X150361514Y-114805579D01*
X150409807Y-114797743D01*
X150452861Y-114769919D01*
X150478970Y-114727469D01*
X150486322Y-114680282D01*
X150476447Y-114631803D01*
X150446823Y-114591696D01*
X150441381Y-114586981D01*
X150394955Y-114560144D01*
X150346107Y-114546471D01*
X150294481Y-114540579D01*
X150265771Y-114539842D01*
X150216543Y-114541616D01*
X150200558Y-114542529D01*
X150150476Y-114547546D01*
X150121667Y-114551078D01*
X149980251Y-114551078D01*
X149980251Y-114393053D01*
X149985206Y-114339648D01*
X150000073Y-114292274D01*
X150029199Y-114245516D01*
X150065303Y-114211065D01*
X150083810Y-114198147D01*
X150130918Y-114174415D01*
X150182393Y-114158451D01*
X150231814Y-114150780D01*
X150271144Y-114149054D01*
X150320622Y-114150793D01*
G37*
G36*
X149660537Y-114342006D02*
G01*
X149660537Y-114760638D01*
X149680565Y-114781154D01*
X149727459Y-114774560D01*
X149774110Y-114792390D01*
X149787491Y-114840790D01*
X149787543Y-114844658D01*
X149776510Y-114892897D01*
X149774110Y-114896926D01*
X149727948Y-114915000D01*
X149674825Y-114912469D01*
X149623442Y-114911338D01*
X149569465Y-114910884D01*
X149547208Y-114910847D01*
X149495819Y-114911046D01*
X149441295Y-114911760D01*
X149391260Y-114912992D01*
X149340334Y-114915000D01*
X149291522Y-114906717D01*
X149280739Y-114898147D01*
X149259582Y-114852546D01*
X149259246Y-114844658D01*
X149274547Y-114798077D01*
X149280739Y-114791168D01*
X149327151Y-114773048D01*
X149340334Y-114774316D01*
X149348150Y-114774316D01*
X149400992Y-114779196D01*
X149451500Y-114782331D01*
X149474424Y-114782376D01*
X149519077Y-114762072D01*
X149519120Y-114760882D01*
X149519120Y-114458510D01*
X149482873Y-114423546D01*
X149445053Y-114388768D01*
X149407104Y-114356248D01*
X149377459Y-114333213D01*
X149335350Y-114306720D01*
X149287690Y-114290120D01*
X149280739Y-114289738D01*
X149237997Y-114306835D01*
X149223860Y-114355741D01*
X149221632Y-114389877D01*
X149202375Y-114436069D01*
X149198185Y-114439703D01*
X149150157Y-114455230D01*
X149146406Y-114455090D01*
X149100324Y-114438447D01*
X149094870Y-114433841D01*
X149072472Y-114389051D01*
X149071912Y-114378886D01*
X149076986Y-114325361D01*
X149090562Y-114277169D01*
X149115616Y-114229875D01*
X149128576Y-114212801D01*
X149164731Y-114179185D01*
X149209735Y-114156587D01*
X149260223Y-114149054D01*
X149312355Y-114153916D01*
X149360187Y-114168502D01*
X149373063Y-114174455D01*
X149417442Y-114199767D01*
X149460467Y-114231137D01*
X149483705Y-114250170D01*
X149495917Y-114258230D01*
X149513503Y-114271420D01*
X149518676Y-114220055D01*
X149519120Y-114179829D01*
X149570955Y-114182675D01*
X149621098Y-114184118D01*
X149637578Y-114184225D01*
X149688750Y-114183122D01*
X149727948Y-114180317D01*
X149773866Y-114197658D01*
X149787543Y-114244797D01*
X149773621Y-114290715D01*
X149726482Y-114304881D01*
X149724528Y-114304148D01*
X149681297Y-114307568D01*
X149660537Y-114342006D01*
G37*
G36*
X148845987Y-114337854D02*
G01*
X148845987Y-114712034D01*
X148841987Y-114763172D01*
X148827927Y-114813915D01*
X148803742Y-114857471D01*
X148781995Y-114882515D01*
X148741258Y-114913331D01*
X148692136Y-114934061D01*
X148641433Y-114944021D01*
X148599057Y-114946263D01*
X148545479Y-114944137D01*
X148494331Y-114936791D01*
X148444603Y-114921049D01*
X148441032Y-114919396D01*
X148395051Y-114889757D01*
X148357941Y-114853323D01*
X148328375Y-114813654D01*
X148301521Y-114766716D01*
X148297906Y-114759417D01*
X148295048Y-114709568D01*
X148298150Y-114703241D01*
X148335431Y-114669853D01*
X148338939Y-114668314D01*
X148387642Y-114660062D01*
X148392428Y-114660743D01*
X148430041Y-114687854D01*
X148453249Y-114733822D01*
X148485840Y-114772275D01*
X148490369Y-114776025D01*
X148534577Y-114798190D01*
X148585782Y-114805550D01*
X148589532Y-114805579D01*
X148640855Y-114799192D01*
X148679169Y-114776514D01*
X148700378Y-114730987D01*
X148704570Y-114686144D01*
X148704570Y-114337365D01*
X148700418Y-114299996D01*
X148679169Y-114293890D01*
X148628942Y-114290650D01*
X148579836Y-114289754D01*
X148571458Y-114289738D01*
X148521461Y-114290322D01*
X148469390Y-114292272D01*
X148442254Y-114293890D01*
X148397069Y-114272885D01*
X148381926Y-114225746D01*
X148397313Y-114178607D01*
X148442498Y-114160533D01*
X148493735Y-114163372D01*
X148545721Y-114164621D01*
X148560711Y-114164685D01*
X148612514Y-114163773D01*
X148663053Y-114161507D01*
X148679658Y-114160533D01*
X148703349Y-114144902D01*
X148705710Y-114092827D01*
X148704570Y-114049159D01*
X148700662Y-113960010D01*
X148720079Y-113913967D01*
X148721667Y-113912871D01*
X148770067Y-113899004D01*
X148773935Y-113898949D01*
X148821994Y-113909608D01*
X148827424Y-113912871D01*
X148846368Y-113957916D01*
X148845987Y-113959766D01*
X148844023Y-114012625D01*
X148844298Y-114061958D01*
X148849748Y-114113804D01*
X148853803Y-114127561D01*
X148894482Y-114157000D01*
X148913886Y-114157602D01*
X148958094Y-114177875D01*
X148971772Y-114225746D01*
X148958094Y-114273862D01*
X148913886Y-114293890D01*
X148864626Y-114297523D01*
X148860153Y-114299752D01*
X148845987Y-114337854D01*
G37*
G36*
X148060013Y-114332725D02*
G01*
X148060013Y-114752578D01*
X148078576Y-114774560D01*
X148127479Y-114774982D01*
X148135240Y-114774316D01*
X148138415Y-114774316D01*
X148176517Y-114793122D01*
X148187020Y-114841727D01*
X148177393Y-114890505D01*
X148176762Y-114891796D01*
X148138904Y-114915000D01*
X148088114Y-114912810D01*
X148038691Y-114911338D01*
X147996022Y-114910847D01*
X147945210Y-114911760D01*
X147894087Y-114914744D01*
X147890997Y-114915000D01*
X147851186Y-114889598D01*
X147839218Y-114840994D01*
X147851430Y-114792390D01*
X147891974Y-114774316D01*
X147914689Y-114772117D01*
X147918597Y-114753311D01*
X147918597Y-114377909D01*
X147895190Y-114333067D01*
X147872923Y-114312208D01*
X147825654Y-114294039D01*
X147775959Y-114289738D01*
X147727929Y-114300467D01*
X147710746Y-114314651D01*
X147694250Y-114361546D01*
X147693649Y-114376444D01*
X147693649Y-114751845D01*
X147702686Y-114775048D01*
X147725157Y-114774560D01*
X147772863Y-114789074D01*
X147774005Y-114790436D01*
X147789332Y-114837805D01*
X147789392Y-114841727D01*
X147777586Y-114890084D01*
X147775959Y-114892773D01*
X147732196Y-114915285D01*
X147728576Y-114915000D01*
X147678979Y-114911642D01*
X147628436Y-114910847D01*
X147576310Y-114911533D01*
X147526682Y-114914026D01*
X147515352Y-114915000D01*
X147472609Y-114889598D01*
X147459229Y-114842486D01*
X147459176Y-114838796D01*
X147472854Y-114790680D01*
X147516573Y-114774560D01*
X147546615Y-114775293D01*
X147552233Y-114751357D01*
X147552233Y-114366430D01*
X147533972Y-114319161D01*
X147518039Y-114304392D01*
X147468700Y-114292543D01*
X147416434Y-114289738D01*
X147367242Y-114299088D01*
X147347069Y-114313674D01*
X147328232Y-114360888D01*
X147327285Y-114379131D01*
X147327285Y-114751845D01*
X147333391Y-114771629D01*
X147354152Y-114774316D01*
X147394452Y-114793855D01*
X147405262Y-114841584D01*
X147405198Y-114843436D01*
X147393738Y-114891298D01*
X147392986Y-114892529D01*
X147353175Y-114915000D01*
X147300918Y-114912311D01*
X147250515Y-114910993D01*
X147227878Y-114910847D01*
X147178956Y-114911760D01*
X147128065Y-114914257D01*
X147116503Y-114915000D01*
X147072295Y-114894483D01*
X147058631Y-114846525D01*
X147058618Y-114844658D01*
X147070639Y-114795885D01*
X147072295Y-114793367D01*
X147116992Y-114774316D01*
X147166802Y-114776275D01*
X147173168Y-114774804D01*
X147185868Y-114752578D01*
X147185868Y-114351531D01*
X147190486Y-114301413D01*
X147206447Y-114253204D01*
X147237174Y-114209265D01*
X147244242Y-114202299D01*
X147287523Y-114171985D01*
X147334082Y-114155346D01*
X147387510Y-114149106D01*
X147393230Y-114149054D01*
X147443606Y-114150503D01*
X147496099Y-114156209D01*
X147541974Y-114167372D01*
X147587786Y-114189932D01*
X147607920Y-114206451D01*
X147645426Y-114174265D01*
X147657745Y-114167616D01*
X147706810Y-114152607D01*
X147748604Y-114149054D01*
X147800048Y-114150304D01*
X147850416Y-114155272D01*
X147858269Y-114156625D01*
X147904991Y-114173928D01*
X147915177Y-114179340D01*
X147945464Y-114195949D01*
X147936915Y-114164197D01*
X147975750Y-114166151D01*
X148026219Y-114167473D01*
X148043893Y-114167616D01*
X148094222Y-114167397D01*
X148138171Y-114164685D01*
X148176517Y-114183492D01*
X148187020Y-114232096D01*
X148177163Y-114281104D01*
X148176517Y-114282411D01*
X148138904Y-114305369D01*
X148089262Y-114306652D01*
X148078332Y-114310254D01*
X148060013Y-114332725D01*
G37*
G36*
X146636541Y-114152071D02*
G01*
X146693694Y-114163657D01*
X146745764Y-114183933D01*
X146792750Y-114212899D01*
X146834653Y-114250554D01*
X146853698Y-114272641D01*
X146883580Y-114316444D01*
X146907279Y-114363957D01*
X146924796Y-114415179D01*
X146936130Y-114470111D01*
X146941282Y-114528752D01*
X146941625Y-114549124D01*
X146939479Y-114598435D01*
X146931236Y-114654397D01*
X146916810Y-114706856D01*
X146896202Y-114755811D01*
X146869412Y-114801263D01*
X146853698Y-114822676D01*
X146814337Y-114864676D01*
X146769892Y-114897986D01*
X146720364Y-114922607D01*
X146665753Y-114938538D01*
X146616361Y-114945176D01*
X146585031Y-114946263D01*
X146529740Y-114944690D01*
X146479884Y-114939973D01*
X146430292Y-114930908D01*
X146396475Y-114921106D01*
X146347808Y-114899329D01*
X146305884Y-114872511D01*
X146265737Y-114838853D01*
X146248464Y-114821699D01*
X146226263Y-114777371D01*
X146225994Y-114766500D01*
X146247487Y-114721803D01*
X146293405Y-114701775D01*
X146340551Y-114718937D01*
X146344696Y-114723025D01*
X146384488Y-114756798D01*
X146427697Y-114782544D01*
X146438729Y-114787016D01*
X146486676Y-114799035D01*
X146539525Y-114804419D01*
X146585031Y-114805579D01*
X146638325Y-114798948D01*
X146684941Y-114779055D01*
X146724879Y-114745901D01*
X146732065Y-114737679D01*
X146760619Y-114693470D01*
X146779013Y-114647369D01*
X146790205Y-114595639D01*
X146790928Y-114590157D01*
X146742048Y-114587659D01*
X146693091Y-114586791D01*
X146640077Y-114586493D01*
X146588106Y-114586560D01*
X146553524Y-114586737D01*
X146497336Y-114586947D01*
X146442570Y-114587463D01*
X146392275Y-114588128D01*
X146337746Y-114589008D01*
X146278983Y-114590103D01*
X146228925Y-114591133D01*
X146227215Y-114540331D01*
X146229392Y-114491290D01*
X146234399Y-114458021D01*
X146384019Y-114458021D01*
X146438630Y-114459792D01*
X146488212Y-114460880D01*
X146538770Y-114461509D01*
X146583810Y-114461685D01*
X146635952Y-114461395D01*
X146684961Y-114460651D01*
X146736473Y-114459449D01*
X146783600Y-114458021D01*
X146769759Y-114410611D01*
X146743368Y-114365530D01*
X146724249Y-114343960D01*
X146683666Y-114313089D01*
X146635463Y-114295033D01*
X146585031Y-114289738D01*
X146533811Y-114295152D01*
X146484688Y-114313615D01*
X146443126Y-114345181D01*
X146411101Y-114386663D01*
X146390041Y-114434110D01*
X146384019Y-114458021D01*
X146234399Y-114458021D01*
X146237749Y-114435763D01*
X146252375Y-114383860D01*
X146273269Y-114335580D01*
X146300432Y-114290923D01*
X146316364Y-114269954D01*
X146355725Y-114228867D01*
X146400170Y-114196281D01*
X146449697Y-114172195D01*
X146504309Y-114156610D01*
X146553701Y-114150117D01*
X146585031Y-114149054D01*
X146636541Y-114152071D01*
G37*
G36*
X146005687Y-114353485D02*
G01*
X146005687Y-114765279D01*
X146020830Y-114777002D01*
X146064549Y-114774560D01*
X146101919Y-114793367D01*
X146110956Y-114841727D01*
X146102475Y-114890579D01*
X146101919Y-114891796D01*
X146065526Y-114915000D01*
X146013307Y-114912636D01*
X145962857Y-114911176D01*
X145929483Y-114910847D01*
X145879568Y-114911642D01*
X145829840Y-114914026D01*
X145815666Y-114915000D01*
X145777808Y-114893750D01*
X145765852Y-114845134D01*
X145765840Y-114843192D01*
X145776359Y-114795307D01*
X145777808Y-114792878D01*
X145816887Y-114774560D01*
X145852791Y-114778712D01*
X145864270Y-114765034D01*
X145864270Y-114368872D01*
X145826240Y-114335136D01*
X145786845Y-114312697D01*
X145737965Y-114297002D01*
X145688474Y-114290298D01*
X145668387Y-114289738D01*
X145618867Y-114294867D01*
X145585589Y-114310254D01*
X145561682Y-114353531D01*
X145558478Y-114386946D01*
X145558478Y-114765034D01*
X145566294Y-114776025D01*
X145594138Y-114774560D01*
X145640788Y-114792390D01*
X145654169Y-114840589D01*
X145654221Y-114844658D01*
X145641785Y-114892178D01*
X145639078Y-114895949D01*
X145594870Y-114915000D01*
X145542830Y-114912810D01*
X145492913Y-114911253D01*
X145461758Y-114910847D01*
X145410671Y-114912019D01*
X145361250Y-114914744D01*
X145357466Y-114915000D01*
X145315701Y-114895460D01*
X145302320Y-114847060D01*
X145302267Y-114843192D01*
X145313300Y-114795153D01*
X145315701Y-114791168D01*
X145358443Y-114774560D01*
X145407536Y-114778712D01*
X145417062Y-114764790D01*
X145417062Y-114348356D01*
X145422510Y-114295638D01*
X145441343Y-114245855D01*
X145473629Y-114205326D01*
X145485938Y-114194972D01*
X145532401Y-114168829D01*
X145583005Y-114154480D01*
X145635360Y-114149233D01*
X145647871Y-114149054D01*
X145699975Y-114152248D01*
X145751227Y-114162918D01*
X145776587Y-114171769D01*
X145822113Y-114194238D01*
X145845708Y-114209870D01*
X145849616Y-114211092D01*
X145861339Y-114218175D01*
X145862072Y-114179584D01*
X145913557Y-114182757D01*
X145964880Y-114184184D01*
X145974668Y-114184225D01*
X146023825Y-114183122D01*
X146064794Y-114180317D01*
X146101674Y-114197658D01*
X146110946Y-114245816D01*
X146110956Y-114247728D01*
X146102475Y-114296492D01*
X146101919Y-114297798D01*
X146065282Y-114321001D01*
X146022784Y-114323199D01*
X146005687Y-114353485D01*
G37*
G36*
X145074877Y-114337854D02*
G01*
X145074877Y-114712034D01*
X145070878Y-114763172D01*
X145056817Y-114813915D01*
X145032633Y-114857471D01*
X145010886Y-114882515D01*
X144970148Y-114913331D01*
X144921026Y-114934061D01*
X144870323Y-114944021D01*
X144827948Y-114946263D01*
X144774369Y-114944137D01*
X144723221Y-114936791D01*
X144673493Y-114921049D01*
X144669923Y-114919396D01*
X144623941Y-114889757D01*
X144586832Y-114853323D01*
X144557266Y-114813654D01*
X144530411Y-114766716D01*
X144526796Y-114759417D01*
X144523938Y-114709568D01*
X144527041Y-114703241D01*
X144564321Y-114669853D01*
X144567829Y-114668314D01*
X144616532Y-114660062D01*
X144621318Y-114660743D01*
X144658932Y-114687854D01*
X144682140Y-114733822D01*
X144714731Y-114772275D01*
X144719260Y-114776025D01*
X144763468Y-114798190D01*
X144814673Y-114805550D01*
X144818422Y-114805579D01*
X144869746Y-114799192D01*
X144908060Y-114776514D01*
X144929269Y-114730987D01*
X144933461Y-114686144D01*
X144933461Y-114337365D01*
X144929309Y-114299996D01*
X144908060Y-114293890D01*
X144857833Y-114290650D01*
X144808726Y-114289754D01*
X144800348Y-114289738D01*
X144750351Y-114290322D01*
X144698280Y-114292272D01*
X144671144Y-114293890D01*
X144625959Y-114272885D01*
X144610816Y-114225746D01*
X144626203Y-114178607D01*
X144671388Y-114160533D01*
X144722626Y-114163372D01*
X144774611Y-114164621D01*
X144789602Y-114164685D01*
X144841404Y-114163773D01*
X144891943Y-114161507D01*
X144908548Y-114160533D01*
X144932240Y-114144902D01*
X144934601Y-114092827D01*
X144933461Y-114049159D01*
X144929553Y-113960010D01*
X144948970Y-113913967D01*
X144950558Y-113912871D01*
X144998958Y-113899004D01*
X145002826Y-113898949D01*
X145050884Y-113909608D01*
X145056315Y-113912871D01*
X145075259Y-113957916D01*
X145074877Y-113959766D01*
X145072914Y-114012625D01*
X145073189Y-114061958D01*
X145078638Y-114113804D01*
X145082693Y-114127561D01*
X145123372Y-114157000D01*
X145142777Y-114157602D01*
X145186985Y-114177875D01*
X145200662Y-114225746D01*
X145186985Y-114273862D01*
X145142777Y-114293890D01*
X145093516Y-114297523D01*
X145089043Y-114299752D01*
X145074877Y-114337854D01*
G37*
D14*
%TO.P,SW1,1,1*%
%TO.N,unconnected-(SW1-Pad1)*%
X147540000Y-99420000D03*
%TO.P,SW1,2,2*%
%TO.N,unconnected-(SW1-Pad2)*%
X141190000Y-101960000D03*
%TD*%
D15*
%TO.N,*%
X177000000Y-97000000D03*
%TD*%
M02*
